<?xml version="1.0" encoding="UTF-8" standalone="no"?>
<svg
   xmlns:dc="http://purl.org/dc/elements/1.1/"
   xmlns:cc="http://creativecommons.org/ns#"
   xmlns:rdf="http://www.w3.org/1999/02/22-rdf-syntax-ns#"
   xmlns:svg="http://www.w3.org/2000/svg"
   xmlns="http://www.w3.org/2000/svg"
   id="svg4528"
   version="1.1"
   viewBox="0 0 7.1079068 6.881844"
   height="6.881844mm"
   width="7.1079068mm">
  <defs
     id="defs4522" />
  <metadata
     id="metadata4525">
    <rdf:RDF>
      <cc:Work
         rdf:about="">
        <dc:format>image/svg+xml</dc:format>
        <dc:type
           rdf:resource="http://purl.org/dc/dcmitype/StillImage" />
        <dc:title></dc:title>
      </cc:Work>
    </rdf:RDF>
  </metadata>
  <g
     transform="translate(-66.749619,-118.93411)"
     id="layer1">
    <path
       d="m 67.2052,118.93425 h 6.256205 c 0.313822,-0.004 0.39605,0.0738 0.39605,0.38178 v 5.96797 c 0.0027,0.45898 -0.06974,0.53704 -0.446929,0.53105 h -6.103594 c -0.484769,0.008 -0.555704,-0.0255 -0.555704,-0.59887 v -5.84928 c -0.0127,-0.38994 0.04183,-0.43265 0.453972,-0.43265 z m 0.525595,6.17914 h 5.06939 c 0.313716,-0.005 0.366342,-0.0625 0.378328,-0.35498 v -4.67943 c -0.0069,-0.37644 -0.06294,-0.43708 -0.378328,-0.44308 h -4.984618 c -0.315145,0.008 -0.379386,0.0327 -0.385392,0.34136 v 4.79811 c -0.01958,0.34025 -0.02328,0.33802 0.30062,0.33802 z"
       style="fill:#fc970a;fill-opacity:1;fill-rule:nonzero;stroke:none;stroke-width:0.13983512"
       id="path4502-4-5-5" />
    <path
       d="m 73.035135,121.07687 -3.551343,3.57167 c -0.135758,0.13031 -0.163963,0.12662 -0.309007,-0.0201 L 67.524129,122.939 c -0.03538,-0.0339 -0.04961,-0.15016 -0.01614,-0.18147 l 0.763402,-0.80442 c 0.07295,-0.0788 0.16719,-0.07 0.235453,-0.0145 l 0.670957,0.66082 0.09702,0.098 c 0.03601,0.04 0.102949,0.0417 0.156845,-0.0104 l 0.0844,-0.0851 2.460148,-2.48203 c 0.178118,-0.19964 0.174149,-0.21045 0.356209,-0.0311 l 0.713264,0.70277 c 0.166396,0.1393 0.13126,0.14315 -0.01058,0.28537 z"
       id="path7588-5-3-5-0-83-3"
       style="font-style:normal;font-weight:normal;font-size:40px;line-height:125%;font-family:sans-serif;letter-spacing:0px;word-spacing:0px;opacity:1;fill:#d62c1b;fill-opacity:1;stroke:none;stroke-width:0.19181772px;stroke-linecap:butt;stroke-linejoin:miter;stroke-opacity:1" />
  </g>
</svg>