<?xml version="1.0" encoding="UTF-8" standalone="no"?>
<svg
   xmlns:dc="http://purl.org/dc/elements/1.1/"
   xmlns:cc="http://creativecommons.org/ns#"
   xmlns:rdf="http://www.w3.org/1999/02/22-rdf-syntax-ns#"
   xmlns:svg="http://www.w3.org/2000/svg"
   xmlns="http://www.w3.org/2000/svg"
   xmlns:sodipodi="http://sodipodi.sourceforge.net/DTD/sodipodi-0.dtd"
   xmlns:inkscape="http://www.inkscape.org/namespaces/inkscape"
   width="200"
   height="75.100334"
   viewBox="1.578 2.062 9.34752 3.5090811"
   version="1.1"
   id="svg8"
   sodipodi:docname="amazon_services.svg"
   inkscape:version="0.92.1 r15371">
  <metadata
     id="metadata14">
    <rdf:RDF>
      <cc:Work
         rdf:about="">
        <dc:format>image/svg+xml</dc:format>
        <dc:type
           rdf:resource="http://purl.org/dc/dcmitype/StillImage" />
      </cc:Work>
    </rdf:RDF>
  </metadata>
  <defs
     id="defs12" />
  <sodipodi:namedview
     pagecolor="#ffffff"
     bordercolor="#666666"
     borderopacity="1"
     objecttolerance="10"
     gridtolerance="10"
     guidetolerance="10"
     inkscape:pageopacity="0"
     inkscape:pageshadow="2"
     inkscape:window-width="1366"
     inkscape:window-height="705"
     id="namedview10"
     showgrid="false"
     inkscape:zoom="0.9088"
     inkscape:cx="-273.23664"
     inkscape:cy="-77.723132"
     inkscape:window-x="-8"
     inkscape:window-y="-8"
     inkscape:window-maximized="1"
     inkscape:current-layer="svg8" />
  <path
     d="m 4.5979736,3.3491596 c -0.182958,0 -0.3871968,0.07048 -0.4299964,0.3024759 -0.00456,0.02464 0.01176,0.0364 0.02752,0.04 l 0.187518,0.02248 c 0.01736,-8.8e-4 0.02912,-0.0198 0.03248,-0.03752 0.016,-0.07984 0.08168,-0.11752 0.155038,-0.11752 0.0396,0 0.08408,0.0136 0.1075173,0.05 0.02688,0.04056 0.02496,0.09568 0.02496,0.14248 v 0.02752 c -0.11144,0.0128 -0.2581577,0.02056 -0.3624766,0.06752 -0.1203987,0.05352 -0.2049582,0.1623999 -0.2049582,0.3224779 0,0.205118 0.1256787,0.3075178 0.2875174,0.3075178 0.136638,0 0.2121581,-0.03208 0.3175173,-0.1424798 0.03496,0.052 0.04616,0.0756 0.11,0.13 a 0.03847967,0.03847967 0 0 0 0.04496,-0.005 v 0.0024 c 0.0384,-0.03504 0.10824,-0.09872 0.147518,-0.13248 0.01568,-0.0132 0.01224,-0.03472 0,-0.05248 -0.03512,-0.04976 -0.07248,-0.08992 -0.07248,-0.18248 V 3.7865555 c 0,-0.13024 0.01104,-0.250318 -0.08248,-0.3399979 -0.07384,-0.07256 -0.1967179,-0.09752 -0.2901572,-0.09752 z m 2.5199776,0 c -0.1830379,0 -0.3871167,0.07048 -0.4299963,0.3024759 -0.00456,0.02464 0.01168,0.0364 0.02752,0.04 l 0.187518,0.02248 c 0.01736,-8.8e-4 0.0292,-0.0198 0.03248,-0.03752 0.01608,-0.07984 0.08168,-0.11752 0.1550379,-0.11752 0.03968,0 0.08408,0.0136 0.10752,0.05 0.0268,0.04056 0.02248,0.09568 0.02248,0.14248 v 0.02752 c -0.11144,0.0128 -0.2555979,0.02056 -0.3599969,0.06752 -0.1204774,0.05352 -0.2049582,0.1623999 -0.2049582,0.3224779 0,0.205118 0.1257574,0.3075178 0.2875174,0.3075178 0.136478,0 0.2119981,-0.03208 0.3175173,-0.1424798 0.03488,0.052 0.04616,0.0756 0.11,0.13 0.0144,0.0076 0.03224,0.0068 0.04496,-0.005 v 0.0024 c 0.0384,-0.03504 0.10824,-0.09872 0.1475179,-0.13248 0.0156,-0.0132 0.012,-0.03472 0,-0.05248 -0.03512,-0.04976 -0.07248,-0.08992 -0.07248,-0.18248 V 3.7865555 c 0,-0.13024 0.0084,-0.250318 -0.08496,-0.3399979 -0.07392,-0.07256 -0.194238,-0.09752 -0.2876776,-0.09752 z m -1.4175073,0.01 c -0.1182387,0 -0.2059184,0.05968 -0.252478,0.1875199 h -0.00248 v -0.13248 a 0.03775967,0.03775967 0 0 0 -0.03504,-0.03504 H 5.230448 a 0.03807967,0.03807967 0 0 0 -0.03752,0.03752 v 1.0124716 a 0.03887965,0.03887965 0 0 0 0.03504,0.03504 h 0.1924779 a 0.03791967,0.03791967 0 0 0 0.03752,-0.03752 V 3.8891555 c 0,-0.1172 -0.00568,-0.277518 0.1324786,-0.277518 0.136398,0 0.1175187,0.16472 0.1175187,0.277518 v 0.5375157 c 0,0.0192 0.0156,0.03624 0.03504,0.03752 h 0.1924779 a 0.03791967,0.03791967 0 0 0 0.03752,-0.03752 V 3.8891555 c 0,-0.05752 -0.00232,-0.14128 0.01752,-0.19248 0.01976,-0.0512 0.06832,-0.08496 0.1150373,-0.08496 0.05568,0 0.09816,0.0194 0.11248,0.08752 0.00896,0.04048 0.00496,0.14744 0.00496,0.19 v 0.5375157 c 0,0.0192 0.0156,0.03624 0.03504,0.03752 h 0.1924779 a 0.03791967,0.03791967 0 0 0 0.03752,-0.03752 V 3.7867575 c 0,-0.10872 0.01096,-0.232158 -0.05,-0.317518 -0.05384,-0.07664 -0.141838,-0.11 -0.2224779,-0.11 -0.11312,0 -0.2183181,0.05968 -0.2649577,0.1875199 C 5.89668,3.4189196 5.82068,3.3591596 5.7004439,3.3591596 Z m 3.272531,0 c -0.2781577,0 -0.4324762,0.2445579 -0.4324762,0.5599959 0,0.3132779 0.1526378,0.5649557 0.4324762,0.5649557 0.2691975,0 0.439996,-0.2459178 0.439996,-0.5550358 0,-0.3194379 -0.1547178,-0.5699158 -0.439996,-0.5699158 z m 1.0974301,0 c -0.1328771,0 -0.2087979,0.06648 -0.2624775,0.2049599 h -0.00248 V 3.4090796 c -0.00344,-0.0156 -0.01824,-0.02656 -0.03504,-0.02752 h -0.177518 a 0.03695967,0.03695967 0 0 0 -0.03752,0.03248 v 1.0124716 a 0.03839967,0.03839967 0 0 0 0.03504,0.03752 h 0.189998 a 0.03807967,0.03807967 0 0 0 0.03752,-0.03752 V 3.8815555 c 0,-0.06832 0.00576,-0.13064 0.03248,-0.19248 0.0216,-0.04904 0.06328,-0.08 0.1099973,-0.08 0.1326402,0 0.1199972,0.16168 0.1199972,0.272478 v 0.5499957 a 0.03791967,0.03791967 0 0 0 0.03504,0.03248 h 0.192479 c 0.01888,0 0.03528,-0.0144 0.03752,-0.03248 V 3.7940355 c 0,-0.098 2.4e-4,-0.234158 -0.05,-0.315038 -0.05384,-0.08728 -0.139038,-0.11984 -0.225038,-0.11984 z m -2.3099795,0.0176 c -0.01952,0 -0.03496,0.0156 -0.03504,0.03752 v 0.1449599 c 8e-5,0.02168 0.01504,0.03736 0.03504,0.03752 h 0.329997 L 7.7129059,4.1542754 c -0.02304,0.03592 -0.02496,0.07664 -0.02496,0.1 v 0.1475198 c 0,0.02128 0.02312,0.0444 0.04496,0.03248 0.2151178,-0.11744 0.4729556,-0.10704 0.667514,-0.0024 0.0236,0.0128 0.04752,-0.0112 0.04752,-0.03248 V 4.2443554 a 0.06575943,0.06575943 0 0 0 -0.03504,-0.05504 c -0.1104,-0.06352 -0.238558,-0.08296 -0.359997,-0.08 L 8.3804201,3.6293195 c 0.03032,-0.04312 0.04728,-0.06912 0.04752,-0.09 v -0.12496 c 0,-0.02152 -0.01472,-0.03752 -0.03504,-0.03752 z m 1.2125494,0.1899999 c 0.06096,0 0.1059187,0.0272 0.1275174,0.09752 0.02496,0.08104 0.02752,0.18224 0.02752,0.2675179 0,0.12992 -0.00608,0.344958 -0.1550379,0.344958 -0.150638,0 -0.149998,-0.266238 -0.149998,-0.3899979 0,-0.12344 0.00824,-0.319996 0.1499985,-0.319998 z M 4.7004525,3.9367554 v 0.04248 c 0,0.07688 0.0028,0.1416 -0.03504,0.209998 -0.03056,0.0556 -0.07856,0.09 -0.1324786,0.09 -0.0736,0 -0.1175174,-0.05968 -0.1175174,-0.14496 8e-5,-0.16816 0.146158,-0.19752 0.2850374,-0.19752 z m 2.5199779,0 v 0.04248 c 0,0.07688 0.0028,0.1416 -0.03504,0.209998 -0.03056,0.0556 -0.07832,0.09 -0.1324787,0.09 -0.07368,0 -0.1175173,-0.05968 -0.1175173,-0.14496 8e-5,-0.16816 0.1459979,-0.19752 0.2850375,-0.19752 z"
     id="path2"
     inkscape:connector-curvature="0"
     style="fill:#201c1d;stroke-width:0.07999929" />
  <path
     d="m 8.4679392,4.4966692 v 0.14496 h 0.09752 v -0.14496 z m -2.8274949,0.02496 V 5.554101 h 0.09 V 5.46162 c 0.0192,0.03664 0.04104,0.06408 0.06752,0.08248 0.0264,0.0184 0.05672,0.02752 0.09,0.02752 0.06608,0 0.1231173,-0.03376 0.172478,-0.10248 0.04936,-0.06872 0.07504,-0.1683198 0.07504,-0.2950358 0,-0.08296 -0.01064,-0.15168 -0.03248,-0.209998 -0.02184,-0.05816 -0.05104,-0.10144 -0.08752,-0.13 -0.03648,-0.02856 -0.07792,-0.04496 -0.12248,-0.04496 a 0.1599986,0.1599986 0 0 0 -0.08752,0.02496 c -0.026,0.0166 -0.04704,0.04376 -0.06752,0.07752 v -0.369999 z m 0.9250318,0.242558 c -0.06784,0 -0.12168,0.02008 -0.1599978,0.06 -0.03832,0.03984 -0.05752,0.09128 -0.05752,0.1550399 0,0.03704 0.00832,0.06832 0.02248,0.09752 0.01416,0.0292 0.03456,0.05264 0.06,0.07 0.0256,0.0174 0.07664,0.04016 0.1524778,0.06496 0.05248,0.0168 0.08384,0.03128 0.09752,0.04248 0.01984,0.0164 0.03,0.03792 0.03,0.06752 0,0.03424 -0.01184,0.0628 -0.03504,0.08496 -0.02312,0.02232 -0.05528,0.03248 -0.09752,0.03248 -0.04224,0 -0.07704,-0.0118 -0.10248,-0.03752 -0.02544,-0.02568 -0.0392,-0.06472 -0.04496,-0.11752 l -0.097517,0.02 c 0.022,0.1603999 0.102,0.2400779 0.2399977,0.2399979 0.0736,0 0.1299174,-0.02088 0.172478,-0.06496 0.04256,-0.04408 0.06496,-0.1036 0.06496,-0.1750399 0,-0.03856 -0.0068,-0.072 -0.02,-0.1 -0.0132,-0.028 -0.03136,-0.04872 -0.05504,-0.06496 -0.02376,-0.0162 -0.07672,-0.03776 -0.157518,-0.06496 -0.05872,-0.02056 -0.09312,-0.0356 -0.10496,-0.04496 -0.01992,-0.0158 -0.03,-0.03744 -0.03,-0.06496 0,-0.02816 0.00928,-0.052 0.03,-0.07 0.02072,-0.018 0.05264,-0.02752 0.095039,-0.02752 0.07456,0 0.11624,0.04096 0.12496,0.12248 l 0.09504,-0.015 c -0.00656,-0.0516 -0.01784,-0.09232 -0.03504,-0.12 -0.0172,-0.02768 -0.04264,-0.05104 -0.07504,-0.06752 -0.03232,-0.0164 -0.06952,-0.02248 -0.1123173,-0.02248 z m 0.5975147,0 c -0.07816,0 -0.144078,0.03216 -0.1950379,0.1 -0.05096,0.06784 -0.07504,0.1660799 -0.07504,0.2950379 0,0.12424 0.02456,0.2215979 0.07504,0.2875179 0.05048,0.06584 0.1159174,0.09752 0.1975179,0.09752 0.06488,0 0.1186373,-0.0194 0.162478,-0.06 0.04392,-0.04056 0.07576,-0.10024 0.09248,-0.1799999 l -0.1,-0.0176 c -0.02872,0.10216 -0.08168,0.1523199 -0.155038,0.1524799 -0.04672,0 -0.08488,-0.0198 -0.11752,-0.06248 -0.03264,-0.04272 -0.05112,-0.10608 -0.05504,-0.1899999 h 0.4299977 v -0.03504 c 0,-0.12616 -0.02512,-0.220878 -0.07504,-0.2875179 -0.04976,-0.06664 -0.1103186,-0.1 -0.1847978,-0.1 z m 0.5924748,0 c -0.02336,0 -0.04376,0.008 -0.06248,0.02496 -0.01872,0.017 -0.04,0.0524 -0.06248,0.10496 v -0.11504 h -0.08752 V 5.526581 h 0.09752 V 5.1366651 c 0,-0.0544 0.00512,-0.10672 0.01752,-0.15504 0.00704,-0.02768 0.02032,-0.04952 0.03752,-0.06496 0.0172,-0.0154 0.0368,-0.02248 0.05752,-0.02248 0.02296,0 0.04576,0.0092 0.07,0.02752 l 0.03248,-0.11752 c -0.03408,-0.0272 -0.06744,-0.04 -0.10008,-0.039998 z m 1.1949495,0 c -0.0772,0 -0.1407979,0.03248 -0.1899979,0.09752 -0.04904,0.06496 -0.07504,0.1625599 -0.07504,0.2924779 0,0.12888 0.02624,0.2265579 0.07504,0.2924779 0.04872,0.06584 0.1096773,0.09752 0.1849579,0.09752 0.06216,0 0.1155973,-0.02312 0.159998,-0.07 0.0444,-0.04688 0.07144,-0.11584 0.08248,-0.2049579 l -0.09504,-0.015 c -0.00704,0.06376 -0.02368,0.1096 -0.05,0.1399999 -0.02632,0.03024 -0.058,0.04496 -0.09504,0.04496 -0.0472,0 -0.08736,-0.022 -0.1175174,-0.06752 -0.03016,-0.04552 -0.04496,-0.11832 -0.04496,-0.2199979 0,-0.09856 0.01592,-0.16968 0.04752,-0.215038 0.0316,-0.04536 0.07184,-0.07 0.1199974,-0.07 0.03216,0 0.0596,0.0124 0.08248,0.03752 0.02304,0.02496 0.03832,0.06464 0.04752,0.11504 l 0.09504,-0.02 c -0.01144,-0.07872 -0.03672,-0.1381599 -0.07752,-0.1775199 -0.0408,-0.03944 -0.09032,-0.05744 -0.149918,-0.05744 z m 0.557515,0 c -0.07816,0 -0.144078,0.03216 -0.1950378,0.1 -0.05096,0.06784 -0.07504,0.1660799 -0.07504,0.2950379 0,0.12424 0.02456,0.2215979 0.07504,0.2875179 0.05056,0.06584 0.1159173,0.09752 0.1975178,0.09752 0.06472,0 0.1185587,-0.0194 0.162478,-0.06 0.04384,-0.04056 0.07568,-0.10024 0.09248,-0.1799999 l -0.1,-0.0176 c -0.02872,0.10216 -0.07936,0.1523199 -0.152478,0.1524799 -0.04672,0 -0.08736,-0.0198 -0.1199986,-0.06248 -0.03264,-0.04272 -0.05104,-0.10608 -0.05504,-0.1899999 h 0.4299957 v -0.03504 c 0,-0.12616 -0.02512,-0.220878 -0.07504,-0.2875179 -0.0496,-0.06664 -0.11032,-0.1 -0.1848779,-0.1 z m 0.5775149,0 c -0.068,0 -0.1216801,0.02008 -0.1599979,0.06 -0.0384,0.03984 -0.05752,0.09128 -0.05752,0.1550399 0,0.03704 0.00584,0.06832 0.02,0.09752 0.01408,0.02912 0.0344,0.05264 0.06,0.07 0.02544,0.0174 0.07672,0.04016 0.1524779,0.06496 0.05232,0.0168 0.08632,0.03128 0.1,0.04248 0.01984,0.0164 0.03,0.03792 0.03,0.06752 0,0.03424 -0.01184,0.0628 -0.03504,0.08496 -0.02304,0.02232 -0.05528,0.03248 -0.09752,0.03248 -0.04232,0 -0.07704,-0.0118 -0.1024774,-0.03752 -0.02544,-0.02568 -0.04184,-0.06472 -0.04752,-0.11752 l -0.09752,0.02 c 0.022,0.1603999 0.10184,0.2400779 0.2399974,0.2399979 0.07368,0 0.132398,-0.02088 0.175038,-0.06496 0.04264,-0.04408 0.06496,-0.1036 0.06496,-0.1750399 0,-0.03856 -0.0068,-0.072 -0.02,-0.1 -0.0132,-0.028 -0.03376,-0.04872 -0.05752,-0.06496 -0.02368,-0.0162 -0.07424,-0.03776 -0.155038,-0.06496 -0.05872,-0.02056 -0.0956,-0.0356 -0.1075169,-0.04496 -0.01992,-0.0158 -0.03,-0.03744 -0.03,-0.06496 0,-0.02816 0.01176,-0.052 0.03248,-0.07 0.02072,-0.018 0.0528,-0.02752 0.09504,-0.02752 0.07456,0 0.11624,0.04096 0.12496,0.12248 l 0.09504,-0.015 c -0.0066,-0.0516 -0.01776,-0.09232 -0.03504,-0.12 a 0.18703835,0.18703835 0 0 0 -0.07504,-0.06752 c -0.03208,-0.0164 -0.06952,-0.02248 -0.11224,-0.02248 z m -2.2299803,0.015 0.2175181,0.7475138 h 0.09248 L 8.3829809,4.7791872 h -0.1 L 8.1554636,5.2367031 c -0.01544,0.05528 -0.02904,0.10304 -0.03752,0.1424799 -0.01064,-0.04968 -0.0208,-0.10184 -0.03504,-0.1524799 l -0.12496,-0.4475159 z m 0.6124745,0 V 5.526701 h 0.09752 V 4.7791872 Z m -3.2049316,0.01 c -0.07736,0 -0.139598,0.03472 -0.189998,0.10248 -0.05048,0.06784 -0.07752,0.16608 -0.07752,0.295038 0,0.12424 0.02496,0.2191179 0.07504,0.2849559 0.05008,0.06584 0.11672,0.1 0.197518,0.1 0.06416,0 0.1165573,-0.02192 0.1599979,-0.06248 0.04336,-0.04056 0.07336,-0.10024 0.09,-0.1799999 l -0.09752,-0.015 c -0.0284,0.10216 -0.08,0.1523199 -0.1524779,0.1524799 -0.04632,0 -0.0852,-0.0198 -0.1175187,-0.06248 -0.03232,-0.04272 -0.05112,-0.10608 -0.05504,-0.1899999 h 0.4249563 l 0.00248,-0.03504 c 0,-0.12616 -0.0256,-0.223358 -0.07504,-0.289998 -0.04944,-0.06664 -0.1112,-0.09992 -0.1848779,-0.09992 z m -1.0975104,0.0176 0.175038,0.7475138 h 0.1024773 l 0.11504,-0.5750339 0.02,0.12752 0.09248,0.4475159 h 0.1 L 4.9480511,4.8067892 h -0.09248 l -0.09752,0.4324759 -0.03248,0.1449599 -0.03,-0.1449599 -0.08496,-0.4324759 h -0.1 l -0.09,0.4375159 -0.03,0.1550399 -0.03504,-0.1599999 -0.09,-0.4324759 h -0.10008 z m 6.2224248,0.0076 v 0.03504 h 0.09504 v 0.2499979 h 0.03752 V 4.8494272 h 0.09504 v -0.03504 z m 0.265038,0 V 5.0993451 H 10.688 V 4.8568672 l 0.08248,0.2424779 h 0.03504 L 10.888,4.8618272 v 0.2375179 h 0.03752 V 4.8143872 h -0.05248 l -0.06752,0.1999999 c -0.0068,0.02 -0.01168,0.03448 -0.01504,0.04496 l -0.01504,-0.04248 -0.06752,-0.2024779 z m -3.4925292,0.05248 c 0.04856,0 0.08856,0.02352 0.1199987,0.07 0.0216,0.03184 0.0356,0.08032 0.04,0.14496 H 6.9979523 c 0.00304,-0.0656 0.0216,-0.11624 0.05248,-0.15504 0.03088,-0.0388 0.0664,-0.05992 0.1099985,-0.05992 z m 2.3450193,0 c 0.0484,0 0.08856,0.02352 0.1199987,0.07 0.0216,0.03184 0.0356,0.08032 0.04,0.14496 H 9.3429716 c 0.00304,-0.0656 0.0216,-0.11624 0.05248,-0.15504 0.0308,-0.03864 0.06632,-0.05992 0.1099985,-0.05992 z m -4.2424425,0.02752 c 0.048,0 0.08656,0.02352 0.11752,0.07 0.02136,0.03184 0.0356,0.08032 0.04,0.14496 H 5.1030089 c 0.00304,-0.0656 0.01928,-0.11872 0.05,-0.15752 0.03048,-0.03872 0.06672,-0.05744 0.1099987,-0.05744 z m 0.6199945,0 c 0.04336,0 0.08024,0.02408 0.1099974,0.07 0.02976,0.046 0.04248,0.11688 0.04248,0.215038 0,0.0956 -0.01408,0.1668799 -0.04496,0.2150379 -0.03088,0.04816 -0.06768,0.07248 -0.1075187,0.07248 -0.02928,0 -0.05592,-0.0098 -0.08,-0.03 -0.02416,-0.02016 -0.04184,-0.04904 -0.05504,-0.08752 -0.0132,-0.03848 -0.02,-0.09768 -0.02,-0.1750399 0,-0.09112 0.01624,-0.15936 0.04752,-0.207518 0.03128,-0.04816 0.06768,-0.07248 0.10752,-0.072479 z"
     id="path4"
     inkscape:connector-curvature="0"
     style="stroke-width:0.07999929" />
  <path
     d="m 2.7642296,4.1016314 -0.3724767,0.16 0.344957,0.1475198 0.3999965,-0.1475198 z m -0.5599949,0.2 -0.01248,0.7199937 0.544955,0.239998 V 4.5141112 Z m 1.11999,0 -0.4924756,0.1875198 v 0.7049539 l 0.4924756,-0.2 z m 0.5875149,-2.2399795 -0.3750368,0.16 0.3475169,0.14752 0.3999966,-0.14752 z M 3.3917441,2.2742099 V 2.9942036 L 3.8567,3.1292436 3.87174,2.4742099 Z m 1.0399908,0.04 -0.439996,0.18752 v 0.7075137 l 0.439996,-0.2 z m -2.2812597,0.7607937 -0.3724768,0.16 0.3449571,0.14752 0.3999964,-0.14752 z m -0.5599952,0.2 L 1.578,3.9949974 2.1229552,4.2349954 V 3.4874815 Z m 1.1199903,0 -0.4924756,0.1875199 v 0.7049539 l 0.4924756,-0.2 z m 0.6399942,-0.226558 -0.3724766,0.16 0.3449568,0.14752 0.3999965,-0.14752 z m -0.559995,0.2 -0.01248,0.7199938 0.544955,0.239998 V 3.4610035 Z m 1.1199901,0 -0.4924757,0.18752 v 0.7049538 l 0.4924757,-0.2 z m 1.1733496,-1.1867897 -0.3724767,0.16 0.344957,0.14752 0.3999964,-0.14752 z m -0.5599951,0.2 -0.01248,0.7199939 0.5449554,0.2399978 V 2.4742139 Z m 1.1199902,0 -0.4924758,0.18752 V 3.1541296 L 5.6438043,2.9541298 Z"
     id="path6"
     inkscape:connector-curvature="0"
     style="fill:#f7a80d;stroke-width:0.07999929" />
</svg>
