<?xml version="1.0" encoding="utf-8"?>
<!-- Generator: Adobe Illustrator 19.2.1, SVG Export Plug-In . SVG Version: 6.00 Build 0)  -->
<svg version="1.1" id="Logo" xmlns="http://www.w3.org/2000/svg" xmlns:xlink="http://www.w3.org/1999/xlink" x="0px" y="0px"
	 viewBox="0 0 360 216" style="enable-background:new 0 0 360 216;" xml:space="preserve">
<style type="text/css">
	.st0{fill:#50B848;}
	.st1{fill:#10A3C8;}
	.st2{fill:#3E3935;}
</style>
<g>
	<g>
		<path class="st0" d="M47.1,84.4c1.4-0.7,2.2-1.2,2.7-3.9l2.6-9.4c0.1-0.4,0.4-0.7,1-0.7c0.4,0,1.1,0.4,1.2,0.7l2.1,11.5
			c0.4,1.2,1.2,1.7,2.1,1.7c0.9,0,1.7-0.5,2.1-1.7l2-11.5c0.1-0.4,0.8-0.7,1.2-0.7c0.6,0,0.9,0.3,0.9,0.7l2.6,9.4
			c0.5,2.7,1.3,3.2,2.7,3.9c1.9,1,7.5,1,10.7,1c-0.7-11.8-10.5-21.1-22.5-21.1c-12,0-21.7,9.3-22.5,21.1
			C39.5,85.4,45.3,85.4,47.1,84.4z"/>
		<path class="st1" d="M70.2,89.2c-1.4,0.7-2.2,1.2-2.7,3.9l-2.3,9.4c-0.1,0.4-0.6,0.8-1.2,0.8c-0.5,0-1.1-0.4-1.2-0.8l-2-11.6
			c-0.4-1.3-1.2-1.8-2.1-1.8c-0.9,0-1.7,0.5-2.1,1.8l-2.1,11.6c-0.1,0.4-0.8,0.7-1.2,0.8c-0.6,0-1.1-0.3-1.2-0.8l-2.3-9.4
			c-0.5-2.7-1.3-3.2-2.7-3.9c-1.8-1-7.5-1-11.1-1c0.7,11.8,10.5,21.1,22.5,21.1c11.9,0,21.6-9.2,22.4-20.9
			C77.7,88.4,72.1,88.1,70.2,89.2z"/>
	</g>
	<g>
		<path class="st2" d="M112.3,67.4c8.2,0,12.1,4.8,12.1,11c0,4.3-1.9,7.2-4.9,8.4c3.1,1.3,4.9,4.3,4.9,8.4c0,6.2-3.9,11-12.1,11
			H95.5V67.4H112.3z M112,76.9h-7v5.3h6.8c1.9,0,3.1-1,3.1-2.7C114.9,78,114,76.9,112,76.9z M111.8,91.6H105v5.3h7
			c2.1,0,2.9-1.1,2.9-2.6C114.9,92.5,113.7,91.6,111.8,91.6z"/>
		<path class="st2" d="M146.2,67.4c5.3,0,10.5,1.6,14.3,5.2l-4.6,8.6c-2.9-3.1-6-4.4-9.7-4.4c-5.9,0-10.1,4.1-10.1,10
			s4.2,10,10.1,10c3.5,0,7.1-1.2,10.3-4.9l4.8,8.7c-4,3.7-9.1,5.7-15,5.7c-11.3,0-19.7-8.4-19.7-19.5
			C126.7,75.7,135.1,67.4,146.2,67.4z"/>
		<path class="st2" d="M205.3,67.4v38.9h-9.4V91.6h-14v14.7h-9.5V67.4h9.5v14.7h14V67.4H205.3z"/>
		<path class="st2" d="M213.7,115.1l5.7-12.9l-11.7-23.6h10.4l6,13.2l5.8-13.2h9.4L223,115.1H213.7z"/>
		<path class="st2" d="M268.4,67.4v38.9h-8.9v-3.8c-2,2.8-5.1,4.5-8.9,4.5c-6.4,0-12.2-4.9-12.2-14.6s5.7-14.6,12-14.6
			c4.3,0,7.4,2.1,9.1,4.7V67.4H268.4z M247.5,92.4c0,3.7,2.8,5.8,6.1,5.8c3.2,0,6.1-2.2,6.1-5.8c0-3.7-2.8-5.8-6.1-5.8
			C250.3,86.6,247.5,88.8,247.5,92.4z"/>
		<path class="st2" d="M289.7,77.9c1.1,0,1.8,0.2,2.7,0.4v9.6c-1-0.4-2.4-0.6-3.6-0.6c-4,0-6.3,1.8-6.3,6.7v12.3h-8.9V78.5h8.6v4.8
			C283.4,80,285.8,77.9,289.7,77.9z"/>
		<path class="st2" d="M308.8,77.9c8.7,0,15.2,5.7,15.2,14.6c0,8.9-6.5,14.6-15.2,14.6s-15.2-5.7-15.2-14.6
			C293.6,83.5,300.2,77.9,308.8,77.9z M308.8,86.6c-3.2,0-6.1,2.2-6.1,5.8c0,3.7,2.8,5.8,6.1,5.8c3.2,0,6.1-2.2,6.1-5.8
			C314.9,88.8,312,86.6,308.8,86.6z"/>
	</g>
	<g>
		<path class="st2" d="M105.1,124.3c5.2,0,9.1,3.8,9.1,9.1s-3.8,9.1-9.1,9.1H99v8.8h-3.5v-26.9H105.1z M105.1,127.8H99V139h6.1
			c3.1,0,5.6-2.3,5.6-5.6C110.7,130.1,108.2,127.8,105.1,127.8z"/>
		<path class="st2" d="M126.6,131.6c5.8,0,10.1,4.3,10.1,10.1c0,5.8-4.3,10.1-10.1,10.1s-10.1-4.3-10.1-10.1
			C116.6,135.9,120.9,131.6,126.6,131.6z M126.6,134.8c-4,0-6.6,2.9-6.6,6.9c0,4,2.7,6.9,6.6,6.9c4,0,6.6-2.9,6.6-6.9
			C133.3,137.6,130.6,134.8,126.6,134.8z"/>
		<path class="st2" d="M146,151.2l-7.9-19.2h3.8l5.5,14.3l5.8-14.3h2.4l5.8,14.3l5.5-14.3h3.8l-7.9,19.2h-2.5l-5.8-13.8l-5.8,13.8
			H146z"/>
		<path class="st2" d="M181.6,131.6c6,0,9.2,4.4,9.2,10.1v1h-15.4v0c0.2,3.9,3,6,6.3,6c2.8,0,4.8-1.4,6.1-3l1.7,2.6
			c-1.5,1.7-4.1,3.5-7.7,3.5c-5.8,0-9.8-3.8-9.8-9.9C172.1,136.1,175.8,131.6,181.6,131.6z M181.6,134.6c-3.6,0-5.6,2.2-6,5.3h11.6
			C186.9,136.8,185.1,134.6,181.6,134.6z"/>
		<path class="st2" d="M204.2,131.6c0.7,0,1.3,0.1,1.9,0.2v3.5c-0.7-0.2-1.2-0.2-1.9-0.2c-4.3,0-5.6,2.9-5.6,7.3v9h-3.3V132h3.2v2.9
			C199.6,132.8,201.6,131.6,204.2,131.6z"/>
		<path class="st2" d="M227.7,131.6c3.8,0,6.2,1.6,7.6,4.1l-2.7,1.7c-0.8-1.6-2.3-2.8-5-2.8c-2.2,0-3.8,0.9-3.8,2.4
			c0,1.8,2,2.3,4.6,2.9c3.2,0.7,6.9,1.4,6.9,5.8c0,4.1-3.2,6-7.4,6c-3.6,0-7-1.3-8.5-4.5l2.7-1.7c1.2,2.4,3.5,3.1,5.8,3.1
			c2.5,0,4-0.8,4-2.6c0-1.9-1.7-2.3-4.3-2.9c-3.1-0.7-7.2-1.6-7.2-5.8C220.5,133.9,223.2,131.6,227.7,131.6z"/>
		<path class="st2" d="M262.8,131.6c5.4,0,7.5,3.4,7.5,8.6v11.1h-3.3v-11.5c0-3.3-1.5-5.1-4.5-5.1c-4.4,0-5.7,3.3-5.7,7.6v9h-3.3
			v-11.5c0-3.3-1.5-5.1-4.5-5.1c-4.4,0-5.6,3.4-5.6,7.6v9H240V132h3.2v2.7c1.2-2,3.3-3.2,6.1-3.2c3.3,0,5.3,1.5,6.3,3.8
			C257.1,133.1,259.2,131.6,262.8,131.6z"/>
		<path class="st2" d="M282.8,131.6c5.3,0,7.7,2.6,7.7,7.2v12.5h-3.3v-2.7c-1.3,2-3.5,3.1-6.3,3.1c-4.1,0-6.5-2.6-6.5-6
			c0-3.6,2.7-5.6,6.2-5.9l5.4-0.5c0.9-0.1,1.2-0.4,1.2-1v-0.5c0-1.9-1.4-3.1-4.3-3.1c-2.7,0-4.5,1.1-5,3.5l-2.9-1.6
			C275.8,133.6,278.1,131.6,282.8,131.6z M287.2,142.1l-6.3,0.8c-2.2,0.3-3.1,1.5-3.1,2.9c0,1.7,1.2,2.8,3.6,2.8
			c3.6,0,5.8-2.6,5.8-5V142.1z"/>
		<path class="st2" d="M305,131.6c0.7,0,1.3,0.1,1.9,0.2v3.5c-0.7-0.2-1.2-0.2-1.9-0.2c-4.3,0-5.6,2.9-5.6,7.3v9H296V132h3.2v2.9
			C300.4,132.8,302.3,131.6,305,131.6z"/>
		<path class="st2" d="M318.9,151.4c-3.5,0-5.3-1.5-5.3-5.6v-10.9h-3.8V132h3.8v-5.1h3.3v5.1h5.3v2.9h-5.3v11.1
			c0,1.5,0.6,2.3,2.2,2.3c1.2,0,2.1-0.1,3.1-0.3v2.9C321.2,151.2,320.1,151.4,318.9,151.4z"/>
	</g>
</g>
</svg>
