<?xml version="1.0" encoding="UTF-8" standalone="no"?>
<svg
   xmlns:dc="http://purl.org/dc/elements/1.1/"
   xmlns:cc="http://creativecommons.org/ns#"
   xmlns:rdf="http://www.w3.org/1999/02/22-rdf-syntax-ns#"
   xmlns:svg="http://www.w3.org/2000/svg"
   xmlns="http://www.w3.org/2000/svg"
   xmlns:sodipodi="http://sodipodi.sourceforge.net/DTD/sodipodi-0.dtd"
   xmlns:inkscape="http://www.inkscape.org/namespaces/inkscape"
   id="svg13588"
   version="1.1"
   viewBox="0 0 26.458334 3.8923585"
   height="3.8923585mm"
   width="26.458334mm"
   sodipodi:docname="Advanced_Logo.svg"
   inkscape:version="0.92.1 r15371">
  <sodipodi:namedview
     pagecolor="#ffffff"
     bordercolor="#666666"
     borderopacity="1"
     objecttolerance="10"
     gridtolerance="10"
     guidetolerance="10"
     inkscape:pageopacity="0"
     inkscape:pageshadow="2"
     inkscape:window-width="1366"
     inkscape:window-height="705"
     id="namedview33"
     showgrid="false"
     inkscape:zoom="1.0642248"
     inkscape:cx="-171.2305"
     inkscape:cy="18.981926"
     inkscape:window-x="-8"
     inkscape:window-y="-8"
     inkscape:window-maximized="1"
     inkscape:current-layer="svg13588" />
  <defs
     id="defs13582" />
  <metadata
     id="metadata13585">
    <rdf:RDF>
      <cc:Work
         rdf:about="">
        <dc:format>image/svg+xml</dc:format>
        <dc:type
           rdf:resource="http://purl.org/dc/dcmitype/StillImage" />
        <dc:title />
      </cc:Work>
    </rdf:RDF>
  </metadata>
  <g
     transform="matrix(0.37472705,0,0,0.37472705,-26.429447,-53.825697)"
     id="layer1"
     style="fill:#4d4d4d">
    <g
       style="fill:#4d4d4d"
       id="g21924"
       transform="matrix(0.26458333,0,0,0.26458333,399.13502,-291.95728)">
      <g
         style="fill:#4d4d4d"
         transform="matrix(1.0666667,0,0,1.0666667,-1519.9704,1232.2225)"
         id="g5037">
        <g
           style="fill:#4d4d4d"
           id="g14725">
          <path
             d="m 272.26824,399.06168 5.1025,9.45875 h 6.3262 l -11.4287,-20.275 h -0.215 l -11.43,20.275 h 6.3275 l 5.1025,-9.45875 z"
             style="fill:#4d4d4d;fill-opacity:1;fill-rule:nonzero;stroke:none"
             id="path80"
             inkscape:connector-curvature="0" />
          <path
             d="m 368.65254,399.06168 5.1038,9.45875 h 6.3287 l -11.4325,-20.275 h -0.2125 l -11.4325,20.275 h 6.3288 l 5.1037,-9.45875 z"
             style="fill:#4d4d4d;fill-opacity:1;fill-rule:nonzero;stroke:none"
             id="path84"
             inkscape:connector-curvature="0" />
          <path
             d="m 337.56904,397.70342 5.1013,-9.4575 h 6.3287 l -11.43,20.26625 h -0.2125 l -11.4325,-20.26625 h 6.3275 l 5.105,9.4575 z"
             style="fill:#4d4d4d;fill-opacity:1;fill-rule:nonzero;stroke:none"
             id="path88"
             inkscape:connector-curvature="0" />
          <path
             d="m 306.45484,390.56105 -7.5225,0.004 h -5.715 v 17.955 h 13.2375 c 4.7363,0 8.5763,-4.01875 8.5763,-8.975 0,-4.95875 -3.84,-8.98375 -8.5763,-8.98375 m -2.07,14.79125 h -5.4525 v -11.4925 h 5.4525 c 3.0313,0 5.4875,2.57375 5.4875,5.74375 0,3.1775 -2.4562,5.74875 -5.4875,5.74875"
             style="fill:#4d4d4d;fill-opacity:1;fill-rule:nonzero;stroke:none"
             id="path100"
             inkscape:connector-curvature="0" />
          <path
             d="m 501.61524,390.56105 -7.5213,0.004 h -5.7162 v 17.955 h 13.2375 c 4.7362,0 8.5737,-4.01875 8.5737,-8.975 0,-4.95875 -3.8375,-8.98375 -8.5737,-8.98375 m -2.07,14.79125 h -5.4513 v -11.4925 h 5.4513 c 3.0287,0 5.4837,2.57375 5.4837,5.74375 0,3.1775 -2.455,5.74875 -5.4837,5.74875"
             style="fill:#4d4d4d;fill-opacity:1;fill-rule:nonzero;stroke:none"
             id="path104"
             inkscape:connector-curvature="0" />
          <path
             d="m 476.54704,394.65404 v -4.0925 h -16.3287 v 17.95875 h 16.3287 v -4.0975 h -10.1925 v -3.23375 h 10.1925 v -3.2825 h -10.1925 v -3.2525 z"
             style="fill:#4d4d4d;fill-opacity:1;fill-rule:nonzero;stroke:none"
             id="path108"
             inkscape:connector-curvature="0" />
          <path
             d="m 406.42054,390.56105 v 11.22375 l -9.4087,-11.22375 h -6.095 v 17.95875 h 5.7725 v -11.52375 l 9.6637,11.52375 h 5.8375 v -17.95875 z"
             style="fill:#4d4d4d;fill-opacity:1;fill-rule:nonzero;stroke:none"
             id="path112"
             inkscape:connector-curvature="0" />
          <path
             d="m 446.84094,406.23406 v -3.29 h -2.275 c -1.4037,1.15625 -3.4687,1.88625 -5.7725,1.88625 -4.2237,0 -7.6512,-2.4575 -7.6512,-5.485 0,-3.03 3.4275,-5.48625 7.6512,-5.48625 2.2775,0 4.3313,0.715 5.7263,1.85125 h 2.2812 v -3.295 c -2.245,-1.39875 -5.1775,-2.24875 -8.3875,-2.24875 -7.0662,0 -12.8,4.11 -12.8,9.17875 0,5.0675 5.7338,9.175 12.8,9.175 3.21,0 6.1425,-0.845 8.3875,-2.24875"
             style="fill:#4d4d4d;fill-opacity:1;fill-rule:nonzero;stroke:none"
             id="path124"
             inkscape:connector-curvature="0" />
        </g>
      </g>
      <g
         style="fill:#4d4d4d"
         transform="matrix(1.0666667,0,0,1.0666667,-1519.9704,1232.2225)"
         id="g5180">
        <g
           style="fill:#4d4d4d"
           id="g14715">
          <path
             d="m 269.03554,422.45916 c 0,0.7625 -0.3712,1.38 -1.1137,1.85125 -0.755,0.49375 -1.7638,0.74 -3.0263,0.74 -1.2612,0 -2.2775,-0.24625 -3.0462,-0.74 -0.7425,-0.47875 -1.1138,-1.09625 -1.1138,-1.85125 v -4.96 h 1.215 v 4.66625 c 0,0.57375 0.2513,1.0125 0.7538,1.31625 0.5025,0.30375 1.2337,0.455 2.1912,0.455 0.9588,0 1.685,-0.15125 2.1813,-0.455 0.4962,-0.30375 0.7437,-0.7425 0.7437,-1.31625 v -4.66625 h 1.215 z"
             style="fill:#4d4d4d;fill-opacity:1;fill-rule:nonzero;stroke:none"
             id="path128"
             inkscape:connector-curvature="0" />
          <path
             d="m 287.74004,418.59254 h -3.5025 v 6.235 h -1.2137 v -6.235 h -3.5025 v -1.09375 h 8.2187 z"
             style="fill:#4d4d4d;fill-opacity:1;fill-rule:nonzero;stroke:none"
             id="path132"
             inkscape:connector-curvature="0" />
          <path
             d="m 299.49054,424.82717 h -1.215 v -7.32875 h 1.215 z"
             style="fill:#4d4d4d;fill-opacity:1;fill-rule:nonzero;stroke:none"
             id="path134"
             inkscape:connector-curvature="0" />
          <path
             d="m 317.92174,424.82742 h -6.8725 v -7.32875 h 1.215 v 6.235 h 5.6575 z"
             style="fill:#4d4d4d;fill-opacity:1;fill-rule:nonzero;stroke:none"
             id="path138"
             inkscape:connector-curvature="0" />
          <path
             d="m 329.67304,424.82717 h -1.215 v -7.32875 h 1.215 z"
             style="fill:#4d4d4d;fill-opacity:1;fill-rule:nonzero;stroke:none"
             id="path140"
             inkscape:connector-curvature="0" />
          <path
             d="m 348.42804,418.59254 h -3.5025 v 6.235 h -1.2137 v -6.235 h -3.5025 v -1.09375 h 8.2187 z"
             style="fill:#4d4d4d;fill-opacity:1;fill-rule:nonzero;stroke:none"
             id="path144"
             inkscape:connector-curvature="0" />
          <path
             d="m 367.02104,417.49918 -4.0087,4.43375 v 2.895 h -1.2138 v -2.895 l -4.0087,-4.43375 h 1.515 l 3.1075,3.4225 3.0937,-3.4225 z"
             style="fill:#4d4d4d;fill-opacity:1;fill-rule:nonzero;stroke:none"
             id="path148"
             inkscape:connector-curvature="0" />
          <path
             d="m 395.97824,419.22029 c -1.0863,-0.55375 -2.1925,-0.83 -3.32,-0.83 -0.7488,0 -1.3225,0.0875 -1.72,0.26375 -0.3988,0.175 -0.5975,0.4175 -0.5975,0.7275 0,0.32375 0.2125,0.56 0.6375,0.70875 0.3037,0.10875 0.8,0.1825 1.4875,0.2225 1.0125,0.0687 1.68,0.1225 2.005,0.1625 0.9175,0.12125 1.595,0.3475 2.0337,0.6775 0.4388,0.33125 0.6575,0.8 0.6575,1.4075 0,0.77625 -0.3437,1.37625 -1.0325,1.80125 -0.6875,0.425 -1.6762,0.63875 -2.965,0.63875 -1.8687,0 -3.3237,-0.4125 -4.3625,-1.23625 l 0.6688,-0.88 c 1.1462,0.70125 2.3812,1.0525 3.7037,1.0525 0.8575,0 1.5213,-0.1175 1.9938,-0.35375 0.4525,-0.23 0.6787,-0.54375 0.6787,-0.94125 0,-0.46625 -0.2975,-0.77625 -0.8912,-0.93125 -0.31,-0.0813 -1.1475,-0.16625 -2.51,-0.25375 -1.2075,-0.0812 -2.055,-0.2425 -2.54,-0.485 -0.5675,-0.28375 -0.8513,-0.76 -0.8513,-1.4275 0,-0.68875 0.3225,-1.23125 0.9675,-1.63 0.6438,-0.3975 1.5538,-0.59625 2.7275,-0.59625 1.5788,0 2.9013,0.36125 3.9675,1.0825 z"
             style="fill:#4d4d4d;fill-opacity:1;fill-rule:nonzero;stroke:none"
             id="path160"
             inkscape:connector-curvature="0" />
          <path
             d="m 416.22144,417.49918 -4.0075,4.43375 v 2.895 h -1.215 v -2.895 l -4.0087,-4.43375 h 1.515 l 3.1075,3.4225 3.0937,-3.4225 z"
             style="fill:#4d4d4d;fill-opacity:1;fill-rule:nonzero;stroke:none"
             id="path164"
             inkscape:connector-curvature="0" />
          <path
             d="m 433.03274,419.22029 c -1.0863,-0.55375 -2.1925,-0.83 -3.32,-0.83 -0.7488,0 -1.3225,0.0875 -1.72,0.26375 -0.3988,0.175 -0.5975,0.4175 -0.5975,0.7275 0,0.32375 0.2125,0.56 0.6375,0.70875 0.3037,0.10875 0.8,0.1825 1.4875,0.2225 1.0125,0.0687 1.68,0.1225 2.0037,0.1625 0.9188,0.12125 1.5963,0.3475 2.035,0.6775 0.4388,0.33125 0.6575,0.8 0.6575,1.4075 0,0.77625 -0.3437,1.37625 -1.0325,1.80125 -0.6875,0.425 -1.6762,0.63875 -2.965,0.63875 -1.8687,0 -3.3237,-0.4125 -4.3625,-1.23625 l 0.6688,-0.88 c 1.1462,0.70125 2.3812,1.0525 3.7037,1.0525 0.8575,0 1.5213,-0.1175 1.9938,-0.35375 0.4525,-0.23 0.6787,-0.54375 0.6787,-0.94125 0,-0.46625 -0.2975,-0.77625 -0.8912,-0.93125 -0.31,-0.0813 -1.1475,-0.16625 -2.51,-0.25375 -1.2075,-0.0812 -2.055,-0.2425 -2.54,-0.485 -0.5675,-0.28375 -0.85,-0.76 -0.85,-1.4275 0,-0.68875 0.3212,-1.23125 0.9662,-1.63 0.6438,-0.3975 1.5538,-0.59625 2.7275,-0.59625 1.5788,0 2.9013,0.36125 3.9675,1.0825 z"
             style="fill:#4d4d4d;fill-opacity:1;fill-rule:nonzero;stroke:none"
             id="path176"
             inkscape:connector-curvature="0" />
          <path
             d="m 452.41524,418.59254 h -3.5025 v 6.235 h -1.2138 v -6.235 h -3.5025 v -1.09375 h 8.2188 z"
             style="fill:#4d4d4d;fill-opacity:1;fill-rule:nonzero;stroke:none"
             id="path180"
             inkscape:connector-curvature="0" />
          <path
             d="m 470.62404,424.82742 h -7.6725 v -7.32875 h 7.3888 v 1.09375 h -6.1738 v 1.8825 h 4.2913 v 1.09375 h -4.2913 v 2.165 h 6.4575 z"
             style="fill:#4d4d4d;fill-opacity:1;fill-rule:nonzero;stroke:none"
             id="path184"
             inkscape:connector-curvature="0" />
          <path
             d="m 491.63624,424.82742 h -1.215 v -5.99125 h -0.03 l -3.8063,4.77625 -3.775,-4.7775 -0.03,10e-4 v 5.99125 h -1.215 v -7.32875 h 1.5188 l 3.5112,4.42875 3.5275,-4.42875 h 1.5138 v 7.32875 z"
             style="fill:#4d4d4d;fill-opacity:1;fill-rule:nonzero;stroke:none"
             id="path188"
             inkscape:connector-curvature="0" />
          <path
             d="m 509.62164,419.22029 c -1.0863,-0.55375 -2.1925,-0.83 -3.32,-0.83 -0.7488,0 -1.3225,0.0875 -1.72,0.26375 -0.3988,0.175 -0.5975,0.4175 -0.5975,0.7275 0,0.32375 0.2125,0.56 0.6375,0.70875 0.3037,0.10875 0.8,0.1825 1.4875,0.2225 1.0125,0.0687 1.6812,0.1225 2.0037,0.1625 0.9188,0.12125 1.5963,0.3475 2.035,0.6775 0.4388,0.33125 0.6575,0.8 0.6575,1.4075 0,0.77625 -0.3437,1.37625 -1.0312,1.80125 -0.6888,0.425 -1.6775,0.63875 -2.9663,0.63875 -1.8687,0 -3.3237,-0.4125 -4.3625,-1.23625 l 0.6688,-0.88 c 1.1462,0.70125 2.3812,1.0525 3.7037,1.0525 0.8575,0 1.5213,-0.1175 1.9938,-0.35375 0.4525,-0.23 0.6787,-0.54375 0.6787,-0.94125 0,-0.46625 -0.2975,-0.77625 -0.8912,-0.93125 -0.31,-0.0813 -1.1475,-0.16625 -2.51,-0.25375 -1.2075,-0.0812 -2.055,-0.2425 -2.54,-0.485 -0.5663,-0.28375 -0.8513,-0.76 -0.8513,-1.4275 0,-0.68875 0.3225,-1.23125 0.9675,-1.63 0.6438,-0.3975 1.5538,-0.59625 2.7275,-0.59625 1.5788,0 2.9013,0.36125 3.9675,1.0825 z"
             style="fill:#4d4d4d;fill-opacity:1;fill-rule:nonzero;stroke:none"
             id="path200"
             inkscape:connector-curvature="0" />
        </g>
      </g>
    </g>
  </g>
</svg>
