<?xml version="1.0" encoding="UTF-8" standalone="no"?>
<!-- Created with Inkscape (http://www.inkscape.org/) -->

<svg
   xmlns:dc="http://purl.org/dc/elements/1.1/"
   xmlns:cc="http://creativecommons.org/ns#"
   xmlns:rdf="http://www.w3.org/1999/02/22-rdf-syntax-ns#"
   xmlns:svg="http://www.w3.org/2000/svg"
   xmlns="http://www.w3.org/2000/svg"
   xmlns:sodipodi="http://sodipodi.sourceforge.net/DTD/sodipodi-0.dtd"
   xmlns:inkscape="http://www.inkscape.org/namespaces/inkscape"
   id="svg2985"
   version="1.1"
   inkscape:version="0.48.0 r9654"
   width="418.41241"
   height="129.09401"
   xml:space="preserve"
   sodipodi:docname="aq.svg"><metadata
     id="metadata2991"><rdf:RDF><cc:Work
         rdf:about=""><dc:format>image/svg+xml</dc:format><dc:type
           rdf:resource="http://purl.org/dc/dcmitype/StillImage" /><dc:title></dc:title></cc:Work></rdf:RDF></metadata><defs
     id="defs2989"><clipPath
       clipPathUnits="userSpaceOnUse"
       id="clipPath2999"><path
         d="m 0,0 1023.984,0 0,767.952 L 0,767.952 0,0 z"
         id="path3001"
         inkscape:connector-curvature="0" /></clipPath><clipPath
       clipPathUnits="userSpaceOnUse"
       id="clipPath3049"><path
         d="m 62,18.952 256,0 0,79 -256,0 0,-79 z"
         id="path3051"
         inkscape:connector-curvature="0" /></clipPath><clipPath
       clipPathUnits="userSpaceOnUse"
       id="clipPath3061"><path
         d="m 73,19.373 245,0 0,78.579 -245,0 0,-78.579 z"
         id="path3063"
         inkscape:connector-curvature="0" /></clipPath><clipPath
       clipPathUnits="userSpaceOnUse"
       id="clipPath3077"><path
         d="m 62,18.952 256,0 0,79 -256,0 0,-79 z"
         id="path3079"
         inkscape:connector-curvature="0" /></clipPath><clipPath
       clipPathUnits="userSpaceOnUse"
       id="clipPath3097"><path
         d="m 0,0 1023.984,0 0,767.952 L 0,767.952 0,0 z"
         id="path3099"
         inkscape:connector-curvature="0" /></clipPath><filter
       id="filter3253"
       x="0"
       y="0"
       width="1"
       height="1"
       inkscape:label="Lightness-Contrast"
       inkscape:menu="Color"
       inkscape:menu-tooltip="Increase or decrease lightness and contrast"
       color-interpolation-filters="sRGB"><feFlood
         id="feFlood3255"
         result="result1"
         flood-opacity="0"
         flood-color="rgb(128,128,128)" /><feBlend
         in2="SourceGraphic"
         id="feBlend3257"
         mode="normal"
         result="result2" /><feComposite
         in2="SourceGraphic"
         id="feComposite3259"
         k2="1"
         operator="arithmetic"
         result="result3" /><feComposite
         in2="SourceGraphic"
         id="feComposite3261"
         operator="in" /></filter><filter
       id="filter3263"
       x="0"
       y="0"
       width="1"
       height="1"
       inkscape:label="Lightness-Contrast"
       inkscape:menu="Color"
       inkscape:menu-tooltip="Increase or decrease lightness and contrast"
       color-interpolation-filters="sRGB"><feFlood
         id="feFlood3265"
         result="result1"
         flood-opacity="0"
         flood-color="rgb(128,128,128)" /><feBlend
         in2="SourceGraphic"
         id="feBlend3267"
         mode="normal"
         result="result2" /><feComposite
         in2="SourceGraphic"
         id="feComposite3269"
         k2="1"
         operator="arithmetic"
         result="result3" /><feComposite
         in2="SourceGraphic"
         id="feComposite3271"
         operator="in" /></filter><filter
       id="filter3273"
       x="0"
       y="0"
       width="1"
       height="1"
       inkscape:label="Lightness-Contrast"
       inkscape:menu="Color"
       inkscape:menu-tooltip="Increase or decrease lightness and contrast"
       color-interpolation-filters="sRGB"><feFlood
         id="feFlood3275"
         result="result1"
         flood-opacity="0"
         flood-color="rgb(128,128,128)" /><feBlend
         in2="SourceGraphic"
         id="feBlend3277"
         mode="normal"
         result="result2" /><feComposite
         in2="SourceGraphic"
         id="feComposite3279"
         k2="1"
         operator="arithmetic"
         result="result3" /><feComposite
         in2="SourceGraphic"
         id="feComposite3281"
         operator="in" /></filter><filter
       id="filter3283"
       x="0"
       y="0"
       width="1"
       height="1"
       inkscape:label="Lightness-Contrast"
       inkscape:menu="Color"
       inkscape:menu-tooltip="Increase or decrease lightness and contrast"
       color-interpolation-filters="sRGB"><feFlood
         id="feFlood3285"
         result="result1"
         flood-opacity="0"
         flood-color="rgb(128,128,128)" /><feBlend
         in2="SourceGraphic"
         id="feBlend3287"
         mode="normal"
         result="result2" /><feComposite
         in2="SourceGraphic"
         id="feComposite3289"
         k2="1"
         operator="arithmetic"
         result="result3" /><feComposite
         in2="SourceGraphic"
         id="feComposite3291"
         operator="in" /></filter></defs><sodipodi:namedview
     pagecolor="#ffffff"
     bordercolor="#666666"
     borderopacity="1"
     objecttolerance="10"
     gridtolerance="10"
     guidetolerance="10"
     inkscape:pageopacity="0"
     inkscape:pageshadow="2"
     inkscape:window-width="1000"
     inkscape:window-height="480"
     id="namedview2987"
     showgrid="false"
     fit-margin-top="0"
     fit-margin-left="0"
     fit-margin-right="0"
     fit-margin-bottom="0"
     showborder="false"
     inkscape:zoom="0.60628789"
     inkscape:cx="327.81236"
     inkscape:cy="132.21973"
     inkscape:window-x="0"
     inkscape:window-y="0"
     inkscape:window-maximized="0"
     inkscape:current-layer="g2993" /><g
     id="g2993"
     inkscape:groupmode="layer"
     inkscape:label="aq"
     transform="matrix(1.25,0,0,-1.25,-33.976388,235.55279)"><g
       id="g2995"><g
         id="g2997"
         clip-path="url(#clipPath2999)"><text
           transform="matrix(1,0,0,-1,55,686.4526)"
           id="text3003"><tspan
             style="font-size:14px;font-variant:normal;font-weight:normal;font-stretch:condensed;writing-mode:lr-tb;fill:#5372c1;fill-opacity:1;fill-rule:nonzero;stroke:none;font-family:'OMPRV F+ Frutiger';-inkscape-font-specification:Frutiger-Cn"
             x="0 8.0360003 14.77 21.518 28 30.59 38.625999 48.734001 54.950001 59.094002 62.202 67.648003 74.129997 77.489998 84.237999 90.720001 95.900002 99.260002 109.368 115.85 122.584 128.8 132.16 137.34 140.448 147.18201 153.92999 157.03799 164.03799 169.48399 175.966 182.714 186.858 190.218 196.966 203.18201 209.664 216.39799 225.73599 232.218 237.916 241.276 244.384 251.132 254.492 257.60001 261.74399 266.92401 270.284 277.01801 281.16199 287.37799 293.59399 300.34201 303.702 309.918 313.81 317.702 324.45001 328.59399 332.73801 337.39999 340.242 342.832 348.53 355.27802 361.49399 364.854 371.58801 375.73199 381.948 388.42999 392.57401 398.79001 403.97 408.11401 411.474 415.61801 421.83401 427.01401 431.15799 437.64001 447.74799 453.96399 460.71201 464.85599 468.216 472.35999 479.108 482.46799 485.57599 489.72 494.89999 498.26001 504.742 511.47601 514.58398 517.69202 520.79999 524.94397 530.64203 534.00201 538.146 544.89398 548.25403 553.43402 560.18201 565.362 569.50598 575.98798 579.09601 585.84399 589.20398 592.31201 596.45599 601.63599 604.99597 611.72998 618.47803 623.65802 626.76599 633.51398 639.72998 644.90997 650.09003 653.45001 656.55798 661.73798"
             y="0"
             sodipodi:role="line"
             id="tspan3005">Aqua America has made signifcant headway in its green efforts. The greatest testament to its ability to sustain its business is </tspan><tspan
             style="font-size:14px;font-variant:normal;font-weight:normal;font-stretch:condensed;writing-mode:lr-tb;fill:#5372c1;fill-opacity:1;fill-rule:nonzero;stroke:none;font-family:'OMPRV F+ Frutiger';-inkscape-font-specification:Frutiger-Cn"
             x="0 3.108 7.2519999 12.432 15.792 22.511999 29.232 35.952 40.096001 45.793999 52.009998 58.492001 62.636002 65.996002 72.744003 75.851997 81.031998 85.176003 91.924004 96.068001 101.766 105.126 111.874 115.766 119.126 125.86 130.004 136.752 142.716 145.82401 152.558 155.666 162.414 169.14799 172.508 181.84599 188.328 192.472 198.688 202.832 206.192 212.674 219.422 226.15601 229.51601 238.854 245.336 250.51601 254.66 260.87601 270.21399 276.69601 280.84 287.056 291.20001 294.56 299.73999 305.95599 310.10001 316.064 319.172 324.61801 330.83401 334.194 338.33801 345.086 348.44601 351.55399 355.698 360.87799 364.23801 369.68399 376.43201 381.612 385.75601 392.504 402.612 408.828 412.97198 417.634 420.47601 423.836 427.224 431.36801 434.728 437.836 443.01599 446.37601 451.82199 454.92999 461.146 467.62799 471.772 475.13199 479.276 486.02399 492.50601 496.64999 500.01001 506.758 513.23999 519.974 522.56403 530.59998 537.33398 544.08197 550.56403 553.15399 561.19 571.29797 577.51398 581.65802 584.76599 590.21198 596.69397 600.05402 606.802 613.54999 617.69397 621.05402 627.78802 634.00403 640.21997 646.96802"
             y="21"
             sodipodi:role="line"
             id="tspan3007">its 125-year history of providing water and wastewater service to its customers. It is clear that had Aqua America not been </tspan><tspan
             style="font-size:14px;font-variant:normal;font-weight:normal;font-stretch:condensed;writing-mode:lr-tb;fill:#5372c1;fill-opacity:1;fill-rule:nonzero;stroke:none;font-family:'OMPRV F+ Frutiger';-inkscape-font-specification:Frutiger-Cn"
             x="0 5.1799998 11.928 17.374001 22.82 29.035999 34.216 39.396 43.287998 50.035999 53.144001 56.504002 59.612 66.360001 69.720001 72.828003 76.972 82.152 85.512001 92.246002 96.389999 103.138 107.03 113.246 118.426 123.606 126.714 133.46201 140.21001 143.052 146.412 150.556 157.304 163.52 166.88 172.326 179.07401 189.18201 195.916 202.39799 209.146 214.84399 218.20399 227.79401 234.54201 241.28999 244.39799 251.132 254.492 261.23999 267.98801 272.13199 275.492 282.23999 288.72198 294.686 300.90201 304.26199 309.44199 316.19 320.33401 326.298 329.40601 335.37 341.586 348.32001 351.67999 365.67999 369.04001 375.522 382.26999 389.004 392.36401 396.508 403.25601 407.39999 410.508 416.47198 422.68799 429.422 432.78201 446.78201 450.142 454.034 460.78201 464.92599 468.28601 472.42999 479.17801 482.28601 487.466 490.82599 493.93399 500.68201 507.42999 514.164"
             y="42"
             sodipodi:role="line"
             id="tspan3009">successful in its profession, the company would not have survived — and thrived — for this long.</tspan><tspan
             style="font-size:14px;font-variant:normal;font-weight:normal;font-stretch:condensed;writing-mode:lr-tb;fill:#5372c1;fill-opacity:1;fill-rule:nonzero;stroke:none;font-family:'OMPRV F+ Frutiger';-inkscape-font-specification:Frutiger-Cn"
             x="0 8.0360003 14.77 21.518 28 30.59 38.625999 48.734001 54.950001 59.094002 62.202 67.648003 74.129997 77.489998 83.972 90.720001 97.454002 100.814 103.922 108.066 113.246 116.606 121.786 128.534 135.26801 140.448 143.556 150.28999 153.39799 159.88 164.024 167.132 173.34801 178.528 181.888 188.37 192.51401 198.73 202.09 212.198 218.67999 224.896 228.004 234.752 241.48599 244.84599 250.026 253.134 259.86801 266.616 269.724 276.724 282.17001 288.65201 295.39999 299.54401 302.90399 309.638 313.78201 320.53 327.26401 333.48001 340.228 344.37201 347.73199 350.84 357.58801 363.552 369.76801 374.948 379.09201 389.20001 395.41599 402.164 406.30801 411.48801 414.84799 417.95599 424.70401 428.064 431.172 437.92001 441.81201 445.95599 452.43799 457.61801 461.76199 465.90601 472.65399 478.10001 482.24399 488.992 493.13599 499.35199 502.71201 506.85599 513.05798 519.79199 526.53998 529.64801 533.79199 540.008 546.742 550.10199 554.24597 560.99402 564.354 571.08801 575.23199 581.97998 587.94397 591.052 597.78601 604.00201 607.362 612.54199 618.758 622.90198 628.86603 631.974 637.41998 643.63599 648.81598 652.17603 656.06799 662.81598 666.96002"
             y="84"
             sodipodi:role="line"
             id="tspan3011">Aqua America and its subsidiaries are making signifcant prudent investments in infrastructure required to provide services for </tspan><tspan
             style="font-size:14px;font-variant:normal;font-weight:normal;font-stretch:condensed;writing-mode:lr-tb;fill:#5372c1;fill-opacity:1;fill-rule:nonzero;stroke:none;font-family:'OMPRV F+ Frutiger';-inkscape-font-specification:Frutiger-Cn"
             x="0 6.7340002 12.95 18.396 24.878 31.612 37.827999 43.007999 46.368 50.512001 57.259998 60.619999 66.066002 72.814003 82.921997 89.138 92.498001 102.088 108.836 111.944 115.052 121.268 124.628 128.772 135.254 141.47 144.578 151.326 158.06 161.42 167.90199 174.636 181.37 184.478 188.62199 191.73 198.478 205.226 211.70799 214.81599 218.17599 223.356 227.5 233.716 240.45 245.63 248.99001 253.134 259.88199 263.242 267.134 273.88199 278.026 282.17001 288.918 295.134 299.27802 302.638 306.78201 312.99799 319.73199 326.48001 331.92599 338.142 341.50201 344.60999 348.754 353.93399 357.29401 363.51001 370.258 376.22198 379.32999 383.474 390.22198 396.97 407.078 413.29401 420.04199 424.186 430.668 433.776 437.13599 440.24399 450.35199 457.086 463.56799 469.01401 473.15799 476.51801 479.62601 486.37399 489.73401 493.87799 500.62601 506.84201 510.202 514.09399 520.84198 524.98602 535.09399 538.45398 545.20203 549.08002 552.44 561.008 569.04401 577.09399 579.93597 583.29602 587.44 594.18799 600.40399 604.54797 610.76398 617.49799 623.19598 626.55603 630.70001 636.91602 643.65002 650.39801 655.84399 658.95203 665.70001 672.43402"
             y="105"
             sodipodi:role="line"
             id="tspan3013">decades to come while taking additional steps to further reduce its environmental impact in the form of GHG, thereby reducing </tspan><tspan
             style="font-size:14px;font-variant:normal;font-weight:normal;font-stretch:condensed;writing-mode:lr-tb;fill:#5372c1;fill-opacity:1;fill-rule:nonzero;stroke:none;font-family:'OMPRV F+ Frutiger';-inkscape-font-specification:Frutiger-Cn"
             x="0 3.108 7.2519999 12.432 15.792 21.238001 27.719999 31.864 38.598 45.346001 52.094002 55.453999 59.346001 66.094002 72.842003 76.986 83.720001 87.863998 90.972 97.720001 101.864 104.706 108.066 111.454 115.598 118.958 122.066 127.246 130.606 137.34 144.088 149.534 156.282 166.39 172.606 179.354 183.498 189.714 196.448 199.808 202.916 209.664 213.024 217.168 223.916 230.132 233.492 239.974 249.312 255.79401 259.93799 266.672 271.85199 275.21201 280.392 286.608 292.05399 296.198 299.306 306.05399 312.802 316.16199 322.91 326.802 330.16199 334.306 341.05399 344.16199 349.34201 352.702 356.84601 363.06201 369.79599 376.54401 380.68799 384.832 388.19199 392.336 399.08401 405.56601 409.70999 413.07001 417.21399 423.96201 430.17801 435.358 441.57401 444.93399 451.14999 455.04199 458.93399 465.68201 469.82599 473.97 479.14999 482.51001 489.258 495.73999 501.70401 507.92001 511.28 518.01398 524.216 530.43201 537.17999 540.53998 544.68402 550.90002 556.34601 563.09399 569.828 576.57599 579.68402 585.13 591.34601 598.08002 601.44 608.17401 613.87201 617.23199 623.97998 630.72803 640.836 647.052 651.19598 657.94397 664.69202 669.87201"
             y="126"
             sodipodi:role="line"
             id="tspan3015">its carbon footprint. It is documented in the awards section of this report that these efforts have been recognized by numerous </tspan><tspan
             style="font-size:14px;font-variant:normal;font-weight:normal;font-stretch:condensed;writing-mode:lr-tb;fill:#5372c1;fill-opacity:1;fill-rule:nonzero;stroke:none;font-family:'OMPRV F+ Frutiger';-inkscape-font-specification:Frutiger-Cn"
             x="0 6.7480001 10.892 17.625999 24.108 30.856001 33.964001 39.41 45.891998 50.035999 53.144001 59.891998 66.639999 71.302002"
             y="147"
             sodipodi:role="line"
             id="tspan3017">organizations.</tspan><tspan
             style="font-size:14px;font-variant:normal;font-weight:normal;font-stretch:condensed;writing-mode:lr-tb;fill:#5372c1;fill-opacity:1;fill-rule:nonzero;stroke:none;font-family:'OMPRV F+ Frutiger';-inkscape-font-specification:Frutiger-Cn"
             x="0 8.0360003 14.77 21.518 28 31.360001 36.806 43.554001 50.301998 54.445999 57.554001 64.302002 71.050003 77.265999 82.445999 85.806 89.949997 96.697998 100.058 106.792 113.008 116.368 122.85 129.59801 132.95799 139.174 145.922 151.886 154.994 159.138 165.886 172.634 182.742 188.95799 195.70599 199.85001 206.332 209.44 212.8 217.98 222.12399 228.34 237.67799 244.16 248.304 255.03799 257.88 261.23999 266.686 273.168 277.31201 280.42001 287.168 293.90201 297.26199 301.15399 307.90201 312.04599 315.40601 318.51401 322.65799 327.83801 331.198 340.53601 347.01801 351.16199 357.37799 361.522 366.702 373.45001 379.66599 386.39999 391.57999 394.94 401.422 408.17001 414.90399 418.26401 423.70999 430.45801 437.20599 441.35001 445.49399 448.60199 455.336 462.08401 466.228 469.336 476.08401 482.81799 486.17801 490.32199 497.07001 500.42999 507.17801 513.91199 520.12799 526.87598 530.23602 535.41602 542.15002 548.63202 554.078 560.29401 563.65399 570.388 574.53198 581.28003 588.01398 592.15802 598.64001 608.74799 613.40997 616.25201 619.612 626.34601 632.828 636.97198 641.11603 644.224 649.66998 656.41803 659.526 666.008 670.15198 673.26001 678.95801"
             y="189"
             sodipodi:role="line"
             id="tspan3019">Aqua continues to be an environmental steward, caring for its watersheds and contributing to open space programs, particularly </tspan><tspan
             style="font-size:14px;font-variant:normal;font-weight:normal;font-stretch:condensed;writing-mode:lr-tb;fill:#5372c1;fill-opacity:1;fill-rule:nonzero;stroke:none;font-family:'OMPRV F+ Frutiger';-inkscape-font-specification:Frutiger-Cn"
             x="0 3.108 9.8559999 13.216 18.662001 25.143999 30.323999 36.540001 41.720001 45.080002 54.669998 61.417999 67.634003 71.778 77.994003 81.353996 88.087997 94.835999 97.944 104.692 111.426 114.786 119.966 126.714 130.07401 136.808 143.024 149.772 155.98801 162.98801 167.132 172.312 175.672 179.81599 186.564 192.78 196.14 201.586 208.334 218.442 225.17599 231.658 238.40601 243.06799 245.91 249.27 252.37801 256.522 261.702 265.06201 270.508 277.25601 282.436 286.57999 293.328 303.436 309.65201 313.79599 318.97601 322.336 328.81799 335.56601 342.29999 345.66 349.80399 356.552 362.76801 366.12799 371.57401 378.32199 388.42999 398.53799 405.28601 412.034 415.142 419.28601 423.948 426.79001 430.14999 436.11401 442.862 447.00601 451.14999 457.89801 464.11401 466.98401 469.82599 473.186 477.32999 484.078 490.29401 493.65399 499.10001 505.84799 515.95599 522.69 529.172 535.91998 541.61798 544.97803 551.46002 558.20801 564.94202 568.302 571.40997 575.55402 580.73401 584.09399 590.31 600.41803 607.15198 610.26001 617.008 622.70599 628.922 635.138 640.31799"
             y="210"
             sodipodi:role="line"
             id="tspan3021">in cases where doing so benefts the company, its customers and the community. Further, the company and its employees </tspan><tspan
             style="font-size:14px;font-variant:normal;font-weight:normal;font-stretch:condensed;writing-mode:lr-tb;fill:#5372c1;fill-opacity:1;fill-rule:nonzero;stroke:none;font-family:'OMPRV F+ Frutiger';-inkscape-font-specification:Frutiger-Cn"
             x="0 5.4460001 12.194 18.941999 23.086 27.23 30.337999 37.071999 43.82 47.964001 54.18 57.540001 61.683998 68.431999 71.792 75.935997 82.683998 88.900002 92.260002 97.706001 104.454 114.562 124.67 131.418 138.166 141.274 145.418 148.526 154.742 159.922 163.282 166.39 173.138 176.498 186.088 192.836 195.944 201.39 208.138 211.498 215.642 222.39 228.606 234.304 237.664 244.412 251.146 257.362 261.50601 267.98801 272.13199 278.34799 281.70801 285.85199 292.60001 296.74399 303.492 310.23999 316.974 323.72198 327.082 332.52802 339.276 345.758 349.90201 353.01001 357.15399 363.63599 370.37 373.478 379.694 383.05399 389.78799 392.896 398.85999 401.96799 408.716 415.45001 418.81 425.29199 432.04001 438.77399 442.134 446.27802 452.49399 458.97601 462.08401 465.444 468.552 475.034 481.76801 488.51599 492.66 496.01999 499.12799 505.87601 509.23599 513.36603 520.11401 526.33002 529.69 533.58197 540.33002 544.474 554.58197 557.94202 564.69 568.58197 571.94202 577.12201 581.26599 585.40997 591.62598 598.10797 608.216 611.57599 617.02197 620.13 626.34601 632.828 639.57599 646.32397 653.05798 657.71997"
             y="231"
             sodipodi:role="line"
             id="tspan3023">contribute to the communities in which they operate through charitable giving and real labor in the form of stream cleanups.</tspan><tspan
             style="font-size:14px;font-variant:normal;font-weight:normal;font-stretch:condensed;writing-mode:lr-tb;fill:#5372c1;fill-opacity:1;fill-rule:nonzero;stroke:none;font-family:'OMPRV F+ Frutiger';-inkscape-font-specification:Frutiger-Cn"
             x="0 8.0360003 14.77 21.518 28 30.59 38.625999 48.734001 54.950001 59.094002 62.202 67.648003 74.129997 76.972 82.152 85.512001 92.246002 96.389999 102.606 108.822 115.57 118.93 125.146 129.03799 132.92999 139.67799 143.82201 147.966 153.146 156.506 160.64999 167.132 173.88 180.614 186.83 190.19 194.082 198.226 204.974 215.082 218.442 222.586 228.802 235.536 242.284 247.73 251.87399 254.98199 261.73001 268.478 273.65799 277.01801 280.12601 286.87399 290.23401 296.45001 299.55801 305.77399 311.22 315.36401 319.508 322.616 328.06201 331.422 338.17001 343.35001 349.832 356.56601 362.78201 366.142 370.28601 377.034 380.39401 383.50201 390.25 395.69601 399.84 406.056 412.53799 417.71799 423.93399 429.11401 432.474 435.582 442.32999 445.69 449.582 456.32999 462.54599 465.65399 469.01401 475.23001 479.12201 486.12201 491.56799 494.67599 500.892 507.64001 513.07202 517.73401 520.57599 523.93597 532.50403 539.25201 542.612 546.75598 553.50403 559.71997 563.08002 568.26001 575.008 580.45398 583.56201 590.04401 593.15198 596.51202 600.40399 604.54797 611.29602 618.04401 622.18799 625.03003 628.39001 632.534 639.28198 645.49799"
             y="273"
             sodipodi:role="line"
             id="tspan3025">Aqua America’s green efforts range from reductions in electric usage to increases in fuel effciency. On the social front, the </tspan><tspan
             style="font-size:14px;font-variant:normal;font-weight:normal;font-stretch:condensed;writing-mode:lr-tb;fill:#5372c1;fill-opacity:1;fill-rule:nonzero;stroke:none;font-family:'OMPRV F+ Frutiger';-inkscape-font-specification:Frutiger-Cn"
             x="0 5.4460001 12.194 22.302 29.035999 35.518002 42.265999 47.964001 50.806 55.986 59.346001 65.561996 72.295998 79.043999 85.526001 88.634003 91.994003 98.741997 105.476 112.21 118.958 123.102 127.246 133.994 140.742 143.85001 147.994 153.692 157.052 163.534 170.282 177.01601 180.37601 186.858 190.75 197.75 201.894 212.002 218.48399 222.62801 225.73599 231.7 237.916 241.276 247.758 253.20399 257.34799 260.45599 267.20401 273.952 277.31201 284.04599 290.79401 293.90201 297.01001 302.45599 305.564 311.78 316.95999 320.32001 330.42801 336.64401 343.12601 349.87399 353.23401 357.37799 364.12601 370.608 374.75201 378.112 382.25601 389.004 395.22 398.57999 408.17001 414.918 419.06201 425.27802 429.17001 435.918 440.06201 445.508 451.724 455.08401 464.67401 467.78201 470.89001 473.99799 477.358 482.80399 489.552 496.29999 500.444 503.552 510.29999 517.04797 523.25 526.60999 530.75403 537.50201 540.862 550.96997 554.078 558.22198 562.36603 569.11401 573.258 576.61798 580.76202 587.51001 593.72601 597.086 602.53198 609.28003 619.388 629.49597 636.24402 642.992 646.09998 650.24402 653.35199 659.56799 664.74799"
             y="294"
             sodipodi:role="line"
             id="tspan3027">company’s equal opportunity and affrmative action policies mean that the workforce will continue to mirror the communities </tspan><tspan
             style="font-size:14px;font-variant:normal;font-weight:normal;font-stretch:condensed;writing-mode:lr-tb;fill:#5372c1;fill-opacity:1;fill-rule:nonzero;stroke:none;font-family:'OMPRV F+ Frutiger';-inkscape-font-specification:Frutiger-Cn"
             x="0 3.108 7.2519999 10.612 15.792 22.007999 26.152 32.116001 38.332001 42.993999"
             y="315"
             sodipodi:role="line"
             id="tspan3029">it serves.</tspan><tspan
             style="font-size:14px;font-variant:normal;font-weight:normal;font-stretch:condensed;writing-mode:lr-tb;fill:#5372c1;fill-opacity:1;fill-rule:nonzero;stroke:none;font-family:'OMPRV F+ Frutiger';-inkscape-font-specification:Frutiger-Cn"
             x="0 8.0360003 14.77 21.518 28 30.59 38.625999 48.734001 54.950001 59.094002 62.202 67.648003 74.129997 77.489998 84.223999 87.332001 93.814003 100.562 105.742 109.102 113.246 119.994 123.354 130.10201 135.282 141.498 144.858 149.002 155.75 161.966 165.326 171.808 177.254 182.7 189.448 199.556 206.28999 209.39799 212.506 217.686 224.43401 234.54201 240.758 247.506 251.64999 256.82999 260.19 263.298 267.44199 270.802 277.54999 284.03201 289.21201 292.57199 302.67999 309.16199 315.896 322.112 325.47198 329.616 336.36401 339.724 346.45801 352.94 357.08401 363.29999 366.66 373.142 378.32199 381.68201 388.164 391.52399 398.258 401.366 407.84799 411.992 415.884 422.63199 426.776 436.884 440.24399 444.13599 448.28 455.02802 465.13599 468.496 478.086 484.83401 487.94199 493.388 500.13599 503.496 507.64001 514.388 517.74799 521.62598 528.37402 532.51801 536.66199 543.40997 549.62598 553.77002 557.13 560.23798 564.38202 569.56201 572.922 578.10199 584.84998 590.03003 594.17401 600.65601 603.76398 610.51202 616.99402 623.72803 626.836 629.94397 633.052 637.19598 642.89398 646.25403 652.46997 656.362 660.25403 667.00201 671.146 675.28998 679.95203 682.79401"
             y="357"
             sodipodi:role="line"
             id="tspan3031">Aqua America plans to use the accomplishments it has made to date as a platform from which to further its sustainability efforts. </tspan><tspan
             style="font-size:14px;font-variant:normal;font-weight:normal;font-stretch:condensed;writing-mode:lr-tb;fill:#5372c1;fill-opacity:1;fill-rule:nonzero;stroke:none;font-family:'OMPRV F+ Frutiger';-inkscape-font-specification:Frutiger-Cn"
             x="0 6.2160001 12.964 18.143999 22.288 28.77 31.878 38.625999 45.108002 51.841999 54.950001 58.057999 61.166 65.309998 71.008003 74.367996 77.475998 82.655998 86.015999 92.498001 99.246002 102.606 108.822 114.786 121.534 124.642 130.606 133.714 140.46201 147.196 150.556 157.28999 161.43401 168.18201 173.62801 179.84399 185.024 190.20399 193.564 197.70799 204.45599 210.938 215.082 218.442 222.586 228.802 235.536 242.284 245.392 249.536 255.752 260.93201 264.29199 270.77399 274.134 277.242 283.45801 289.422 295.638 298.746 302.10599 308.854 312.746 316.10599 321.552 328.29999 335.048 340.228 345.67401 348.78201 355.53 362.27802 367.45801 374.20599 380.422 385.60199 390.78201 394.142 398.28601 405.034 411.51599 415.66 419.01999 422.12799 427.30801 430.668 433.776 440.52399 447.272 453.48801 457.63199 463.84799 470.59601 474.73999 478.10001 482.24399 488.992 492.35199 496.496 503.24399 509.45999 512.82001 522.14398 528.62598 532.77002 538.98602 543.13 546.48999 553.23798 557.38202 560.48999 563.59802 566.70599 570.84998 576.54797 579.90802 583.01599 589.76398 596.49799 603.24597 608.42603 612.57001 616.71399 621.37598 624.21802 626.80798 632.50598 639.25403 642.362 647.54199"
             y="378"
             sodipodi:role="line"
             id="tspan3033">Sustainability is an evolving process that requires a level of consciousness that is inherent to the water utility industry. This </tspan><tspan
             style="font-size:14px;font-variant:normal;font-weight:normal;font-stretch:condensed;writing-mode:lr-tb;fill:#5372c1;fill-opacity:1;fill-rule:nonzero;stroke:none;font-family:'OMPRV F+ Frutiger';-inkscape-font-specification:Frutiger-Cn"
             x="0 3.108 9.8559999 16.59 23.337999 28.518 32.661999 36.806 42.504002 45.863998 55.202 61.683998 66.863998 70.223999 75.669998 79.814003 86.029999 92.512001 96.655998 102.872 109.606 112.966 119.714 126.462 130.606 133.966 140.714 144.606 147.966 154.448 157.808 164.556 170.772 176.98801 183.722 187.082 191.226 197.974 201.334 211.442 217.924 221.032 227.78 231.924 238.40601 241.51401 248.26199 251.104 254.464 259.64401 266.392 271.57199 275.716 282.198 285.306 292.05399 295.414 301.896 308.64401 315.37799 318.73801 322.88199 327.026 333.242 339.724 343.86801 347.228 351.37201 358.12 364.336 367.69601 377.80399 384.552 389.73199 393.87601 397.23599 403.97 408.11401 414.32999 419.776 422.884 429.63199 436.38 441.56 444.92001 451.668 458.14999 462.29401 469.04199 473.186 479.668 482.776 486.13599 490.28 496.496 501.67599 508.42401 515.172 519.31598 524.76202 530.97803 534.33801 537.44598 544.19397 547.55402 554.302 560.784 564.92798 571.67603 575.82001 582.03601 585.396 589.28802 596.03601 600.17999 603.53998 610.27399 617.02197 623.75598 626.86401 629.97198 635.41803 638.77802 645.526 651.742 658.224 661.33197 665.47601 672.224"
             y="399"
             sodipodi:role="line"
             id="tspan3035">industry was created out of a need to maintain, sustain and treat the most precious natural resource in nature for public health.</tspan><tspan
             style="font-size:14px;font-variant:normal;font-weight:normal;font-stretch:condensed;writing-mode:lr-tb;fill:#5372c1;fill-opacity:1;fill-rule:nonzero;stroke:none;font-family:'OMPRV F+ Frutiger';-inkscape-font-specification:Frutiger-Cn"
             x="0 8.0360003 13.216 15.806 23.841999 30.576 37.324001 43.806 46.396 54.431999 64.540001 70.755997 74.900002 78.008003 83.454002 89.935997 93.295998 98.741997 105.49 112.238 116.382 119.49 126.238 132.98599 139.202 144.382 147.742 151.886 158.634 161.994 168.728 172.87199 179.62 189.21001 192.57001 199.052 205.8 212.534 215.894 222.11 228.07401 234.808 237.916 244.664 248.808 255.024 258.384 265.13199 271.34799 280.93799 284.298 291.03201 297.78 302.95999 306.06799 312.81601 319.03201 324.21201 329.392 332.75201 339.5 346.23401 352.96799 359.716 363.85999 368.004 374.75201 381.5 384.608 388.75201 391.85999 398.07599 402.724 405.56601 408.92599 413.07001 419.81799 426.034 429.39401 434.84 441.58801 451.69601 458.42999 464.91199 471.66 477.358 480.71799 490.30801 493.41599 496.52399 499.63199 502.992 509.20801 519.31598 526.04999 529.15802 535.90601 541.604 544.96399 549.10797 555.85602 562.07202 565.43201 570.612 577.09399 587.20203 593.41803 596.77802 602.224 608.97198 619.08002 629.18799 632.29602 636.44 646.54797 652.76398 659.51202 663.65601 667.01599 671.15997 677.90802"
             y="441"
             sodipodi:role="line"
             id="tspan3037">As Aqua America continues to grow and explore new business opportunities, the company will employ the same commitment to </tspan><tspan
             style="font-size:14px;font-variant:normal;font-weight:normal;font-stretch:condensed;writing-mode:lr-tb;fill:#5372c1;fill-opacity:1;fill-rule:nonzero;stroke:none;font-family:'OMPRV F+ Frutiger';-inkscape-font-specification:Frutiger-Cn"
             x="0 4.1440001 10.892 17.108 20.468 26.684 33.431999 39.396 42.504002 46.647999 53.396 60.144001 70.251999 76.468002 83.216003 87.360001 90.720001 94.863998 101.612 108.094 112.238 115.598 118.706 124.922 131.65601 135.01601 139.16 145.908 149.26801 152.37601 156.52 161.7 165.06 170.506 174.64999 180.866 187.34801 191.492 194.60001 201.34801 208.09599 211.45599 218.17599 224.896 231.616 234.976 240.674 246.89 253.37199 257.51599 262.69601 266.056 272.53799 279.272 285.50201 288.34399"
             y="462"
             sodipodi:role="line"
             id="tspan3039">the environment that led to its creation 125 years ago. </tspan></text>
</g></g><g
       id="g3041"
       transform="matrix(1.4000012,0,0,1.4000053,72.279349,145.45983)"
       style="filter:url(#filter3283)"><path
         d="M 0,0 -8.178,18.225 -15.743,0 0,0 z m -10.711,29.274 5.047,0 22.586,-50.579 -7.365,0 -6.685,14.878 -21.432,0 -6.259,-14.878 -7.394,0 21.502,50.579 z"
         style="fill:#15366f;fill-opacity:1;fill-rule:nonzero;stroke:none"
         id="path3043"
         inkscape:connector-curvature="0" /></g><g
       id="g3045"
       transform="matrix(1.4000012,0,0,1.4000053,-79.2229,54.603822)"
       style="filter:url(#filter3273)"><g
         id="g3047"
         clip-path="url(#clipPath3049)"><g
           id="g3053"
           transform="translate(236.0921,93.3508)"><path
             d="m 0,0 7.196,0 0,-28.553 c 0,-3.86 -0.284,-6.784 -0.848,-8.747 -0.561,-1.964 -1.262,-3.609 -2.086,-4.916 -0.832,-1.307 -1.847,-2.474 -3.043,-3.503 -3.986,-3.438 -9.194,-5.149 -15.631,-5.149 -6.55,0 -11.805,1.703 -15.768,5.112 -1.201,1.051 -2.215,2.233 -3.044,3.54 -0.825,1.307 -1.518,2.913 -2.058,4.81 -0.539,1.89 -0.807,4.869 -0.807,8.926 l 0,28.48 7.2,0 0,-28.553 c 0,-4.729 0.544,-8.017 1.62,-9.867 1.089,-1.843 2.738,-3.329 4.95,-4.441 2.214,-1.117 4.831,-1.675 7.834,-1.675 4.289,0 7.778,1.116 10.478,3.349 1.416,1.201 2.437,2.614 3.068,4.245 0.625,1.634 0.939,4.43 0.939,8.389 L 0,0"
             style="fill:#15366f;fill-opacity:1;fill-rule:nonzero;stroke:none"
             id="path3055"
             inkscape:connector-curvature="0" /></g></g></g><g
       id="g3057"
       transform="matrix(1.4000012,0,0,1.4000053,-79.2229,54.603822)"
       style="filter:url(#filter3263)"><g
         id="g3059"
         clip-path="url(#clipPath3061)"><g
           id="g3065"
           transform="translate(285.1131,64.8878)"><path
             d="M 0,0 -8.17,18.221 -15.745,0 0,0 z m -10.71,29.275 5.044,0 22.588,-50.576 -7.364,0 -6.685,14.874 -21.429,0 -6.263,-14.874 -7.396,0 21.505,50.576 z"
             style="fill:#15366f;fill-opacity:1;fill-rule:nonzero;stroke:none"
             id="path3067"
             inkscape:connector-curvature="0" /></g><g
           id="g3069"
           transform="translate(175.3667,28.4183)"><path
             d="M 0,0 C -17.418,8.799 -26.727,8.032 -37.471,1.675 -28.903,12.685 -11.94,14.071 5.521,4.86 21.177,-3.175 37.763,-1.996 46.069,2.343 31.253,-13.872 7.109,-3.792 0,0"
             style="fill:#04a2e7;fill-opacity:1;fill-rule:nonzero;stroke:none"
             id="path3071"
             inkscape:connector-curvature="0" /></g></g></g><g
       id="g3073"
       transform="matrix(1.4000012,0,0,1.4000053,-79.2229,54.603822)"
       style="filter:url(#filter3253)"><g
         id="g3075"
         clip-path="url(#clipPath3077)"><g
           id="g3081"
           transform="translate(180.578,68.0935)"><path
             d="m 0,0 c 0,11.499 -8.598,21.133 -20.859,21.133 -12.263,0 -20.853,-9.634 -20.853,-21.133 0,-11.919 9.562,-21.134 20.853,-21.134 C -9.561,-21.134 0,-11.919 0,0 m 6.788,0 c 0,-15.678 -12.386,-27.509 -27.647,-27.509 -15.259,0 -27.64,11.831 -27.64,27.509 0,15.115 12.528,27.505 27.64,27.505 C -5.74,27.505 6.788,15.115 6.788,0"
             style="fill:#04a2e7;fill-opacity:1;fill-rule:nonzero;stroke:none"
             id="path3083"
             inkscape:connector-curvature="0" /></g><g
           id="g3085"
           transform="translate(308.9657,47.1302)"><path
             d="m 0,0 c -0.33,0.13 -0.512,0.189 -0.848,0.189 -0.36,0 -0.788,-0.131 -0.788,-0.602 0,-0.866 1.941,-0.667 1.941,-2.153 0,-0.964 -0.745,-1.345 -1.65,-1.345 -0.317,0 -0.627,0.09 -0.924,0.187 l 0.063,0.602 c 0.221,-0.09 0.608,-0.22 0.939,-0.22 0.368,0 0.886,0.207 0.886,0.737 0,1.009 -1.94,0.731 -1.94,2.135 0,0.802 0.633,1.227 1.448,1.227 0.297,0 0.653,-0.052 0.964,-0.162 L 0,0"
             style="fill:#15366f;fill-opacity:1;fill-rule:nonzero;stroke:none"
             id="path3087"
             inkscape:connector-curvature="0" /></g><g
           id="g3089"
           transform="translate(310.1554,47.8098)"><path
             d="M 0,0 1.067,0 2.483,-3.751 3.873,0 4.94,0 l 0,-4.513 -0.647,0 0,3.906 -0.013,0 -1.493,-3.906 -0.634,0 -1.494,3.906 -0.013,0 0,-3.906 L 0,-4.513 0,0 z"
             style="fill:#15366f;fill-opacity:1;fill-rule:nonzero;stroke:none"
             id="path3091"
             inkscape:connector-curvature="0" /></g></g></g><g
       id="g3093"><g
         id="g3095"
         clip-path="url(#clipPath3097)"><text
           transform="matrix(1,0,0,-1,371,77.4526)"
           id="text3101"><tspan
             style="font-size:10px;font-variant:normal;font-weight:normal;font-stretch:condensed;writing-mode:lr-tb;fill:#5372c1;fill-opacity:1;fill-rule:nonzero;stroke:none;font-family:'OMPRV F+ Frutiger';-inkscape-font-specification:Frutiger-Cn"
             x="0 5.7399998 10.55 15.37 20 21.85 27.59 34.810001 39.25 42.209999 44.43 48.32 52.950001 54.98 57.380001 59.799999 64.620003 68.510002 70.540001 144 150.85001 157.7 163.81 166.21001 170.84 175.64999 180.47 185.10001 189.73 196.95 201.39 204.35001 206.57001 210.46001 215.09 217.49001 221.38 226.2"
             y="0"
             sodipodi:role="line"
             id="tspan3103">Aqua America, Inc. www.aquaamerica.com</tspan><tspan
             style="font-size:10px;font-variant:normal;font-weight:normal;font-stretch:condensed;writing-mode:lr-tb;fill:#5372c1;fill-opacity:1;fill-rule:nonzero;stroke:none;font-family:'OMPRV F+ Frutiger';-inkscape-font-specification:Frutiger-Cn"
             x="-0 4.8000002 9.6000004 14.4 16.25 23.84 25.870001 28.27 32.34 36.970001 41.790001 45.68 50.310001 54.009998 56.970001 61.41 64.370003 66.220001 71.959999 76.220001 80.660004 85.480003 90.300003 94.739998 144 150.12 154.92999 159.37 164 166.03 167.88 175.84 180.28"
             y="19"
             sodipodi:role="line"
             id="tspan3105">762 W. Lancaster Avenue NYSE: WTR</tspan><tspan
             style="font-size:10px;font-variant:normal;font-weight:normal;font-stretch:condensed;writing-mode:lr-tb;fill:#5372c1;fill-opacity:1;fill-rule:nonzero;stroke:none;font-family:'OMPRV F+ Frutiger';-inkscape-font-specification:Frutiger-Cn"
             x="-0 5.1900001 8.1499996 12.22 17.040001 19.440001 27.219999 31.85 38.700001 40.75 42.779999 45.18 49.540001 55.279999 57.68 62.48 67.279999 72.080002 76.879997"
             y="38"
             sodipodi:role="line"
             id="tspan3107">Bryn Mawr, PA 19010</tspan></text>
<g
           id="g3109"
           transform="translate(894.5524,329.9902)"><path
             d="m 0,0 c -14.813,-14.248 -31.324,-28.621 -49.735,-43.142 22.5,-14.735 42.55,-29.926 60.403,-45.313 C 9.567,-58.435 5.7,-28.705 0,0"
             style="fill:#249eff;fill-opacity:1;fill-rule:nonzero;stroke:none"
             id="path3111"
             inkscape:connector-curvature="0" /></g><g
           id="g3113"
           transform="translate(984.8375,452.8446)"><path
             d="m 0,0 c -17.27,-39.165 -46.099,-80.35 -90.285,-122.854 5.7,-28.705 9.567,-58.435 10.667,-88.456 6.651,-5.732 13.015,-11.506 19.072,-17.282 C -2.32,-153.392 10.783,-74.348 0,0"
             style="fill:#249eff;fill-opacity:1;fill-rule:nonzero;stroke:none"
             id="path3115"
             inkscape:connector-curvature="0" /></g><g
           id="g3117"
           transform="translate(924.2917,224.2526)"><path
             d="m 0,0 c -5.969,-7.71 -12.391,-15.355 -19.331,-22.973 -3.794,-73.85 -26.644,-147.655 -82.25,-211.243 1.329,-1.935 2.675,-3.853 4.065,-5.788 l 222.624,0 C 121.013,-195.059 100.172,-95.506 0,0"
             style="fill:#21b8ff;fill-opacity:1;fill-rule:nonzero;stroke:none"
             id="path3119"
             inkscape:connector-curvature="0" /></g><g
           id="g3121"
           transform="translate(905.22,241.535)"><path
             d="m 0,0 c 0.49,-13.376 0.431,-26.819 -0.259,-40.256 6.94,7.619 13.361,15.264 19.331,22.974 C 13.014,-11.507 6.65,-5.732 0,0"
             style="fill:#21b8ff;fill-opacity:1;fill-rule:nonzero;stroke:none"
             id="path3123"
             inkscape:connector-curvature="0" /></g><g
           id="g3125"
           transform="translate(904.961,201.2792)"><path
             d="m 0,0 c -31.729,-34.833 -73.88,-68.664 -128.569,-100.556 6.569,-36.885 20.988,-73.803 46.319,-110.686 C -26.644,-147.654 -3.794,-73.849 0,0"
             style="fill:#249eff;fill-opacity:1;fill-rule:nonzero;stroke:none"
             id="path3127"
             inkscape:connector-curvature="0" /></g><g
           id="g3129"
           transform="translate(844.8175,286.8478)"><path
             d="m 0,0 c -18.578,-14.653 -39.06,-29.432 -61.596,-44.31 -10.794,-47.27 -15.248,-94.545 -6.829,-141.815 54.689,31.892 96.84,65.723 128.568,100.556 0.69,13.438 0.75,26.88 0.259,40.256 C 42.55,-29.925 22.5,-14.735 0,0"
             style="fill:#249eff;fill-opacity:1;fill-rule:nonzero;stroke:none"
             id="path3131"
             inkscape:connector-curvature="0" /></g><g
           id="g3133"
           transform="translate(888.4012,776.9526)"><path
             d="m 0,0 -61.626,0 c 17.513,-24.386 30.181,-48.786 38.892,-73.171 48.747,-62.284 104.894,-152.5 119.17,-250.937 C 163.087,-172.958 57.761,-51.774 0,0"
             style="fill:#249eff;fill-opacity:1;fill-rule:nonzero;stroke:none"
             id="path3135"
             inkscape:connector-curvature="0" /></g><g
           id="g3137"
           transform="translate(865.6675,703.7813)"><path
             d="m 0,0 c 28.748,-80.479 14.43,-160.941 -10.777,-241.418 15.452,-39.135 30.122,-84.333 39.662,-132.373 44.186,42.505 73.015,83.689 90.285,122.854 C 104.893,-152.5 48.747,-62.284 0,0"
             style="fill:#21b8ff;fill-opacity:1;fill-rule:nonzero;stroke:none"
             id="path3139"
             inkscape:connector-curvature="0" /></g><g
           id="g3141"
           transform="translate(854.8901,462.363)"><path
             d="m 0,0 c -15.69,-50.09 -35.596,-100.168 -51.97,-150.26 14.83,-8.229 28.788,-16.669 41.897,-25.255 18.411,14.521 34.922,28.894 49.735,43.142 C 30.123,-84.333 15.452,-39.135 0,0"
             style="fill:#249eff;fill-opacity:1;fill-rule:nonzero;stroke:none"
             id="path3143"
             inkscape:connector-curvature="0" /></g><g
           id="g3145"
           transform="translate(802.9199,312.1031)"><path
             d="M 0,0 C -7.581,-23.191 -14.404,-46.374 -19.699,-69.565 2.837,-54.687 23.32,-39.908 41.898,-25.255 28.789,-16.669 14.83,-8.229 0,0"
             style="fill:#249eff;fill-opacity:1;fill-rule:nonzero;stroke:none"
             id="path3147"
             inkscape:connector-curvature="0" /></g><g
           id="g3149"
           transform="translate(896.1738,775.6573)"><path
             d="m 0,0 c 204.493,-264.235 -204.494,-528.469 0.001,-792.704 l 0.549,0 C -203.944,-528.469 205.044,-264.235 0.55,0 L 0,0 z"
             style="fill:#a7d18c;fill-opacity:1;fill-rule:nonzero;stroke:none"
             id="path3151"
             inkscape:connector-curvature="0" /></g><g
           id="g3153"
           transform="translate(905.4764,775.7571)"><path
             d="m 0,0 c 228.006,-264.235 -228.005,-528.469 0.001,-792.704 l 0.556,0 C -227.448,-528.469 228.564,-264.235 0.556,0 L 0,0 z"
             style="fill:#a7d18c;fill-opacity:1;fill-rule:nonzero;stroke:none"
             id="path3155"
             inkscape:connector-curvature="0" /></g><g
           id="g3157"
           transform="translate(914.779,775.8559)"><path
             d="m 0,0 c 251.518,-264.235 -251.518,-528.468 0.001,-792.703 l 0.561,0 C -250.955,-528.468 252.081,-264.235 0.562,0 L 0,0 z"
             style="fill:#a7d18c;fill-opacity:1;fill-rule:nonzero;stroke:none"
             id="path3159"
             inkscape:connector-curvature="0" /></g><g
           id="g3161"
           transform="translate(924.0815,775.957)"><path
             d="m 0,0 c 275.03,-264.235 -275.03,-528.471 0.001,-792.705 l 0.57,0 C -274.461,-528.471 275.6,-264.235 0.57,0 L 0,0 z"
             style="fill:#a7d18c;fill-opacity:1;fill-rule:nonzero;stroke:none"
             id="path3163"
             inkscape:connector-curvature="0" /></g><g
           id="g3165"
           transform="translate(933.3833,776.0557)"><path
             d="m 0,0 c 298.543,-264.234 -298.542,-528.469 0,-792.704 l 0.576,0 c -298.54,264.235 298.543,528.47 0,792.704 L 0,0 z"
             style="fill:#a7d18c;fill-opacity:1;fill-rule:nonzero;stroke:none"
             id="path3167"
             inkscape:connector-curvature="0" /></g><g
           id="g3169"
           transform="translate(942.6868,776.1558)"><path
             d="m 0,0 c 322.054,-264.234 -322.054,-528.469 0.001,-792.704 l 0.581,0 c -322.054,264.235 322.053,528.47 0,792.704 L 0,0 z"
             style="fill:#a7d18c;fill-opacity:1;fill-rule:nonzero;stroke:none"
             id="path3171"
             inkscape:connector-curvature="0" /></g><g
           id="g3173"
           transform="translate(951.9877,776.2556)"><path
             d="m 0,0 c 345.569,-264.235 -345.565,-528.469 0.001,-792.704 l 0.59,0 C -344.975,-528.469 346.157,-264.235 0.591,0 L 0,0 z"
             style="fill:#a7d18c;fill-opacity:1;fill-rule:nonzero;stroke:none"
             id="path3175"
             inkscape:connector-curvature="0" /></g><g
           id="g3177"
           transform="translate(961.2911,776.3542)"><path
             d="m 0,0 c 369.077,-264.234 -369.077,-528.469 0,-792.704 l 0.596,0 c -369.077,264.235 369.078,528.47 0,792.704 L 0,0 z"
             style="fill:#a7d18c;fill-opacity:1;fill-rule:nonzero;stroke:none"
             id="path3179"
             inkscape:connector-curvature="0" /></g><g
           id="g3181"
           transform="translate(970.5938,776.4541)"><path
             d="m 0,0 c 392.589,-264.234 -392.59,-528.469 0,-792.704 l 0.603,0 c -392.59,264.235 392.589,528.47 0,792.704 L 0,0 z"
             style="fill:#a7d18c;fill-opacity:1;fill-rule:nonzero;stroke:none"
             id="path3183"
             inkscape:connector-curvature="0" /></g><g
           id="g3185"
           transform="translate(979.8963,776.5541)"><path
             d="m 0,0 c 416.101,-264.234 -416.101,-528.469 0,-792.704 l 0.61,0 C -415.493,-528.469 416.713,-264.234 0.609,0 L 0,0 z"
             style="fill:#a7d18c;fill-opacity:1;fill-rule:nonzero;stroke:none"
             id="path3187"
             inkscape:connector-curvature="0" /></g><g
           id="g3189"
           transform="translate(989.198,776.6528)"><path
             d="m 0,0 c 439.613,-264.234 -439.613,-528.468 0.001,-792.703 l 0.615,0 C -438.997,-528.468 440.231,-264.234 0.616,0 L 0,0 z"
             style="fill:#a7d18c;fill-opacity:1;fill-rule:nonzero;stroke:none"
             id="path3191"
             inkscape:connector-curvature="0" /></g><g
           id="g3193"
           transform="translate(998.5006,776.754)"><path
             d="m 0,0 c 463.128,-264.235 -463.125,-528.471 0.001,-792.705 l 0.623,0 C -462.502,-528.471 463.751,-264.235 0.623,0 L 0,0 z"
             style="fill:#a7d18c;fill-opacity:1;fill-rule:nonzero;stroke:none"
             id="path3195"
             inkscape:connector-curvature="0" /></g><g
           id="g3197"
           transform="translate(1007.8032,776.8527)"><path
             d="m 0,0 c 486.638,-264.234 -486.638,-528.469 0.001,-792.704 l 0.628,0 c -486.637,264.235 486.638,528.47 0,792.704 L 0,0 z"
             style="fill:#a7d18c;fill-opacity:1;fill-rule:nonzero;stroke:none"
             id="path3199"
             inkscape:connector-curvature="0" /></g><g
           id="g3201"
           transform="translate(1017.1067,776.9526)"><path
             d="m 0,0 c 510.149,-264.234 -510.15,-528.469 0,-792.704 l 0.635,0 c -510.149,264.235 510.15,528.47 0,792.704 L 0,0 z"
             style="fill:#a7d18c;fill-opacity:1;fill-rule:nonzero;stroke:none"
             id="path3203"
             inkscape:connector-curvature="0" /></g></g></g></g></svg>