<?xml version="1.0" encoding="UTF-8" standalone="no"?>
<svg
   xmlns:dc="http://purl.org/dc/elements/1.1/"
   xmlns:cc="http://creativecommons.org/ns#"
   xmlns:rdf="http://www.w3.org/1999/02/22-rdf-syntax-ns#"
   xmlns:svg="http://www.w3.org/2000/svg"
   xmlns="http://www.w3.org/2000/svg"
   xmlns:sodipodi="http://sodipodi.sourceforge.net/DTD/sodipodi-0.dtd"
   xmlns:inkscape="http://www.inkscape.org/namespaces/inkscape"
   id="svg997"
   version="1.1"
   viewBox="0 0 26.458334 8.163267"
   height="8.1632671mm"
   width="26.458334mm"
   sodipodi:docname="Aqua_America_Logo.svg"
   inkscape:version="0.92.1 r15371">
  <sodipodi:namedview
     pagecolor="#ffffff"
     bordercolor="#666666"
     borderopacity="1"
     objecttolerance="10"
     gridtolerance="10"
     guidetolerance="10"
     inkscape:pageopacity="0"
     inkscape:pageshadow="2"
     inkscape:window-width="1366"
     inkscape:window-height="705"
     id="namedview52"
     showgrid="false"
     inkscape:zoom="0.75141667"
     inkscape:cx="-27.281798"
     inkscape:cy="58.305447"
     inkscape:window-x="-8"
     inkscape:window-y="-8"
     inkscape:window-maximized="1"
     inkscape:current-layer="svg997" />
  <defs
     id="defs991">
    <filter
       style="color-interpolation-filters:sRGB"
       height="1"
       width="1"
       y="0"
       x="0"
       id="filter3253">
      <feFlood
         flood-color="rgb(128,128,128)"
         flood-opacity="0"
         result="result1"
         id="feFlood3255" />
      <feBlend
         result="result2"
         mode="normal"
         id="feBlend3257"
         in2="SourceGraphic" />
      <feComposite
         k4="0"
         k3="0"
         k1="0"
         result="result3"
         operator="arithmetic"
         k2="1"
         id="feComposite3259"
         in2="SourceGraphic" />
      <feComposite
         operator="in"
         id="feComposite3261"
         in2="SourceGraphic" />
    </filter>
    <clipPath
       id="clipPath3077"
       clipPathUnits="userSpaceOnUse">
      <path
         id="path3079"
         d="m 62,18.952 h 256 v 79 H 62 Z"
         inkscape:connector-curvature="0" />
    </clipPath>
    <filter
       style="color-interpolation-filters:sRGB"
       height="1"
       width="1"
       y="0"
       x="0"
       id="filter3263">
      <feFlood
         flood-color="rgb(128,128,128)"
         flood-opacity="0"
         result="result1"
         id="feFlood3265" />
      <feBlend
         result="result2"
         mode="normal"
         id="feBlend3267"
         in2="SourceGraphic" />
      <feComposite
         k4="0"
         k3="0"
         k1="0"
         result="result3"
         operator="arithmetic"
         k2="1"
         id="feComposite3269"
         in2="SourceGraphic" />
      <feComposite
         operator="in"
         id="feComposite3271"
         in2="SourceGraphic" />
    </filter>
    <clipPath
       id="clipPath3061"
       clipPathUnits="userSpaceOnUse">
      <path
         id="path3063"
         d="M 73,19.373 H 318 V 97.952 H 73 Z"
         inkscape:connector-curvature="0" />
    </clipPath>
    <filter
       style="color-interpolation-filters:sRGB"
       height="1"
       width="1"
       y="0"
       x="0"
       id="filter3273">
      <feFlood
         flood-color="rgb(128,128,128)"
         flood-opacity="0"
         result="result1"
         id="feFlood3275" />
      <feBlend
         result="result2"
         mode="normal"
         id="feBlend3277"
         in2="SourceGraphic" />
      <feComposite
         k4="0"
         k3="0"
         k1="0"
         result="result3"
         operator="arithmetic"
         k2="1"
         id="feComposite3279"
         in2="SourceGraphic" />
      <feComposite
         operator="in"
         id="feComposite3281"
         in2="SourceGraphic" />
    </filter>
    <clipPath
       id="clipPath3049"
       clipPathUnits="userSpaceOnUse">
      <path
         id="path3051"
         d="m 62,18.952 h 256 v 79 H 62 Z"
         inkscape:connector-curvature="0" />
    </clipPath>
    <filter
       style="color-interpolation-filters:sRGB"
       height="1"
       width="1"
       y="0"
       x="0"
       id="filter3283">
      <feFlood
         flood-color="rgb(128,128,128)"
         flood-opacity="0"
         result="result1"
         id="feFlood3285" />
      <feBlend
         result="result2"
         mode="normal"
         id="feBlend3287"
         in2="SourceGraphic" />
      <feComposite
         k4="0"
         k3="0"
         k1="0"
         result="result3"
         operator="arithmetic"
         k2="1"
         id="feComposite3289"
         in2="SourceGraphic" />
      <feComposite
         operator="in"
         id="feComposite3291"
         in2="SourceGraphic" />
    </filter>
  </defs>
  <metadata
     id="metadata994">
    <rdf:RDF>
      <cc:Work
         rdf:about="">
        <dc:format>image/svg+xml</dc:format>
        <dc:type
           rdf:resource="http://purl.org/dc/dcmitype/StillImage" />
        <dc:title />
      </cc:Work>
    </rdf:RDF>
  </metadata>
  <g
     transform="matrix(0.26458333,0,0,0.26458333,20.121977,-36.035361)"
     id="layer1"
     style="fill:#4d4d4d">
    <g
       style="fill:#4d4d4d;filter:url(#filter3283)"
       transform="matrix(0.41824798,0,0,-0.41824921,-62.578544,149.03756)"
       id="g3041">
      <path
         id="path3043"
         style="fill:#4d4d4d;fill-opacity:1;fill-rule:nonzero;stroke:none"
         d="M 0,0 -8.178,18.225 -15.743,0 Z m -10.711,29.274 h 5.047 L 16.922,-21.305 H 9.557 L 2.872,-6.427 H -18.56 l -6.259,-14.878 h -7.394 z"
         inkscape:connector-curvature="0" />
    </g>
    <g
       style="fill:#4d4d4d;filter:url(#filter3273)"
       transform="matrix(0.41824798,0,0,-0.41824921,-107.83958,176.18064)"
       id="g3045">
      <g
         style="fill:#4d4d4d"
         clip-path="url(#clipPath3049)"
         id="g3047">
        <g
           style="fill:#4d4d4d"
           transform="translate(236.0921,93.3508)"
           id="g3053">
          <path
             id="path3055"
             style="fill:#4d4d4d;fill-opacity:1;fill-rule:nonzero;stroke:none"
             d="m 0,0 h 7.196 v -28.553 c 0,-3.86 -0.284,-6.784 -0.848,-8.747 -0.561,-1.964 -1.262,-3.609 -2.086,-4.916 -0.832,-1.307 -1.847,-2.474 -3.043,-3.503 -3.986,-3.438 -9.194,-5.149 -15.631,-5.149 -6.55,0 -11.805,1.703 -15.768,5.112 -1.201,1.051 -2.215,2.233 -3.044,3.54 -0.825,1.307 -1.518,2.913 -2.058,4.81 -0.539,1.89 -0.807,4.869 -0.807,8.926 V 0 h 7.2 v -28.553 c 0,-4.729 0.544,-8.017 1.62,-9.867 1.089,-1.843 2.738,-3.329 4.95,-4.441 2.214,-1.117 4.831,-1.675 7.834,-1.675 4.289,0 7.778,1.116 10.478,3.349 1.416,1.201 2.437,2.614 3.068,4.245 0.625,1.634 0.939,4.43 0.939,8.389 L 0,0"
             inkscape:connector-curvature="0" />
        </g>
      </g>
    </g>
    <g
       style="fill:#4d4d4d;filter:url(#filter3263)"
       transform="matrix(0.41824798,0,0,-0.41824921,-107.83958,176.18064)"
       id="g3057">
      <g
         style="fill:#4d4d4d"
         clip-path="url(#clipPath3061)"
         id="g3059">
        <g
           style="fill:#4d4d4d"
           transform="translate(285.1131,64.8878)"
           id="g3065">
          <path
             id="path3067"
             style="fill:#4d4d4d;fill-opacity:1;fill-rule:nonzero;stroke:none"
             d="M 0,0 -8.17,18.221 -15.745,0 Z m -10.71,29.275 h 5.044 L 16.922,-21.301 H 9.558 L 2.873,-6.427 h -21.429 l -6.263,-14.874 h -7.396 z"
             inkscape:connector-curvature="0" />
        </g>
        <g
           style="fill:#4d4d4d"
           transform="translate(175.3667,28.4183)"
           id="g3069">
          <path
             id="path3071"
             style="fill:#4d4d4d;fill-opacity:1;fill-rule:nonzero;stroke:none"
             d="M 0,0 C -17.418,8.799 -26.727,8.032 -37.471,1.675 -28.903,12.685 -11.94,14.071 5.521,4.86 21.177,-3.175 37.763,-1.996 46.069,2.343 31.253,-13.872 7.109,-3.792 0,0"
             inkscape:connector-curvature="0" />
        </g>
      </g>
    </g>
    <g
       style="fill:#4d4d4d;filter:url(#filter3253)"
       transform="matrix(0.41824798,0,0,-0.41824921,-107.83958,176.18064)"
       id="g3073">
      <g
         style="fill:#4d4d4d"
         clip-path="url(#clipPath3077)"
         id="g3075">
        <g
           style="fill:#4d4d4d"
           transform="translate(180.578,68.0935)"
           id="g3081">
          <path
             id="path3083"
             style="fill:#4d4d4d;fill-opacity:1;fill-rule:nonzero;stroke:none"
             d="m 0,0 c 0,11.499 -8.598,21.133 -20.859,21.133 -12.263,0 -20.853,-9.634 -20.853,-21.133 0,-11.919 9.562,-21.134 20.853,-21.134 C -9.561,-21.134 0,-11.919 0,0 m 6.788,0 c 0,-15.678 -12.386,-27.509 -27.647,-27.509 -15.259,0 -27.64,11.831 -27.64,27.509 0,15.115 12.528,27.505 27.64,27.505 C -5.74,27.505 6.788,15.115 6.788,0"
             inkscape:connector-curvature="0" />
        </g>
        <g
           style="fill:#4d4d4d"
           transform="translate(308.9657,47.1302)"
           id="g3085">
          <path
             id="path3087"
             style="fill:#4d4d4d;fill-opacity:1;fill-rule:nonzero;stroke:none"
             d="m 0,0 c -0.33,0.13 -0.512,0.189 -0.848,0.189 -0.36,0 -0.788,-0.131 -0.788,-0.602 0,-0.866 1.941,-0.667 1.941,-2.153 0,-0.964 -0.745,-1.345 -1.65,-1.345 -0.317,0 -0.627,0.09 -0.924,0.187 l 0.063,0.602 c 0.221,-0.09 0.608,-0.22 0.939,-0.22 0.368,0 0.886,0.207 0.886,0.737 0,1.009 -1.94,0.731 -1.94,2.135 0,0.802 0.633,1.227 1.448,1.227 0.297,0 0.653,-0.052 0.964,-0.162 L 0,0"
             inkscape:connector-curvature="0" />
        </g>
        <g
           style="fill:#4d4d4d"
           transform="translate(310.1554,47.8098)"
           id="g3089">
          <path
             id="path3091"
             style="fill:#4d4d4d;fill-opacity:1;fill-rule:nonzero;stroke:none"
             d="M 0,0 H 1.067 L 2.483,-3.751 3.873,0 H 4.94 V -4.513 H 4.293 v 3.906 H 4.28 L 2.787,-4.513 H 2.153 L 0.659,-0.607 H 0.646 V -4.513 H 0 Z"
             inkscape:connector-curvature="0" />
        </g>
      </g>
    </g>
  </g>
</svg>
