<?xml version="1.0" encoding="UTF-8" standalone="no"?>
<svg
   xmlns:dc="http://purl.org/dc/elements/1.1/"
   xmlns:cc="http://creativecommons.org/ns#"
   xmlns:rdf="http://www.w3.org/1999/02/22-rdf-syntax-ns#"
   xmlns:svg="http://www.w3.org/2000/svg"
   xmlns="http://www.w3.org/2000/svg"
   xmlns:sodipodi="http://sodipodi.sourceforge.net/DTD/sodipodi-0.dtd"
   xmlns:inkscape="http://www.inkscape.org/namespaces/inkscape"
   height="30.381945"
   width="100"
   xml:space="preserve"
   viewBox="0 0 100 30.381945"
   y="0px"
   x="0px"
   id="Logo"
   version="1.1"
   sodipodi:docname="BC_Hydro_Logo.svg"
   inkscape:version="0.92.1 r15371"><sodipodi:namedview
     pagecolor="#ffffff"
     bordercolor="#666666"
     borderopacity="1"
     objecttolerance="10"
     gridtolerance="10"
     guidetolerance="10"
     inkscape:pageopacity="0"
     inkscape:pageshadow="2"
     inkscape:window-width="1366"
     inkscape:window-height="705"
     id="namedview29"
     showgrid="false"
     inkscape:zoom="0.98611111"
     inkscape:cx="-185.57747"
     inkscape:cy="43.75"
     inkscape:window-x="-8"
     inkscape:window-y="-8"
     inkscape:window-maximized="1"
     inkscape:current-layer="Logo" /><metadata
     id="metadata4538"><rdf:RDF><cc:Work
         rdf:about=""><dc:format>image/svg+xml</dc:format><dc:type
           rdf:resource="http://purl.org/dc/dcmitype/StillImage" /><dc:title /></cc:Work></rdf:RDF></metadata><defs
     id="defs4536" /><style
     id="style4485"
     type="text/css">
	.st0{fill:#50B848;}
	.st1{fill:#10A3C8;}
	.st2{fill:#3E3935;}
</style><g
     transform="matrix(0.34722222,0,0,0.34722222,-12.5,-22.326389)"
     id="g4531"
     style="fill:#4d4d4d"><g
       style="fill:#4d4d4d"
       id="g4491"><path
         style="fill:#4d4d4d"
         id="path4487"
         d="m 47.1,84.4 c 1.4,-0.7 2.2,-1.2 2.7,-3.9 l 2.6,-9.4 c 0.1,-0.4 0.4,-0.7 1,-0.7 0.4,0 1.1,0.4 1.2,0.7 l 2.1,11.5 c 0.4,1.2 1.2,1.7 2.1,1.7 0.9,0 1.7,-0.5 2.1,-1.7 l 2,-11.5 c 0.1,-0.4 0.8,-0.7 1.2,-0.7 0.6,0 0.9,0.3 0.9,0.7 l 2.6,9.4 c 0.5,2.7 1.3,3.2 2.7,3.9 1.9,1 7.5,1 10.7,1 C 80.3,73.6 70.5,64.3 58.5,64.3 c -12,0 -21.7,9.3 -22.5,21.1 3.5,0 9.3,0 11.1,-1 z"
         class="st0"
         inkscape:connector-curvature="0" /><path
         style="fill:#4d4d4d"
         id="path4489"
         d="m 70.2,89.2 c -1.4,0.7 -2.2,1.2 -2.7,3.9 l -2.3,9.4 c -0.1,0.4 -0.6,0.8 -1.2,0.8 -0.5,0 -1.1,-0.4 -1.2,-0.8 l -2,-11.6 c -0.4,-1.3 -1.2,-1.8 -2.1,-1.8 -0.9,0 -1.7,0.5 -2.1,1.8 l -2.1,11.6 c -0.1,0.4 -0.8,0.7 -1.2,0.8 -0.6,0 -1.1,-0.3 -1.2,-0.8 l -2.3,-9.4 c -0.5,-2.7 -1.3,-3.2 -2.7,-3.9 -1.8,-1 -7.5,-1 -11.1,-1 0.7,11.8 10.5,21.1 22.5,21.1 11.9,0 21.6,-9.2 22.4,-20.9 -3.2,0 -8.8,-0.3 -10.7,0.8 z"
         class="st1"
         inkscape:connector-curvature="0" /></g><g
       style="fill:#4d4d4d"
       id="g4507"><path
         style="fill:#4d4d4d"
         id="path4493"
         d="m 112.3,67.4 c 8.2,0 12.1,4.8 12.1,11 0,4.3 -1.9,7.2 -4.9,8.4 3.1,1.3 4.9,4.3 4.9,8.4 0,6.2 -3.9,11 -12.1,11 H 95.5 V 67.4 Z m -0.3,9.5 h -7 v 5.3 h 6.8 c 1.9,0 3.1,-1 3.1,-2.7 0,-1.5 -0.9,-2.6 -2.9,-2.6 z m -0.2,14.7 H 105 v 5.3 h 7 c 2.1,0 2.9,-1.1 2.9,-2.6 0,-1.8 -1.2,-2.7 -3.1,-2.7 z"
         class="st2"
         inkscape:connector-curvature="0" /><path
         style="fill:#4d4d4d"
         id="path4495"
         d="m 146.2,67.4 c 5.3,0 10.5,1.6 14.3,5.2 l -4.6,8.6 c -2.9,-3.1 -6,-4.4 -9.7,-4.4 -5.9,0 -10.1,4.1 -10.1,10 0,5.9 4.2,10 10.1,10 3.5,0 7.1,-1.2 10.3,-4.9 l 4.8,8.7 c -4,3.7 -9.1,5.7 -15,5.7 -11.3,0 -19.7,-8.4 -19.7,-19.5 0.1,-11.1 8.5,-19.4 19.6,-19.4 z"
         class="st2"
         inkscape:connector-curvature="0" /><path
         style="fill:#4d4d4d"
         id="path4497"
         d="m 205.3,67.4 v 38.9 h -9.4 V 91.6 h -14 v 14.7 h -9.5 V 67.4 h 9.5 v 14.7 h 14 V 67.4 Z"
         class="st2"
         inkscape:connector-curvature="0" /><path
         style="fill:#4d4d4d"
         id="path4499"
         d="m 213.7,115.1 5.7,-12.9 -11.7,-23.6 h 10.4 l 6,13.2 5.8,-13.2 h 9.4 L 223,115.1 Z"
         class="st2"
         inkscape:connector-curvature="0" /><path
         style="fill:#4d4d4d"
         id="path4501"
         d="m 268.4,67.4 v 38.9 h -8.9 v -3.8 c -2,2.8 -5.1,4.5 -8.9,4.5 -6.4,0 -12.2,-4.9 -12.2,-14.6 0,-9.7 5.7,-14.6 12,-14.6 4.3,0 7.4,2.1 9.1,4.7 V 67.4 Z m -20.9,25 c 0,3.7 2.8,5.8 6.1,5.8 3.2,0 6.1,-2.2 6.1,-5.8 0,-3.7 -2.8,-5.8 -6.1,-5.8 -3.3,0 -6.1,2.2 -6.1,5.8 z"
         class="st2"
         inkscape:connector-curvature="0" /><path
         style="fill:#4d4d4d"
         id="path4503"
         d="m 289.7,77.9 c 1.1,0 1.8,0.2 2.7,0.4 v 9.6 c -1,-0.4 -2.4,-0.6 -3.6,-0.6 -4,0 -6.3,1.8 -6.3,6.7 v 12.3 h -8.9 V 78.5 h 8.6 v 4.8 c 1.2,-3.3 3.6,-5.4 7.5,-5.4 z"
         class="st2"
         inkscape:connector-curvature="0" /><path
         style="fill:#4d4d4d"
         id="path4505"
         d="m 308.8,77.9 c 8.7,0 15.2,5.7 15.2,14.6 0,8.9 -6.5,14.6 -15.2,14.6 -8.7,0 -15.2,-5.7 -15.2,-14.6 0,-9 6.6,-14.6 15.2,-14.6 z m 0,8.7 c -3.2,0 -6.1,2.2 -6.1,5.8 0,3.7 2.8,5.8 6.1,5.8 3.2,0 6.1,-2.2 6.1,-5.8 0,-3.6 -2.9,-5.8 -6.1,-5.8 z"
         class="st2"
         inkscape:connector-curvature="0" /></g><g
       style="fill:#4d4d4d"
       id="g4529"><path
         style="fill:#4d4d4d"
         id="path4509"
         d="m 105.1,124.3 c 5.2,0 9.1,3.8 9.1,9.1 0,5.3 -3.8,9.1 -9.1,9.1 H 99 v 8.8 h -3.5 v -26.9 h 9.6 z m 0,3.5 H 99 V 139 h 6.1 c 3.1,0 5.6,-2.3 5.6,-5.6 0,-3.3 -2.5,-5.6 -5.6,-5.6 z"
         class="st2"
         inkscape:connector-curvature="0" /><path
         style="fill:#4d4d4d"
         id="path4511"
         d="m 126.6,131.6 c 5.8,0 10.1,4.3 10.1,10.1 0,5.8 -4.3,10.1 -10.1,10.1 -5.8,0 -10.1,-4.3 -10.1,-10.1 0.1,-5.8 4.4,-10.1 10.1,-10.1 z m 0,3.2 c -4,0 -6.6,2.9 -6.6,6.9 0,4 2.7,6.9 6.6,6.9 4,0 6.6,-2.9 6.6,-6.9 0.1,-4.1 -2.6,-6.9 -6.6,-6.9 z"
         class="st2"
         inkscape:connector-curvature="0" /><path
         style="fill:#4d4d4d"
         id="path4513"
         d="M 146,151.2 138.1,132 h 3.8 l 5.5,14.3 5.8,-14.3 h 2.4 l 5.8,14.3 5.5,-14.3 h 3.8 l -7.9,19.2 h -2.5 l -5.8,-13.8 -5.8,13.8 z"
         class="st2"
         inkscape:connector-curvature="0" /><path
         style="fill:#4d4d4d"
         id="path4515"
         d="m 181.6,131.6 c 6,0 9.2,4.4 9.2,10.1 v 1 h -15.4 v 0 c 0.2,3.9 3,6 6.3,6 2.8,0 4.8,-1.4 6.1,-3 l 1.7,2.6 c -1.5,1.7 -4.1,3.5 -7.7,3.5 -5.8,0 -9.8,-3.8 -9.8,-9.9 0.1,-5.8 3.8,-10.3 9.6,-10.3 z m 0,3 c -3.6,0 -5.6,2.2 -6,5.3 h 11.6 c -0.3,-3.1 -2.1,-5.3 -5.6,-5.3 z"
         class="st2"
         inkscape:connector-curvature="0" /><path
         style="fill:#4d4d4d"
         id="path4517"
         d="m 204.2,131.6 c 0.7,0 1.3,0.1 1.9,0.2 v 3.5 c -0.7,-0.2 -1.2,-0.2 -1.9,-0.2 -4.3,0 -5.6,2.9 -5.6,7.3 v 9 h -3.3 V 132 h 3.2 v 2.9 c 1.1,-2.1 3.1,-3.3 5.7,-3.3 z"
         class="st2"
         inkscape:connector-curvature="0" /><path
         style="fill:#4d4d4d"
         id="path4519"
         d="m 227.7,131.6 c 3.8,0 6.2,1.6 7.6,4.1 l -2.7,1.7 c -0.8,-1.6 -2.3,-2.8 -5,-2.8 -2.2,0 -3.8,0.9 -3.8,2.4 0,1.8 2,2.3 4.6,2.9 3.2,0.7 6.9,1.4 6.9,5.8 0,4.1 -3.2,6 -7.4,6 -3.6,0 -7,-1.3 -8.5,-4.5 l 2.7,-1.7 c 1.2,2.4 3.5,3.1 5.8,3.1 2.5,0 4,-0.8 4,-2.6 0,-1.9 -1.7,-2.3 -4.3,-2.9 -3.1,-0.7 -7.2,-1.6 -7.2,-5.8 0.1,-3.4 2.8,-5.7 7.3,-5.7 z"
         class="st2"
         inkscape:connector-curvature="0" /><path
         style="fill:#4d4d4d"
         id="path4521"
         d="m 262.8,131.6 c 5.4,0 7.5,3.4 7.5,8.6 v 11.1 H 267 v -11.5 c 0,-3.3 -1.5,-5.1 -4.5,-5.1 -4.4,0 -5.7,3.3 -5.7,7.6 v 9 h -3.3 v -11.5 c 0,-3.3 -1.5,-5.1 -4.5,-5.1 -4.4,0 -5.6,3.4 -5.6,7.6 v 9 H 240 V 132 h 3.2 v 2.7 c 1.2,-2 3.3,-3.2 6.1,-3.2 3.3,0 5.3,1.5 6.3,3.8 1.5,-2.2 3.6,-3.7 7.2,-3.7 z"
         class="st2"
         inkscape:connector-curvature="0" /><path
         style="fill:#4d4d4d"
         id="path4523"
         d="m 282.8,131.6 c 5.3,0 7.7,2.6 7.7,7.2 v 12.5 h -3.3 v -2.7 c -1.3,2 -3.5,3.1 -6.3,3.1 -4.1,0 -6.5,-2.6 -6.5,-6 0,-3.6 2.7,-5.6 6.2,-5.9 l 5.4,-0.5 c 0.9,-0.1 1.2,-0.4 1.2,-1 v -0.5 c 0,-1.9 -1.4,-3.1 -4.3,-3.1 -2.7,0 -4.5,1.1 -5,3.5 l -2.9,-1.6 c 0.8,-3 3.1,-5 7.8,-5 z m 4.4,10.5 -6.3,0.8 c -2.2,0.3 -3.1,1.5 -3.1,2.9 0,1.7 1.2,2.8 3.6,2.8 3.6,0 5.8,-2.6 5.8,-5 z"
         class="st2"
         inkscape:connector-curvature="0" /><path
         style="fill:#4d4d4d"
         id="path4525"
         d="m 305,131.6 c 0.7,0 1.3,0.1 1.9,0.2 v 3.5 c -0.7,-0.2 -1.2,-0.2 -1.9,-0.2 -4.3,0 -5.6,2.9 -5.6,7.3 v 9 H 296 V 132 h 3.2 v 2.9 c 1.2,-2.1 3.1,-3.3 5.8,-3.3 z"
         class="st2"
         inkscape:connector-curvature="0" /><path
         style="fill:#4d4d4d"
         id="path4527"
         d="m 318.9,151.4 c -3.5,0 -5.3,-1.5 -5.3,-5.6 v -10.9 h -3.8 V 132 h 3.8 v -5.1 h 3.3 v 5.1 h 5.3 v 2.9 h -5.3 V 146 c 0,1.5 0.6,2.3 2.2,2.3 1.2,0 2.1,-0.1 3.1,-0.3 v 2.9 c -1,0.3 -2.1,0.5 -3.3,0.5 z"
         class="st2"
         inkscape:connector-curvature="0" /></g></g></svg>