<?xml version="1.0" encoding="UTF-8" standalone="no"?>
<svg
   xmlns:dc="http://purl.org/dc/elements/1.1/"
   xmlns:cc="http://creativecommons.org/ns#"
   xmlns:rdf="http://www.w3.org/1999/02/22-rdf-syntax-ns#"
   xmlns:svg="http://www.w3.org/2000/svg"
   xmlns="http://www.w3.org/2000/svg"
   xmlns:sodipodi="http://sodipodi.sourceforge.net/DTD/sodipodi-0.dtd"
   xmlns:inkscape="http://www.inkscape.org/namespaces/inkscape"
   id="svg11276"
   version="1.1"
   viewBox="0 0 26.458334 4.9224925"
   height="4.9224925mm"
   width="26.458334mm"
   sodipodi:docname="Itineris_Logo.svg"
   inkscape:version="0.92.1 r15371">
  <sodipodi:namedview
     pagecolor="#ffffff"
     bordercolor="#666666"
     borderopacity="1"
     objecttolerance="10"
     gridtolerance="10"
     guidetolerance="10"
     inkscape:pageopacity="0"
     inkscape:pageshadow="2"
     inkscape:window-width="1366"
     inkscape:window-height="705"
     id="namedview38"
     showgrid="false"
     inkscape:zoom="0.3239033"
     inkscape:cx="-564.98344"
     inkscape:cy="81.563435"
     inkscape:window-x="-8"
     inkscape:window-y="-8"
     inkscape:window-maximized="1"
     inkscape:current-layer="svg11276" />
  <defs
     id="defs11270" />
  <metadata
     id="metadata11273">
    <rdf:RDF>
      <cc:Work
         rdf:about="">
        <dc:format>image/svg+xml</dc:format>
        <dc:type
           rdf:resource="http://purl.org/dc/dcmitype/StillImage" />
        <dc:title />
      </cc:Work>
    </rdf:RDF>
  </metadata>
  <g
     transform="matrix(0.11405046,0,0,0.11405046,4.6937118,-10.116211)"
     id="layer1"
     style="fill:#4d4d4d">
    <g
       style="fill:#4d4d4d"
       transform="matrix(0.26458333,0,0,0.26458333,584.92184,23.75261)"
       id="g21833">
      <g
         style="fill:#4d4d4d"
         id="g17087">
        <g
           style="fill:#4d4d4d"
           id="g16953" />
        <g
           style="fill:#4d4d4d"
           id="g16953-4-1"
           transform="translate(-40.184345,40.280314)">
          <g
             style="fill:#4d4d4d"
             id="g21862">
            <path
               transform="translate(20.35474,-19.832824)"
               id="rect8765-66-7-5-9-7"
               d="m -2290.3008,275.61966 -15.7932,15.79103 15.7932,15.78112 15.7805,-15.78112 z"
               style="opacity:1;fill:#4d4d4d;fill-opacity:1;stroke:none;stroke-width:3.70941281;stroke-linejoin:miter;stroke-miterlimit:4;stroke-dasharray:none;stroke-dashoffset:0;stroke-opacity:1"
               inkscape:connector-curvature="0" />
            <path
               transform="translate(20.35474,-19.832824)"
               id="rect8765-66-7-5-9-5-6"
               d="m -2250.1973,315.75175 -15.7932,15.79103 15.7932,15.78112 15.7805,-15.78112 z"
               style="opacity:1;fill:#4d4d4d;fill-opacity:1;stroke:none;stroke-width:3.70941281;stroke-linejoin:miter;stroke-miterlimit:4;stroke-dasharray:none;stroke-dashoffset:0;stroke-opacity:1"
               inkscape:connector-curvature="0" />
            <path
               transform="translate(60.020387,-60.19436)"
               id="rect8765-66-7-5-9-7-8-0"
               d="m -2289.7788,275.70664 -15.7932,15.79103 15.7932,15.78112 15.7805,-15.78112 z"
               style="opacity:1;fill:#4d4d4d;fill-opacity:1;stroke:none;stroke-width:3.70941281;stroke-linejoin:miter;stroke-miterlimit:4;stroke-dasharray:none;stroke-dashoffset:0;stroke-opacity:1"
               inkscape:connector-curvature="0" />
            <path
               transform="translate(60.020387,-60.19436)"
               id="rect8765-66-7-5-9-5-6-7-1"
               d="m -2249.5884,315.83874 -15.7932,15.79103 15.7932,15.78112 15.7805,-15.78112 z"
               style="opacity:1;fill:#4d4d4d;fill-opacity:1;stroke:none;stroke-width:3.70941281;stroke-linejoin:miter;stroke-miterlimit:4;stroke-dasharray:none;stroke-dashoffset:0;stroke-opacity:1"
               inkscape:connector-curvature="0" />
            <path
               transform="translate(-20.006796,19.832823)"
               id="rect8765-66-7-5-9-7-8-0-6"
               d="m -2290.0398,275.9676 -15.7932,15.79103 15.7932,15.78112 15.7805,-15.78112 z"
               style="opacity:1;fill:#4d4d4d;fill-opacity:1;stroke:none;stroke-width:3.70941281;stroke-linejoin:miter;stroke-miterlimit:4;stroke-dasharray:none;stroke-dashoffset:0;stroke-opacity:1"
               inkscape:connector-curvature="0" />
            <path
               transform="translate(-20.006796,19.832823)"
               id="rect8765-66-7-5-9-5-6-7-1-6"
               d="m -2249.8494,316.18668 -15.7932,15.79103 15.7932,15.78112 15.7805,-15.78112 z"
               style="opacity:1;fill:#4d4d4d;fill-opacity:1;stroke:none;stroke-width:3.70941281;stroke-linejoin:miter;stroke-miterlimit:4;stroke-dasharray:none;stroke-dashoffset:0;stroke-opacity:1"
               inkscape:connector-curvature="0" />
            <path
               id="rect8765-66-7-5"
               d="m -2310.296,255.9132 -15.7932,15.79103 15.7932,15.78112 15.7805,-15.78112 z"
               style="opacity:1;fill:#4d4d4d;fill-opacity:1;stroke:none;stroke-width:3.70941281;stroke-linejoin:miter;stroke-miterlimit:4;stroke-dasharray:none;stroke-dashoffset:0;stroke-opacity:1"
               transform="translate(40.184345,-40.280314)"
               inkscape:connector-curvature="0" />
            <path
               id="rect8765-66-7-5-9"
               d="m -2290.0398,275.9676 -15.7932,15.79103 15.7932,15.78112 15.7805,-15.78112 z"
               style="opacity:1;fill:#4d4d4d;fill-opacity:1;stroke:none;stroke-width:3.70941281;stroke-linejoin:miter;stroke-miterlimit:4;stroke-dasharray:none;stroke-dashoffset:0;stroke-opacity:1"
               transform="translate(40.184345,-40.280314)"
               inkscape:connector-curvature="0" />
            <path
               id="rect8765-66-7-5-9-3"
               d="m -2269.9626,296.07342 -15.7932,15.79103 15.7932,15.78112 15.7805,-15.78112 z"
               style="opacity:1;fill:#4d4d4d;fill-opacity:1;stroke:none;stroke-width:3.70941281;stroke-linejoin:miter;stroke-miterlimit:4;stroke-dasharray:none;stroke-dashoffset:0;stroke-opacity:1"
               transform="translate(40.184345,-40.280314)"
               inkscape:connector-curvature="0" />
            <path
               id="rect8765-66-7-5-9-5"
               d="m -2249.8494,316.18668 -15.7932,15.79103 15.7932,15.78112 15.7805,-15.78112 z"
               style="opacity:1;fill:#4d4d4d;fill-opacity:1;stroke:none;stroke-width:3.70941281;stroke-linejoin:miter;stroke-miterlimit:4;stroke-dasharray:none;stroke-dashoffset:0;stroke-opacity:1"
               transform="translate(40.184345,-40.280314)"
               inkscape:connector-curvature="0" />
            <path
               id="rect8765-66-7-5-9-8"
               d="m -2229.6746,336.17692 -15.7932,15.79103 15.7932,15.78112 15.7805,-15.78112 z"
               style="opacity:1;fill:#4d4d4d;fill-opacity:1;stroke:none;stroke-width:3.70941281;stroke-linejoin:miter;stroke-miterlimit:4;stroke-dasharray:none;stroke-dashoffset:0;stroke-opacity:1"
               transform="translate(40.184345,-40.280314)"
               inkscape:connector-curvature="0" />
            <path
               id="rect8765-66-7-5-0-8"
               d="m -2310.296,255.9132 -15.7932,15.79103 15.7932,15.78112 15.7805,-15.78112 z"
               style="opacity:1;fill:#4d4d4d;fill-opacity:1;stroke:none;stroke-width:3.70941281;stroke-linejoin:miter;stroke-miterlimit:4;stroke-dasharray:none;stroke-dashoffset:0;stroke-opacity:1"
               inkscape:connector-curvature="0" />
            <path
               id="rect8765-66-7-5-9-7-8"
               d="m -2290.0398,275.9676 -15.7932,15.79103 15.7932,15.78112 15.7805,-15.78112 z"
               style="opacity:1;fill:#4d4d4d;fill-opacity:1;stroke:none;stroke-width:3.70941281;stroke-linejoin:miter;stroke-miterlimit:4;stroke-dasharray:none;stroke-dashoffset:0;stroke-opacity:1"
               inkscape:connector-curvature="0" />
            <path
               id="rect8765-66-7-5-9-3-6-8"
               d="m -2269.9626,296.07342 -15.7932,15.79103 15.7932,15.78112 15.7805,-15.78112 z"
               style="opacity:1;fill:#4d4d4d;fill-opacity:1;stroke:none;stroke-width:3.70941281;stroke-linejoin:miter;stroke-miterlimit:4;stroke-dasharray:none;stroke-dashoffset:0;stroke-opacity:1"
               inkscape:connector-curvature="0" />
            <path
               id="rect8765-66-7-5-9-5-6-7"
               d="m -2249.8494,316.18668 -15.7932,15.79103 15.7932,15.78112 15.7805,-15.78112 z"
               style="opacity:1;fill:#4d4d4d;fill-opacity:1;stroke:none;stroke-width:3.70941281;stroke-linejoin:miter;stroke-miterlimit:4;stroke-dasharray:none;stroke-dashoffset:0;stroke-opacity:1"
               inkscape:connector-curvature="0" />
            <path
               id="rect8765-66-7-5-9-8-2-7"
               d="m -2229.6746,336.17692 -15.7932,15.79103 15.7932,15.78112 15.7805,-15.78112 z"
               style="opacity:1;fill:#4d4d4d;fill-opacity:1;stroke:none;stroke-width:3.70941281;stroke-linejoin:miter;stroke-miterlimit:4;stroke-dasharray:none;stroke-dashoffset:0;stroke-opacity:1"
               inkscape:connector-curvature="0" />
          </g>
        </g>
      </g>
      <g
         style="fill:#4d4d4d"
         id="g21807">
        <path
           id="path17093-7"
           style="font-style:normal;font-variant:normal;font-weight:normal;font-stretch:normal;font-size:85.33333588px;line-height:125%;font-family:Roboto;-inkscape-font-specification:Roboto;letter-spacing:0px;word-spacing:0.44999999px;opacity:1;fill:#4d4d4d;fill-opacity:1;stroke:none;stroke-width:1.21986353px;stroke-linecap:butt;stroke-linejoin:miter;stroke-opacity:1"
           d="m -2132.9788,343.96237 -7.7083,-1.7e-4 v -66.18691 h 7.7083 z m -8.5081,-97.3943 h 9.134 v 9.26222 h -9.134 z"
           inkscape:connector-curvature="0" />
        <path
           id="path17095-8"
           style="font-style:normal;font-variant:normal;font-weight:normal;font-stretch:normal;font-size:85.33333588px;line-height:125%;font-family:Roboto;-inkscape-font-specification:Roboto;letter-spacing:0px;word-spacing:0.44999999px;opacity:1;fill:#4d4d4d;fill-opacity:1;stroke:none;stroke-width:1.21141911px;stroke-linecap:butt;stroke-linejoin:miter;stroke-opacity:1"
           d="m -2064.5139,257.38901 v 20.42 h 14.917 v 6.144 h -14.917 v 42.3302 c 0,2.64972 0.375,4.6472 1.125,5.99243 0.75,1.30448 0.8205,1.37219 2.0496,2.69482 2.0575,2.21431 6.2322,2.40027 12.0318,2.28013 l -0.246,6.71178 -8.9922,-0.19174 c -3.4436,-0.0734 -6.3072,-1.46877 -8.8987,-4.09398 -2.6079,-2.64183 -4.7778,-7.76788 -4.7778,-13.39344 v -42.3302 h -8.8087 v -6.144 h 8.8087 v -20.42 z"
           inkscape:connector-curvature="0" />
        <path
           id="path17099-8"
           style="font-style:normal;font-variant:normal;font-weight:normal;font-stretch:normal;font-size:85.33333588px;line-height:125%;font-family:Roboto;-inkscape-font-specification:Roboto;letter-spacing:0px;word-spacing:0.44999999px;opacity:1;fill:#4d4d4d;fill-opacity:1;stroke:none;stroke-width:1.46268344px;stroke-linecap:butt;stroke-linejoin:miter;stroke-opacity:1"
           d="m -1921.1944,278.20246 0.2773,6.84149 c 6.0628,-5.27521 9.9525,-7.74701 18.7433,-7.80409 17.2753,-0.11218 24.9736,11.98033 24.8341,23.63248 v 43.04653 l -7.7582,0.0435 -0.043,-41.88991 c 0.046,-7.77292 -3.3461,-11.4824 -5.4908,-13.76639 -2.1048,-2.28399 -7.6827,-4.00861 -12.175,-4.07839 -5.5999,-0.087 -9.7932,1.6231 -12.3327,3.84991 -3.2742,2.87106 -5.6055,8.92756 -5.7953,13.32663 l 0.043,42.55815 -7.8101,-0.0435 0.2609,-65.58593 z"
           inkscape:connector-curvature="0" />
        <path
           id="path17093-7-7-5"
           style="font-style:normal;font-variant:normal;font-weight:normal;font-stretch:normal;font-size:85.33333588px;line-height:125%;font-family:Roboto;-inkscape-font-specification:Roboto;letter-spacing:0px;word-spacing:0.44999999px;opacity:1;fill:#4d4d4d;fill-opacity:1;stroke:none;stroke-width:1.21986353px;stroke-linecap:butt;stroke-linejoin:miter;stroke-opacity:1"
           d="m -1616.8064,343.96237 h -7.7083 v -67.08701 h 7.7083 z m -7.2083,-98.49405 h 6.8333 v 9.36243 h -6.8333 z"
           inkscape:connector-curvature="0" />
        <path
           id="path17107-4"
           style="font-style:normal;font-variant:normal;font-weight:normal;font-stretch:normal;font-size:85.33333588px;line-height:125%;font-family:Roboto;-inkscape-font-specification:Roboto;letter-spacing:0px;word-spacing:0.44999999px;opacity:1;fill:#4d4d4d;fill-opacity:1;stroke:none;stroke-width:1.46410012px;stroke-linecap:butt;stroke-linejoin:miter;stroke-opacity:1"
           d="m -1518.3065,324.22816 c 0,-5.66543 -1.7882,-7.99819 -6.0868,-9.51209 -4.2986,-1.51389 -7.9564,-1.69345 -15.3232,-2.13066 -7.3667,-0.43721 -9.9877,-1.46637 -13.343,-3.17449 -3.3553,-1.70812 -4.3572,-3.21964 -5.9636,-5.57851 -1.6065,-2.35887 -2.1183,-4.69617 -2.1183,-9.02747 0,-4.3313 2.431,-11.89804 9.094,-15.46566 6.663,-3.56762 9.2253,-3.26374 14.0898,-3.35073 4.8645,-0.087 9.2124,0.92924 13.6559,2.05497 4.4435,1.12573 7.7115,2.80291 10.4081,5.42953 l -4.8229,4.87122 c -2.6096,-1.6991 -3.4807,-2.34056 -8.0537,-3.9032 -4.573,-1.56264 -7.9846,-1.7025 -11.9703,-1.7025 -4.1076,0 -8.1033,1.24267 -10.4215,3.03212 -2.3181,1.78947 -4.4341,6.04166 -4.4341,8.92918 0,2.72486 1.6867,7.12729 3.8421,8.51004 2.1556,1.38277 6.0395,1.48673 11.6519,2.74748 5.914,0.47787 13.012,0.24292 16.5096,1.9917 3.4975,1.7488 6.8628,3.51567 8.5302,5.9965 1.7081,2.44017 2.4752,6.82114 2.4752,10.35937 0,5.89708 -2.7068,10.54809 -7.4244,14.127 -4.7176,3.53825 -11.3602,5.48134 -18.8842,5.48134 -5.287,0 -9.268,0.45638 -13.335,-1.41442 -4.0669,-1.8708 -3.6931,-0.73324 -7.925,-3.54621 -2.2774,-3.37557 -5.8518,-1.70934 -5.8518,-5.61361 l 5.1968,-4.43628 c 3.7698,3.17335 5.7761,4.98535 10.6034,6.76698 4.8273,1.78162 7.9022,1.20655 12.3554,1.20655 4.4533,0 10.2961,-1.46295 12.8583,-3.17107 2.6028,-1.74879 4.6871,-3.81164 4.6871,-9.47708 z"
           inkscape:connector-curvature="0" />
        <path
           id="path17101-2"
           style="font-style:normal;font-variant:normal;font-weight:normal;font-stretch:normal;font-size:85.33333588px;line-height:125%;font-family:Roboto;-inkscape-font-specification:Roboto;letter-spacing:0px;word-spacing:0.44999999px;opacity:1;fill:#4d4d4d;fill-opacity:1;stroke:none;stroke-width:1.41168761px;stroke-linecap:butt;stroke-linejoin:miter;stroke-opacity:1"
           d="m -1794.0867,343.96237 c -8.4471,0 -15.407,-1.83971 -20.7055,-7.6068 -5.2985,-5.80714 -7.8608,-14.6005 -7.8608,-24.29241 v -2.04251 c 0,-6.44792 0.9971,-13.06484 3.3393,-18.11105 2.3804,-5.08626 4.4646,-8.35524 8.6881,-11.19873 4.2617,-2.88355 9.5651,-4.23834 14.5181,-4.23834 8.1016,0 15.0943,2.87042 19.5865,8.43726 4.4921,5.56684 6.1572,9.71418 6.4772,20.08199 v 7.14829 l -44.999,0.26096 c 0.1536,6.40787 0.093,11.52723 4.7472,17.38582 4.6542,5.8586 10.1663,7.366 14.697,7.366 4.5308,0 8.6024,-0.19209 11.2132,-1.79405 2.6107,-1.60196 6.1131,-3.5506 8.0712,-6.19385 l 5.7254,4.67759 c -5.2219,8.37028 -13.0545,10.11982 -23.4979,10.11983 z m -1.6728,-60.79423 c -6.3772,0.22443 -10.6929,2.94682 -15.5246,8.23153 -2.9181,3.24399 -3.157,8.59248 -3.8481,14.47971 l 37.8264,-0.087 c 0.041,-4.65374 -1.3029,-8.68172 -2.9853,-13.32821 -2.6109,-5.64645 -9.0913,-9.52046 -15.4684,-9.29604 z"
           inkscape:connector-curvature="0" />
        <path
           id="path17103-8"
           style="font-style:normal;font-variant:normal;font-weight:normal;font-stretch:normal;font-size:85.33333588px;line-height:125%;font-family:Roboto;-inkscape-font-specification:Roboto;letter-spacing:0px;word-spacing:0.44999999px;opacity:1;fill:#4d4d4d;fill-opacity:1;stroke:none;stroke-width:1.46410012px;stroke-linecap:butt;stroke-linejoin:miter;stroke-opacity:1"
           d="m -1677.0418,288.95242 c -2.7521,-2.37234 -3.9944,-5.23791 -12.1623,-5.38524 -10.098,-0.18214 -17.5033,9.3279 -17.2763,17.37138 l 0.087,43.02381 h -7.6857 l -0.087,-66.35445 h 7.6417 l 0.01,7.97346 c 3.701,-5.89706 12.5508,-9.06239 19.3391,-8.84559 10.8946,0.34794 14.9107,5.93878 16.0495,6.50814 z"
           inkscape:connector-curvature="0" />
        <path
           id="path17093-7-4"
           style="font-style:normal;font-variant:normal;font-weight:normal;font-stretch:normal;font-size:85.33333588px;line-height:125%;font-family:Roboto;-inkscape-font-specification:Roboto;letter-spacing:0px;word-spacing:0.44999999px;opacity:1;fill:#4d4d4d;fill-opacity:1;stroke:none;stroke-width:1.21986353px;stroke-linecap:butt;stroke-linejoin:miter;stroke-opacity:1"
           d="m -1988.0697,343.96237 -7.7083,-1.7e-4 v -66.18691 h 7.7083 z m -8.5081,-97.3943 h 9.134 v 9.26222 h -9.134 z"
           inkscape:connector-curvature="0" />
      </g>
      <text
         xml:space="preserve"
         style="font-style:normal;font-variant:normal;font-weight:normal;font-stretch:normal;font-size:17.02742195px;line-height:128.99999619%;font-family:Roboto;-inkscape-font-specification:Roboto;letter-spacing:0px;word-spacing:0px;fill:#4d4d4d;fill-opacity:1;stroke:none;stroke-width:1.16096056px;stroke-linecap:butt;stroke-linejoin:miter;stroke-opacity:1"
         x="-2206.0107"
         y="396.01898"
         id="text21772"
         transform="scale(0.97059713,1.0302936)"><tspan
           id="tspan21770"
           x="-2206.0107"
           y="396.01898"
           style="font-style:normal;font-variant:normal;font-weight:normal;font-stretch:normal;font-size:37.15073776px;line-height:150%;font-family:'Open Sans';-inkscape-font-specification:'Open Sans';letter-spacing:13px;fill:#4d4d4d;stroke-width:1.16096056px">excellence in utilities</tspan></text>
    </g>
  </g>
</svg>
