<?xml version="1.0" encoding="UTF-8" standalone="no"?>
<svg
   xmlns:dc="http://purl.org/dc/elements/1.1/"
   xmlns:cc="http://creativecommons.org/ns#"
   xmlns:rdf="http://www.w3.org/1999/02/22-rdf-syntax-ns#"
   xmlns:svg="http://www.w3.org/2000/svg"
   xmlns="http://www.w3.org/2000/svg"
   xmlns:sodipodi="http://sodipodi.sourceforge.net/DTD/sodipodi-0.dtd"
   xmlns:inkscape="http://www.inkscape.org/namespaces/inkscape"
   viewBox="0 0 100 26.351661"
   version="1.1"
   id="svg48"
   sodipodi:docname="Philadelphia_Logo.svg"
   width="100"
   height="26.351662"
   inkscape:version="0.92.1 r15371">
  <metadata
     id="metadata54">
    <rdf:RDF>
      <cc:Work
         rdf:about="">
        <dc:format>image/svg+xml</dc:format>
        <dc:type
           rdf:resource="http://purl.org/dc/dcmitype/StillImage" />
      </cc:Work>
    </rdf:RDF>
  </metadata>
  <defs
     id="defs52" />
  <sodipodi:namedview
     pagecolor="#ffffff"
     bordercolor="#666666"
     borderopacity="1"
     objecttolerance="10"
     gridtolerance="10"
     guidetolerance="10"
     inkscape:pageopacity="0"
     inkscape:pageshadow="2"
     inkscape:window-width="716"
     inkscape:window-height="480"
     id="namedview50"
     showgrid="false"
     inkscape:zoom="0.70368444"
     inkscape:cx="201.78785"
     inkscape:cy="53.179998"
     inkscape:window-x="414"
     inkscape:window-y="150"
     inkscape:window-maximized="0"
     inkscape:current-layer="svg48" />
  <title
     id="title2">city-of-philadelphia-all-gray</title>
  <path
     d="m 26.773402,20.159622 v 3.46893 h -1.677475 v -9.440438 q 1.677475,-0.07186 1.962422,-0.07186 2.230026,0 3.27566,0.686353 1.045634,0.686352 1.035723,2.14578 0,3.253365 -3.835644,3.253365 -0.279992,0.002 -0.760686,-0.0421 z m 0,-4.519514 v 3.027879 q 0.426182,0.0446 0.671485,0.0446 1.149702,0 1.677475,-0.38406 0.527772,-0.384059 0.53025,-1.238903 0,-1.471816 -2.368782,-1.471816 a 3.9273224,3.9273224 0 0 0 -0.510428,0.0223 z"
     style="fill:#4d4d4d;stroke-width:0.24778059"
     id="path4"
     inkscape:connector-curvature="0" />
  <path
     d="m 37.23222,23.640942 v -4.261825 a 1.3627933,1.3627933 0 0 0 -0.401404,-1.025812 1.4396052,1.4396052 0 0 0 -1.045634,-0.386537 1.7096861,1.7096861 0 0 0 -0.807765,0.215569 1.4866836,1.4866836 0 0 0 -0.579807,0.495561 v 4.955614 h -1.640307 v -9.485043 l 1.640307,-0.386538 v 3.402028 a 2.4778059,2.4778059 0 0 1 1.734465,-0.567418 q 1.29837,0 2.014456,0.721042 0.716086,0.721041 0.716086,2.061534 v 4.261825 h -1.620485 z"
     style="fill:#4d4d4d;stroke-width:0.24778059"
     id="path6"
     inkscape:connector-curvature="0" />
  <path
     d="m 41.030697,23.640942 v -5.592407 h -0.89201 v -1.323148 h 2.517451 v 6.915555 z m 0.842454,-9.594063 a 0.93661064,0.93661064 0 1 1 -0.661574,0.275036 0.90192136,0.90192136 0 0 1 0.661574,-0.275036 z"
     style="fill:#4d4d4d;stroke-width:0.24778059"
     id="path8"
     inkscape:connector-curvature="0" />
  <path
     d="m 44.819262,14.148469 1.61553,-0.386538 v 7.772881 q 0,1.27854 0.760686,1.52385 a 1.3256262,1.3256262 0 0 1 -1.278548,0.71113 q -1.097668,0 -1.097668,-1.52385 z"
     style="fill:#4d4d4d;stroke-width:0.24778059"
     id="path10"
     inkscape:connector-curvature="0" />
  <path
     d="m 52.279936,22.949632 a 1.5610177,1.5610177 0 0 1 -0.755731,0.58724 2.9138998,2.9138998 0 0 1 -1.139791,0.22796 2.5769182,2.5769182 0 0 1 -1.756764,-0.5575 1.9822447,1.9822447 0 0 1 -0.639274,-1.5858 2.2300253,2.2300253 0 0 1 0.899443,-1.878177 q 0.914311,-0.66653 2.562052,-0.66653 a 2.8222209,2.8222209 0 0 1 0.671485,0.09663 q 0,-1.21908 -1.543673,-1.21908 a 3.4193722,3.4193722 0 0 0 -1.518895,0.294859 l -0.349371,-1.25377 a 4.5368626,4.5368626 0 0 1 1.982245,-0.401405 q 1.58084,0 2.316749,0.721042 0.735908,0.721041 0.743341,2.725591 v 1.48668 q 0,1.38262 0.555029,1.73447 a 0.86970988,0.86970988 0 0 1 -0.446005,0.42866 1.7964093,1.7964093 0 0 1 -0.562462,0.0818 0.89696574,0.89696574 0 0 1 -0.626885,-0.24779 1.3157149,1.3157149 0 0 1 -0.391493,-0.57485 z m -0.153624,-2.56205 a 3.446628,3.446628 0 0 0 -0.619452,-0.0842 q -1.910388,0 -1.910388,1.25129 0,0.92918 1.077846,0.92918 1.451994,0 1.451994,-1.452 v -0.64671 z"
     style="fill:#4d4d4d;stroke-width:0.24778059"
     id="path12"
     inkscape:connector-curvature="0" />
  <path
     d="m 59.933878,23.640942 v -0.42123 a 1.6378297,1.6378297 0 0 1 -0.678919,0.38406 3.013012,3.013012 0 0 1 -0.991122,0.16354 2.9138998,2.9138998 0 0 1 -2.274626,-0.91679 q -0.830065,-0.91679 -0.830065,-2.55709 a 3.7761762,3.7761762 0 0 1 0.951478,-2.668601 3.114602,3.114602 0 0 1 2.388605,-1.025812 3.1616804,3.1616804 0 0 1 1.432171,0.322115 v -2.772665 l 1.613052,-0.386538 v 9.879011 H 59.9314 Z m 0,-5.262858 a 1.7047305,1.7047305 0 0 0 -1.077845,-0.413794 1.8856103,1.8856103 0 0 0 -1.486684,0.589718 q -0.522817,0.589718 -0.522817,1.694824 0,2.15569 2.078879,2.15569 a 1.5684511,1.5684511 0 0 0 0.572373,-0.13876 1.0431563,1.0431563 0 0 0 0.44105,-0.27999 v -3.607688 z"
     style="fill:#4d4d4d;stroke-width:0.24778059"
     id="path14"
     inkscape:connector-curvature="0" />
  <path
     d="m 69.332196,20.677492 h -4.938267 a 1.7518088,1.7518088 0 0 0 0.567417,1.28598 2.0590567,2.0590567 0 0 0 1.407394,0.45839 q 1.105102,0 1.679953,-0.57485 l 0.626885,1.2389 q -0.852366,0.69131 -2.544707,0.69131 -1.58084,0 -2.502584,-0.9267 -0.921744,-0.9267 -0.919266,-2.58683 a 3.5853852,3.5853852 0 0 1 1.010945,-2.646295 3.5432625,3.5432625 0 0 1 4.839155,-0.116457 3.0724793,3.0724793 0 0 1 0.909354,2.284537 4.4996956,4.4996956 0 0 1 -0.136279,0.892015 z m -4.881278,-1.214129 h 3.397072 q -0.16849,-1.516418 -1.677474,-1.516418 -1.382616,0 -1.71712,1.516418 z"
     style="fill:#4d4d4d;stroke-width:0.24778059"
     id="path16"
     inkscape:connector-curvature="0" />
  <path
     d="m 71.036927,14.148469 1.613051,-0.386538 v 7.772881 q 0,1.27854 0.760687,1.52385 a 1.3256262,1.3256262 0 0 1 -1.278548,0.71113 q -1.097668,0 -1.097668,-1.52385 v -8.097473 z"
     style="fill:#4d4d4d;stroke-width:0.24778059"
     id="path18"
     inkscape:connector-curvature="0" />
  <path
     d="m 76.143685,23.465022 v 2.88664 h -1.613052 v -9.626275 h 1.613052 v 0.465828 a 2.0491455,2.0491455 0 0 1 1.486683,-0.594674 q 3.305393,0 3.305393,3.642371 0,1.6973 -0.91431,2.61409 -0.914311,0.91679 -2.495151,0.91679 a 3.1393801,3.1393801 0 0 1 -1.382615,-0.30477 z m 0,-5.049771 v 3.634941 a 1.583318,1.583318 0 0 0 1.025811,0.35433 q 1.117491,0 1.603141,-0.53273 0.48565,-0.53273 0.495561,-1.68243 0,-1.238905 -0.495561,-1.734466 -0.495561,-0.495562 -1.600663,-0.495562 a 1.4222606,1.4222606 0 0 0 -1.028289,0.458394 z"
     style="fill:#4d4d4d;stroke-width:0.24778059"
     id="path20"
     inkscape:connector-curvature="0" />
  <path
     d="m 86.835417,23.640942 v -4.261825 a 1.3627933,1.3627933 0 0 0 -0.401404,-1.025812 1.442083,1.442083 0 0 0 -1.045635,-0.386537 1.7096861,1.7096861 0 0 0 -0.807764,0.215569 1.4866836,1.4866836 0 0 0 -0.579807,0.495561 v 4.955614 H 82.3605 v -9.485043 l 1.635352,-0.386538 v 3.402028 a 2.4778059,2.4778059 0 0 1 1.734464,-0.56494 q 1.29837,0 2.014456,0.721041 0.716086,0.721042 0.71113,2.059057 v 4.261825 z"
     style="fill:#4d4d4d;stroke-width:0.24778059"
     id="path22"
     inkscape:connector-curvature="0" />
  <path
     d="m 90.631416,23.640942 v -5.592407 h -0.884577 v -1.323148 h 2.517451 v 6.915555 z m 0.832543,-9.594063 a 0.93661064,0.93661064 0 1 1 -0.661575,0.275036 0.90192136,0.90192136 0 0 1 0.661575,-0.275036 z"
     style="fill:#4d4d4d;stroke-width:0.24778059"
     id="path24"
     inkscape:connector-curvature="0" />
  <path
     d="m 97.990499,22.949632 a 1.5610177,1.5610177 0 0 1 -0.763164,0.58724 2.9138998,2.9138998 0 0 1 -1.139791,0.22796 2.5769182,2.5769182 0 0 1 -1.756764,-0.5575 1.9822447,1.9822447 0 0 1 -0.639274,-1.5858 2.2300253,2.2300253 0 0 1 0.899444,-1.878177 q 0.901921,-0.66653 2.562051,-0.66653 a 2.8222209,2.8222209 0 0 1 0.671485,0.09663 q 0,-1.21908 -1.543673,-1.21908 a 3.4193722,3.4193722 0 0 0 -1.52385,0.302292 l -0.354327,-1.258725 a 4.5368626,4.5368626 0 0 1 1.982245,-0.398927 q 1.58084,0 2.316749,0.721041 0.735908,0.721042 0.743341,2.725586 v 1.48669 q 0,1.38261 0.555029,1.73446 a 0.86970988,0.86970988 0 0 1 -0.446005,0.42866 1.7964093,1.7964093 0 0 1 -0.562462,0.0818 0.89696574,0.89696574 0 0 1 -0.626885,-0.24778 1.3157149,1.3157149 0 0 1 -0.374149,-0.57981 z m -0.153624,-2.56205 a 3.446628,3.446628 0 0 0 -0.619451,-0.0842 q -1.910388,0 -1.910388,1.25129 0,0.92918 1.077845,0.92918 1.451994,0 1.451994,-1.452 v -0.64671 z"
     style="fill:#4d4d4d;stroke-width:0.24778059"
     id="path26"
     inkscape:connector-curvature="0" />
  <path
     d="m 29.097584,4.6634277 -0.406361,0.817676 a 1.4594277,1.4594277 0 0 0 -1.065456,-0.332026 1.3751823,1.3751823 0 0 0 -1.142269,0.584762 2.3687825,2.3687825 0 0 0 -0.446005,1.486683 2.2300253,2.2300253 0 0 0 0.413794,1.419783 1.3305818,1.3305818 0 0 0 1.102623,0.525295 1.4866836,1.4866836 0 0 0 1.238903,-0.562462 l 0.443528,0.787942 Q 28.631756,10.032833 27.464709,10.032833 A 2.2300253,2.2300253 0 0 1 25.650956,9.2647127 q -0.626885,-0.768119 -0.626885,-2.093746 a 3.0526569,3.0526569 0 0 1 0.716086,-2.06649 2.3142707,2.3142707 0 0 1 1.836054,-0.830065 2.6785082,2.6785082 0 0 1 1.521373,0.389016 z"
     style="fill:#4d4d4d;stroke-width:0.24778059"
     id="path28"
     inkscape:connector-curvature="0" />
  <path
     d="m 30.24233,9.9386767 v -3.293004 h -0.510428 v -0.780509 h 1.486683 v 4.073513 h -0.961388 z m 0.495561,-5.651876 a 0.55255072,0.55255072 0 1 1 -0.389015,0.161058 0.53025047,0.53025047 0 0 1 0.374148,-0.161058 z"
     style="fill:#4d4d4d;stroke-width:0.24778059"
     id="path30"
     inkscape:connector-curvature="0" />
  <path
     d="m 32.457488,6.6308057 h -0.470783 v -0.765642 h 0.470783 v -0.830065 l 0.951478,-0.349371 v 1.179436 h 1.11749 v 0.765642 h -1.11749 v 1.791453 a 1.0530675,1.0530675 0 0 0 0.136279,0.616974 0.56493975,0.56493975 0 0 0 0.478217,0.18088 1.1794356,1.1794356 0 0 0 0.639274,-0.185836 v 0.874666 A 3.0303566,3.0303566 0 0 1 33.718692,10.022922 1.238903,1.238903 0 0 1 32.784559,9.6611617 1.3652711,1.3652711 0 0 1 32.457488,8.6700397 Z"
     style="fill:#4d4d4d;stroke-width:0.24778059"
     id="path32"
     inkscape:connector-curvature="0" />
  <path
     d="m 37.202487,10.592817 a 1.3082815,1.3082815 0 0 1 -0.651663,0.676441 2.4307276,2.4307276 0 0 1 -1.167047,0.267603 v -0.839976 q 1.100146,0 1.100146,-0.552551 A 3.3921163,3.3921163 0 0 0 36.174197,9.0268437 l -1.273592,-3.16168 h 0.991122 l 1.110057,2.804876 0.991123,-2.814788 h 0.991122 z"
     style="fill:#4d4d4d;stroke-width:0.24778059"
     id="path34"
     inkscape:connector-curvature="0" />
  <path
     d="m 40.547525,7.8920087 a 2.1556912,2.1556912 0 0 1 0.537684,-1.516417 2.0689679,2.0689679 0 0 1 2.861865,-0.0223 2.1978139,2.1978139 0 0 1 0.512906,1.541196 2.2102029,2.2102029 0 0 1 -0.522817,1.548628 2.0788792,2.0788792 0 0 1 -2.874255,0 2.2300253,2.2300253 0 0 1 -0.515383,-1.551107 z m 0.991122,0 q 0,1.345448 0.968822,1.345448 a 0.83254279,0.83254279 0 0 0 0.706175,-0.34937 1.6452631,1.6452631 0 0 0 0.26017,-0.991123 q 0,-1.328103 -0.966345,-1.328103 a 0.8374984,0.8374984 0 0 0 -0.708652,0.34937 1.6006626,1.6006626 0 0 0 -0.262648,0.973778 z"
     style="fill:#4d4d4d;stroke-width:0.24778059"
     id="path36"
     inkscape:connector-curvature="0" />
  <path
     d="m 47.492815,5.0673097 a 1.6749968,1.6749968 0 0 0 -0.478217,-0.10159 0.56989536,0.56989536 0 0 0 -0.458394,0.232914 0.87466549,0.87466549 0 0 0 -0.188313,0.569895 c 0,0.03221 0,0.0669 0,0.09911 h 0.844932 v 0.782987 h -0.830065 v 3.288049 H 45.43128 v -3.290527 h -0.584762 v -0.782986 h 0.597151 a 1.8633101,1.8633101 0 0 1 0.443528,-1.20917 1.3677489,1.3677489 0 0 1 1.067934,-0.460872 2.923811,2.923811 0 0 1 0.825109,0.148669 z"
     style="fill:#4d4d4d;stroke-width:0.24778059"
     id="path38"
     inkscape:connector-curvature="0" />
  <path
     d="m 8.623472,20.689872 c 0.059467,0.62193 0.1784021,1.58084 0.2626475,1.94508 3.8455545,1.01838 6.4794625,0.51786 7.0939585,0.0966 0.455916,-0.31468 0.763164,-0.47326 0.141235,-1.76172 -1.395005,0.58476 -4.284127,0.5352 -7.497841,-0.28"
     style="fill:#4d4d4d;stroke-width:0.24778059"
     id="path40"
     inkscape:connector-curvature="0" />
  <path
     d="m 7.0649321,22.444162 a 0.82263157,0.82263157 0 0 0 -0.7829867,1.40987 l -0.190791,0.37911 a 0.86227646,0.86227646 0 0 0 0.3196369,0.1784 0.68883005,0.68883005 0 0 0 0.3394594,0.0372 l 0.061945,-0.41628 a 0.82015376,0.82015376 0 0 0 0.2477806,-1.60066"
     style="fill:#4d4d4d;stroke-width:0.24778059"
     id="path42"
     inkscape:connector-curvature="0" />
  <path
     d="m 21.007546,4.9929757 c 0.195747,-0.701219 -0.247781,-0.827587 -0.413794,-0.86971 l -4.680575,-1.308281 c -0.36176,-0.10159 -0.247781,-0.921744 -0.572373,-1.015901 L 11.656306,0.77079474 c -0.334503,-0.09416 -0.65414,0.67148496 -1.0159,0.57237296 L 5.9623085,0.03488574 c -0.1561018,-0.037167 -0.6095403,-0.170968 -0.805287,0.530251 L 4.091565,4.3735237 a 0.07928979,0.07928979 0 0 1 -0.1065457,0.05947 l -0.3345038,-0.09416 a 0.24778059,0.24778059 0 0 0 -0.3022923,0.170969 3.9223668,3.9223668 0 0 0 -0.3369816,0.859798 5.7162983,5.7162983 0 0 0 -0.1932688,1.038201 0.23043595,0.23043595 0 0 0 0.1709686,0.302292 l 2.9981451,0.837499 a 0.44104945,0.44104945 0 0 0 0.5723732,-0.265125 c 0.319637,-0.681397 1.1323573,-1.982245 1.4049159,-2.128436 0.3642375,-0.20318 2.4778064,0.146191 2.4778064,0.146191 a 2.3340932,2.3340932 0 0 0 -0.143713,0.450961 c -0.08177,0.334503 0.106545,1.152179 -0.08425,1.261203 -1.0481115,0.589718 -2.9213328,-0.307248 -3.5407842,1.447038 -1.5758846,4.4600513 -2.7255865,6.3679623 -4.4848287,7.5300533 0.8226315,0.963866 2.7652314,1.982244 5.5626742,2.839565 a 1.3330596,1.3330596 0 0 1 -0.02973,-0.260168 8.7317881,8.7317881 0 0 0 -0.069379,-1.020856 c -0.0669,-0.616974 -0.104067,-0.916789 -0.1189339,-1.226514 a 3.3475158,3.3475158 0 0 1 0.178402,-1.112535 l 0.059467,-0.205658 c 0.2081357,-0.713608 0.8746655,-2.698331 1.1447463,-3.258315 0.047078,-0.09911 0.1040679,-0.08177 0.1189347,-0.07681 0.014867,0.005 0.074334,0.01982 0.061945,0.128846 -0.071856,0.614496 -0.574851,2.648775 -0.7854645,3.362383 -0.019823,0.07186 -0.039645,0.136279 -0.059467,0.200702 A 2.7255865,2.7255865 0 0 0 8.1402997,16.35124 c 0,0.262648 0.076812,0.579807 0.1461905,1.20917 a 9.4156625,9.4156625 0 0 1 0.071856,1.053067 1.3380152,1.3380152 0 0 0 0.074334,0.396449 l 0.049556,0.01487 c 3.1988478,0.894488 5.6667418,1.090236 6.9675898,0.654141 -0.89201,-1.902955 -0.89201,-4.130503 0.06938,-8.759044 0.379104,-1.8236653 -1.687386,-2.0268463 -2.277104,-3.0749573 -0.109023,-0.190791 0.495561,-0.792898 0.58724,-1.119969 a 1.8806547,1.8806547 0 0 0 0.104068,-0.460872 c 0,0 2.086313,0.822632 2.291971,1.186869 0.153624,0.272559 0.178402,1.798888 0.09911,2.547185 a 0.44104945,0.44104945 0 0 0 0.351848,0.5228173 l 2.998145,0.837498 a 0.23043595,0.23043595 0 0 0 0.302293,-0.170968 5.6766534,5.6766534 0 0 0 0.371671,-0.991123 3.9298002,3.9298002 0 0 0 0.158579,-0.9093543 0.24778059,0.24778059 0 0 0 -0.168491,-0.302293 l -0.336981,-0.0669 a 0.07928979,0.07928979 0 0 1 -0.05947,-0.104068"
     style="fill:#4d4d4d;stroke-width:0.24778059"
     id="path44"
     inkscape:connector-curvature="0" />
  <path
     d="m 0.95714055,16.745209 c -1.20669149,0.82511 -1.05554533,1.258726 -0.71113031,1.697297 0.82510936,1.067935 3.04522346,2.658686 7.10386956,3.793526 l 0.9217438,0.24778 C 8.2072006,22.164172 8.0610101,21.133402 7.9916315,20.516432 4.5995152,19.572386 1.9061402,18.016324 0.95714055,16.745209"
     style="fill:#4d4d4d;stroke-width:0.24778059"
     id="path46"
     inkscape:connector-curvature="0" />
</svg>
