<?xml version="1.0" encoding="UTF-8" standalone="no"?>
<!-- Created with Inkscape (http://www.inkscape.org/) -->

<svg
   xmlns:dc="http://purl.org/dc/elements/1.1/"
   xmlns:cc="http://creativecommons.org/ns#"
   xmlns:rdf="http://www.w3.org/1999/02/22-rdf-syntax-ns#"
   xmlns:svg="http://www.w3.org/2000/svg"
   xmlns="http://www.w3.org/2000/svg"
   xmlns:sodipodi="http://sodipodi.sourceforge.net/DTD/sodipodi-0.dtd"
   xmlns:inkscape="http://www.inkscape.org/namespaces/inkscape"
   width="26.458334mm"
   height="10.125398mm"
   viewBox="0 0 26.458334 10.125398"
   version="1.1"
   id="svg11633"
   inkscape:version="0.92.1 r15371"
   sodipodi:docname="SEDC_Logo.svg">
  <defs
     id="defs11627">
    <filter
       inkscape:collect="always"
       style="color-interpolation-filters:sRGB"
       id="filter22161"
       x="-0.010655088"
       width="1.0213102"
       y="-0.029109323"
       height="1.0582186">
      <feGaussianBlur
         inkscape:collect="always"
         stdDeviation="1.1669626"
         id="feGaussianBlur22163" />
    </filter>
    <filter
       inkscape:collect="always"
       style="color-interpolation-filters:sRGB"
       id="filter7278"
       x="-0.0040765307"
       width="1.0081531"
       y="-0.011360191"
       height="1.0227205">
      <feGaussianBlur
         inkscape:collect="always"
         stdDeviation="0.44646732"
         id="feGaussianBlur7280" />
    </filter>
    <filter
       inkscape:collect="always"
       style="color-interpolation-filters:sRGB"
       id="filter7270"
       x="-0.0040686824"
       width="1.0081373"
       y="-0.011421585"
       height="1.0228432">
      <feGaussianBlur
         inkscape:collect="always"
         stdDeviation="0.44148917"
         id="feGaussianBlur7272" />
    </filter>
  </defs>
  <sodipodi:namedview
     id="base"
     pagecolor="#ffffff"
     bordercolor="#666666"
     borderopacity="1.0"
     inkscape:pageopacity="0.0"
     inkscape:pageshadow="2"
     inkscape:zoom="0.35"
     inkscape:cx="-135.77323"
     inkscape:cy="114.22464"
     inkscape:document-units="mm"
     inkscape:current-layer="layer1"
     showgrid="false"
     inkscape:window-width="1366"
     inkscape:window-height="705"
     inkscape:window-x="-8"
     inkscape:window-y="-8"
     inkscape:window-maximized="1" />
  <metadata
     id="metadata11630">
    <rdf:RDF>
      <cc:Work
         rdf:about="">
        <dc:format>image/svg+xml</dc:format>
        <dc:type
           rdf:resource="http://purl.org/dc/dcmitype/StillImage" />
        <dc:title></dc:title>
      </cc:Work>
    </rdf:RDF>
  </metadata>
  <g
     inkscape:label="Layer 1"
     inkscape:groupmode="layer"
     id="layer1"
     transform="translate(-18.914406,-168.92987)">
    <g
       id="g6902"
       transform="matrix(0.09855837,0,0,0.09855837,139.8474,-197.07018)"
       style="fill:#4d4d4d">
      <path
         id="path22092-6"
         d="m -1189.228,3717.2574 c -9.3839,0 -15.8668,1.5993 -21.6289,5.8242 -7.5731,5.4923 -9.7298,11.8817 -9.6192,19.8613 0.2482,12.9367 11.9343,20.1098 23.543,24 8.7254,2.6757 19.5189,7.6537 23.0312,10.752 3.1279,2.7696 6.6602,8.969 6.6602,12.8183 -0.1782,12.6434 -12.5949,18.7234 -24.623,18.7364 -19.3572,0.2083 -23.3175,-7.2963 -29.7481,-24.6446 h -2.6055 c 0.039,5.2991 0.3733,13.8895 1.0274,20.7305 0.5055,0.9181 11.571,8.1448 30.3535,8.1348 15.1816,0 22.1075,-2.4534 28.3086,-7.711 2.2709,-1.9608 7.1906,-7.0032 9.0977,-13.3418 -0.088,8.0758 -0.2051,19.2031 -0.2051,19.2031 20.7331,-0.4444 42.0871,0.4032 62.7226,-0.061 -1.5961,-6.8707 1.0358,-14.3168 1.0078,-21.959 0,0 -2.8053,-0.1421 -3.5644,0.2676 -1.2696,7.3287 -4.7556,13.4894 -12.0879,15.7227 -12.0336,3.6651 -30.0042,0.2886 -32.8066,0.3046 -4.4676,-2.8995 -2.2149,-32.2957 -2.4004,-37.6425 0,-0.8105 0.3082,-1.2168 0.9238,-1.2168 0.2366,0 10.008,-0.3696 21.2266,-0.1895 6.5268,-0.1592 8.6169,6.3023 8.7304,11.3926 l 2.7383,0.014 0.016,-27.0489 c -2.3343,0 -2.8144,-0.053 -2.8144,-0.053 -0.7596,8.0491 -4.1867,10.5361 -8.6699,10.5801 l -21.2696,0.1367 c -0.8049,0.01 -1.0234,-0.1427 -1.0234,-1.043 0,-21.7893 0.1955,-36.4539 0.3848,-36.9941 0.2366,-0.5403 0.639,-0.8106 1.207,-0.8106 17.1829,0.1801 27.0264,0.7207 32.3281,1.6211 3.7868,0.6752 7.6019,5.6353 8.7383,15.8672 l 3.2969,-0.047 c 0.179,-7.5921 -0.4148,-12.8378 0.2656,-17.7968 11.2638,0.7244 9.9482,0.2896 10.6094,14.0234 0,0 -0.7792,47.2863 0.082,68.4609 -0.072,5.8646 -0.037,6.1954 -0.037,6.1954 0,0 24.7404,0.092 28.6367,0.092 8.3963,0 14.6789,-0.2704 18.8496,-0.8106 4.5457,-0.6073 8.8105,-1.8677 12.7363,-3.4883 2.2226,1.2329 4.4109,2.2335 6.3536,2.8692 4.7955,1.5705 7.0029,2.7246 15.2304,2.7246 9.68522,0 18.68642,0.3389 26.03722,-1.5117 8.1336,-2.782 10.8464,-1.9655 15.7207,-5.4258 0.3294,-0.359 0.2254,-6.7251 -0.01,-7.1289 0.2978,-5.3743 -0.2707,-5.4147 1.1114,-13.0742 -0.1411,-0.4036 -2.7846,-0.041 -2.9727,-0.041 -0.9381,1.8009 -3.2126,9.3732 -4.9082,11.3653 -2.3507,3.4551 -4.2026,6.3815 -8.998,8.5351 -4.7955,2.1088 -11.477,3.041 -16.6016,3.041 -6.91122,0 -12.41172,-0.6284 -16.50202,-1.8847 -2.2706,-0.6926 -4.255,-2.0034 -6.2266,-3.625 13.8671,-8.4322 20.83822,-21.8565 21.54312,-37.4688 -10e-5,-12.9023 -6.94122,-24.4704 -15.34782,-33.2324 -1.8704,-1.8338 -3.2489,-3.08 -4.5429,-4.1504 5.5101,-3.003 11.8936,-4.7461 19.49222,-4.7461 9.732,0 12.4755,0.5731 17.459,2.9512 5.6186,3.7184 9.499,9.6317 11.6113,16.6152 l 2.6934,0.045 c -0.6901,-7.6988 -0.6688,-10.9864 -0.3731,-18.9433 -8.3005,-3.1918 -16.0524,-4.9344 -25.1523,-5.1426 -11.99882,0 -22.80552,1.542 -31.51962,5.209 -1.5347,-0.7105 -3.6896,-1.5649 -6.5449,-2.5801 -4.9389,-1.756 -11.6329,-2.6328 -20.084,-2.6328 h -50.8711 c -0.2147,0 -0.387,0.026 -0.5371,0.066 l -72.8125,-0.4004 c -5.0336,-1.2799 -11.122,-1.3144 -16.666,-1.3144 z m -1.3828,3.8476 c 5.3725,0.06 11.5759,0.9519 15.9375,4.0801 4.9847,3.5751 8.0929,9.4992 9.0058,16.0508 h 3.8301 c -0.1323,-3.8681 0.2628,-13.2464 0.4102,-18.7754 2.7955,0.6588 6.6201,2.7991 6.3476,8.8672 0.078,12.3534 -0.071,32.8788 -0.2383,50.5215 -1.3675,-5.5585 -4.6091,-8.7112 -7.9492,-11.9395 -5.8453,-5.4995 -18.4313,-10.0054 -26.5332,-12.8125 -8.7909,-3.0091 -19.7741,-6.2767 -20.3867,-17.3242 -0.6126,-11.0475 11.5275,-18.4759 17.334,-18.6465 0.7258,-0.021 1.4747,-0.03 2.2422,-0.022 z m 127.2871,2.1231 c 7.2986,0 12.2845,-0.032 19.1504,1.0097 6.1394,1.1829 9.8933,2.0802 14.2363,4.4571 -5.9871,4.3328 -9.9631,9.8162 -13.1484,15.6562 -4.4193,8.1661 -6.1744,13.112 -6.2364,24.4317 -0.059,10.8136 6.0474,24.2155 13.7578,31.3496 1.1192,1.0465 2.3481,2.0658 3.6348,3.0351 -4.2993,1.9785 -9.2558,3.2637 -14.8848,3.2637 -10.4267,0 -19.2838,0.156 -23.6191,-0.5195 -1.756,-0.2701 -2.082,-6.1366 -2.082,-17.8438 0,-15.0392 -0.2455,-39.2111 -0.1328,-54.25 -0.048,-9.4767 2.6371,-10.5998 9.3242,-10.5898 z m 39.9746,10.1035 c 8.1329,8.3615 15.1883,16.1638 14.834,32.1816 -4e-4,12.5117 -6.1171,24.0877 -12.0801,29.8184 -0.8687,0.8348 -1.8047,1.6589 -2.791,2.4629 -0.1371,-0.1214 -0.2575,-0.2379 -0.3965,-0.3594 -8.8387,-7.7175 -13.75,-18.1723 -13.75,-31.8574 0,-12.4736 3.5689,-21.8771 11.9375,-30.1778 0.729,-0.7178 1.481,-1.4028 2.2461,-2.0683 z"
         style="font-style:normal;font-variant:normal;font-weight:normal;font-stretch:normal;font-size:192px;line-height:125%;font-family:'Californian FB';-inkscape-font-specification:'Californian FB';letter-spacing:0px;word-spacing:0px;opacity:0.28999999;fill:#4d4d4d;fill-opacity:1;stroke:none;stroke-width:0.81208533px;stroke-linecap:butt;stroke-linejoin:miter;stroke-opacity:1;filter:url(#filter22161)"
         inkscape:connector-curvature="0" />
      <path
         id="path22092-6-5"
         d="m -1189.0449,3714.5101 c -9.3839,0 -15.8668,1.5993 -21.6289,5.8242 -7.5731,5.4923 -9.7298,11.8817 -9.6192,19.8613 0.2482,12.9367 11.9343,20.1098 23.543,24 8.7254,2.6757 19.5189,7.6537 23.0312,10.752 3.1279,2.7696 6.6602,8.969 6.6602,12.8183 -0.1782,12.6434 -12.5949,18.7234 -24.623,18.7364 -19.3572,0.2083 -23.3175,-7.2963 -29.7481,-24.6446 h -2.6055 c 0.039,5.2991 0.3733,13.8895 1.0274,20.7305 0.5055,0.9181 11.571,8.1448 30.3535,8.1348 15.1816,0 22.1075,-2.4534 28.3086,-7.711 2.2709,-1.9608 7.1906,-7.0032 9.0977,-13.3418 -0.088,8.0758 -0.2051,19.2031 -0.2051,19.2031 20.7331,-0.4444 42.0871,0.4032 62.7226,-0.061 -1.5961,-6.8707 1.0358,-14.3168 1.0078,-21.959 0,0 -2.8053,-0.1421 -3.5644,0.2676 -1.2696,7.3287 -4.7556,13.4894 -12.0879,15.7227 -12.0336,3.6651 -30.0042,0.2886 -32.8066,0.3046 -4.4676,-2.8995 -2.2149,-32.2957 -2.4004,-37.6425 0,-0.8105 0.3082,-1.2168 0.9238,-1.2168 0.2366,0 10.008,-0.3696 21.2266,-0.1895 6.5268,-0.1592 8.6169,6.3023 8.7304,11.3926 l 2.7383,0.014 0.016,-27.0489 c -2.3343,0 -2.8144,-0.053 -2.8144,-0.053 -0.7596,8.0491 -4.1867,10.5361 -8.6699,10.5801 l -21.2696,0.1367 c -0.8049,0.01 -1.0234,-0.1427 -1.0234,-1.043 0,-21.7893 0.1955,-36.4539 0.3848,-36.9941 0.2366,-0.5403 0.639,-0.8106 1.207,-0.8106 17.1829,0.1801 27.0264,0.7207 32.3281,1.6211 3.7868,0.6752 7.6019,5.6353 8.7383,15.8672 l 3.2969,-0.047 c 0.179,-7.5921 -0.4148,-12.8378 0.2656,-17.7968 11.2638,0.7244 9.9482,0.2896 10.6094,14.0234 0,0 -0.7792,47.2863 0.082,68.4609 -0.072,5.8646 -0.037,6.1954 -0.037,6.1954 0,0 24.7404,0.092 28.6367,0.092 8.3963,0 14.6789,-0.2704 18.8496,-0.8106 4.5457,-0.6073 8.8105,-1.8677 12.7363,-3.4883 2.2226,1.2329 4.4109,2.2335 6.3536,2.8692 4.7955,1.5705 7.0029,2.7246 15.2304,2.7246 9.68522,0 18.68642,0.3389 26.03722,-1.5117 8.1336,-2.782 10.8464,-1.9655 15.7207,-5.4258 0.3294,-0.359 0.2254,-6.7251 -0.01,-7.1289 0.2978,-5.3743 -0.2707,-5.4147 1.1114,-13.0742 -0.1411,-0.4036 -2.7846,-0.041 -2.9727,-0.041 -0.9381,1.8009 -3.2126,9.3732 -4.9082,11.3653 -2.3507,3.4551 -4.2026,6.3815 -8.998,8.5351 -4.7955,2.1088 -11.477,3.041 -16.6016,3.041 -6.91122,0 -12.41172,-0.6284 -16.50202,-1.8847 -2.2706,-0.6926 -4.255,-2.0034 -6.2266,-3.625 13.8671,-8.4322 20.83822,-21.8565 21.54312,-37.4688 -10e-5,-12.9023 -6.94122,-24.4704 -15.34782,-33.2324 -1.8704,-1.8338 -3.2489,-3.08 -4.5429,-4.1504 5.5101,-3.003 11.8936,-4.7461 19.49222,-4.7461 9.732,0 12.4755,0.5731 17.459,2.9512 5.6186,3.7184 9.499,9.6317 11.6113,16.6152 l 2.6934,0.045 c -0.6901,-7.6988 -0.6688,-10.9864 -0.3731,-18.9433 -8.3005,-3.1918 -16.0524,-4.9344 -25.1523,-5.1426 -11.99882,0 -22.80552,1.542 -31.51962,5.209 -1.5347,-0.7105 -3.6896,-1.5649 -6.5449,-2.5801 -4.9389,-1.756 -11.6329,-2.6328 -20.084,-2.6328 h -50.8711 c -0.2147,0 -0.387,0.026 -0.5371,0.066 l -72.8125,-0.4004 c -5.0336,-1.2799 -11.122,-1.3144 -16.666,-1.3144 z m -1.3828,3.8476 c 5.3725,0.06 11.5759,0.9519 15.9375,4.0801 4.9847,3.5751 8.0929,9.4992 9.0058,16.0508 h 3.8301 c -0.1323,-3.8681 0.2628,-13.2464 0.4102,-18.7754 2.7955,0.6588 6.6201,2.7991 6.3476,8.8672 0.078,12.3534 -0.071,32.8788 -0.2383,50.5215 -1.3675,-5.5585 -4.6091,-8.7112 -7.9492,-11.9395 -5.8453,-5.4995 -18.4313,-10.0054 -26.5332,-12.8125 -8.7909,-3.0091 -19.7741,-6.2767 -20.3867,-17.3242 -0.6126,-11.0475 11.5275,-18.4759 17.334,-18.6465 0.7258,-0.021 1.4747,-0.03 2.2422,-0.022 z m 127.2871,2.1231 c 7.2986,0 12.2845,-0.032 19.1504,1.0097 6.1394,1.1829 9.8933,2.0802 14.2363,4.4571 -5.9871,4.3328 -9.9631,9.8162 -13.1484,15.6562 -4.4193,8.1661 -6.1744,13.112 -6.2364,24.4317 -0.059,10.8136 6.0474,24.2155 13.7578,31.3496 1.1192,1.0465 2.3481,2.0658 3.6348,3.0351 -4.2993,1.9785 -9.2558,3.2637 -14.8848,3.2637 -10.4267,0 -19.2838,0.156 -23.6191,-0.5195 -1.756,-0.2701 -2.082,-6.1366 -2.082,-17.8438 0,-15.0392 -0.2455,-39.2111 -0.1328,-54.25 -0.048,-9.4767 2.6371,-10.5998 9.3242,-10.5898 z m 39.9746,10.1035 c 8.1329,8.3615 15.1883,16.1638 14.834,32.1816 -4e-4,12.5117 -6.1171,24.0877 -12.0801,29.8184 -0.8687,0.8348 -1.8047,1.6589 -2.791,2.4629 -0.1371,-0.1214 -0.2575,-0.2379 -0.3965,-0.3594 -8.8387,-7.7175 -13.75,-18.1723 -13.75,-31.8574 0,-12.4736 3.5689,-21.8771 11.9375,-30.1778 0.729,-0.7178 1.481,-1.4028 2.2461,-2.0683 z"
         style="font-style:normal;font-variant:normal;font-weight:normal;font-stretch:normal;font-size:192px;line-height:125%;font-family:'Californian FB';-inkscape-font-specification:'Californian FB';letter-spacing:0px;word-spacing:0px;opacity:0.28999999;fill:#4d4d4d;fill-opacity:1;stroke:none;stroke-width:0.81208533px;stroke-linecap:butt;stroke-linejoin:miter;stroke-opacity:1"
         inkscape:connector-curvature="0" />
      <g
         transform="translate(2.7063713,112.66789)"
         id="text22090"
         style="font-style:normal;font-variant:normal;font-weight:normal;font-stretch:normal;font-size:192px;line-height:125%;font-family:Roboto;-inkscape-font-specification:Roboto;letter-spacing:0px;word-spacing:0px;opacity:1;fill:#4d4d4d;fill-opacity:1;stroke:none;stroke-width:1px;stroke-linecap:butt;stroke-linejoin:miter;stroke-opacity:1"
         aria-label="SEDC">
        <path
           inkscape:connector-curvature="0"
           id="path22092"
           transform="translate(-2.7063713,-113.66759)"
           d="m -1189.0449,3715.5098 c -9.3839,0 -15.8668,1.5993 -21.6289,5.8242 -7.5731,5.4923 -9.7298,11.8817 -9.6192,19.8613 0.2482,12.9367 11.9343,20.1098 23.543,24 8.7254,2.6757 19.5189,7.6537 23.0312,10.752 3.1279,2.7696 6.6602,8.969 6.6602,12.8183 -0.1782,12.6434 -12.5949,18.7234 -24.623,18.7364 -19.3572,0.2083 -23.3175,-7.2963 -29.7481,-24.6446 h -2.6055 c 0.039,5.2991 0.3733,13.8895 1.0274,20.7305 0.5055,0.9181 11.571,8.1448 30.3535,8.1348 15.1816,0 22.1075,-2.4534 28.3086,-7.711 2.2709,-1.9608 7.1906,-7.0032 9.0977,-13.3418 -0.088,8.0758 -0.2051,19.2031 -0.2051,19.2031 20.7331,-0.4444 42.0871,0.4032 62.7226,-0.061 -1.5961,-6.8707 1.0358,-14.3168 1.0078,-21.959 0,0 -2.8053,-0.1421 -3.5644,0.2676 -1.2696,7.3287 -4.7556,13.4894 -12.0879,15.7227 -12.0336,3.6651 -30.0042,0.2886 -32.8066,0.3046 -4.4676,-2.8995 -2.2149,-32.2957 -2.4004,-37.6425 0,-0.8105 0.3082,-1.2168 0.9238,-1.2168 0.2366,0 10.008,-0.3696 21.2266,-0.1895 6.5268,-0.1592 8.6169,6.3023 8.7304,11.3926 l 2.7383,0.014 0.016,-27.0489 c -2.3343,0 -2.8144,-0.053 -2.8144,-0.053 -0.7596,8.0491 -4.1867,10.5361 -8.6699,10.5801 l -21.2696,0.1367 c -0.8049,0.01 -1.0234,-0.1427 -1.0234,-1.043 0,-21.7893 0.1955,-36.4539 0.3848,-36.9941 0.2366,-0.5403 0.639,-0.8106 1.207,-0.8106 17.1829,0.1801 27.0264,0.7207 32.3281,1.6211 3.7868,0.6752 7.6019,5.6353 8.7383,15.8672 l 3.2969,-0.047 c 0.179,-7.5921 -0.4148,-12.8378 0.2656,-17.7968 11.2638,0.7244 9.9482,0.2896 10.6094,14.0234 0,0 -0.7792,47.2863 0.082,68.4609 -0.072,5.8646 -0.037,6.1954 -0.037,6.1954 0,0 24.7404,0.092 28.6367,0.092 8.3963,0 14.6789,-0.2704 18.8496,-0.8106 4.5457,-0.6073 8.8105,-1.8677 12.7363,-3.4883 2.2226,1.2329 4.4109,2.2335 6.3536,2.8692 4.7955,1.5705 7.0029,2.7246 15.2304,2.7246 9.68508,0 18.68631,0.3389 26.03714,-1.5117 8.13351,-2.782 10.84632,-1.9655 15.7207,-5.4258 0.32937,-0.359 0.22532,-6.7251 -0.01,-7.1289 0.29773,-5.3743 -0.27079,-5.4147 1.11133,-13.0742 -0.14105,-0.4036 -2.78459,-0.041 -2.97266,-0.041 -0.93807,1.8009 -3.21265,9.3732 -4.9082,11.3653 -2.35073,3.4551 -4.20257,6.3815 -8.99805,8.5351 -4.79548,2.1088 -11.47696,3.041 -16.60156,3.041 -6.9111,0 -12.4116,-0.6284 -16.5019,-1.8847 -2.2706,-0.6926 -4.255,-2.0034 -6.2266,-3.625 13.8671,-8.4322 20.83811,-21.8565 21.54295,-37.4688 -9e-5,-12.9023 -6.94105,-24.4704 -15.34765,-33.2324 -1.8704,-1.8338 -3.2489,-3.08 -4.5429,-4.1504 5.5101,-3.003 11.8936,-4.7461 19.49211,-4.7461 9.73201,0 12.47544,0.5731 17.45899,2.9512 5.61857,3.7184 9.49898,9.6317 11.61133,16.6152 l 2.69335,0.045 c -0.6901,-7.6988 -0.66879,-10.9864 -0.37304,-18.9433 -8.30051,-3.1918 -16.05249,-4.9344 -25.15235,-5.1426 -11.99869,0 -22.80539,1.542 -31.51949,5.209 -1.5347,-0.7105 -3.6896,-1.5649 -6.5449,-2.5801 -4.9389,-1.756 -11.6329,-2.6328 -20.084,-2.6328 h -50.8711 c -0.2147,0 -0.387,0.026 -0.5371,0.066 l -72.8125,-0.4004 c -5.0336,-1.2799 -11.122,-1.3144 -16.666,-1.3144 z m -1.3828,3.8476 c 5.3725,0.06 11.5759,0.9519 15.9375,4.0801 4.9847,3.5751 8.0929,9.4992 9.0058,16.0508 h 3.8301 c -0.1323,-3.8681 0.2628,-13.2464 0.4102,-18.7754 2.7955,0.6588 6.6201,2.7991 6.3476,8.8672 0.078,12.3534 -0.071,32.8788 -0.2383,50.5215 -1.3675,-5.5585 -4.6091,-8.7112 -7.9492,-11.9395 -5.8453,-5.4995 -18.4313,-10.0054 -26.5332,-12.8125 -8.7909,-3.0091 -19.7741,-6.2767 -20.3867,-17.3242 -0.6126,-11.0475 11.5275,-18.4759 17.334,-18.6465 0.7258,-0.021 1.4747,-0.03 2.2422,-0.022 z m 127.2871,2.1231 c 7.2986,0 12.2845,-0.032 19.1504,1.0097 6.1394,1.1829 9.8933,2.0802 14.2363,4.4571 -5.9871,4.3328 -9.9631,9.8162 -13.1484,15.6562 -4.4193,8.1661 -6.1744,13.112 -6.2364,24.4317 -0.059,10.8136 6.0474,24.2155 13.7578,31.3496 1.1192,1.0465 2.3481,2.0658 3.6348,3.0351 -4.2993,1.9785 -9.2558,3.2637 -14.8848,3.2637 -10.4267,0 -19.2838,0.156 -23.6191,-0.5195 -1.756,-0.2701 -2.082,-6.1366 -2.082,-17.8438 0,-15.0392 -0.2455,-39.2111 -0.1328,-54.25 -0.048,-9.4767 2.6371,-10.5998 9.3242,-10.5898 z m 39.9746,10.1035 c 8.1329,8.3615 15.1883,16.1638 14.834,32.1816 -4e-4,12.5117 -6.1171,24.0877 -12.0801,29.8184 -0.8687,0.8348 -1.8047,1.6589 -2.791,2.4629 -0.1371,-0.1214 -0.2575,-0.2379 -0.3965,-0.3594 -8.8387,-7.7175 -13.75,-18.1723 -13.75,-31.8574 0,-12.4736 3.5689,-21.8771 11.9375,-30.1778 0.729,-0.7178 1.481,-1.4028 2.2461,-2.0683 z"
           style="font-style:normal;font-variant:normal;font-weight:normal;font-stretch:normal;font-family:'Californian FB';-inkscape-font-specification:'Californian FB';opacity:1;fill:#4d4d4d;fill-opacity:1;stroke-width:0.81208533px" />
      </g>
      <g
         transform="translate(2.70639,112.6687)"
         id="text22090-1"
         style="font-style:normal;font-variant:normal;font-weight:normal;font-stretch:normal;font-size:192px;line-height:125%;font-family:Roboto;-inkscape-font-specification:Roboto;letter-spacing:0px;word-spacing:0px;opacity:1;fill:#4d4d4d;fill-opacity:1;stroke:none;stroke-width:1px;stroke-linecap:butt;stroke-linejoin:miter;stroke-opacity:1"
         aria-label="SEDC">
        <path
           inkscape:connector-curvature="0"
           id="path22092-2"
           d="m -1191.9511,3601.9405 v 0 c -9.3839,0 -15.8668,1.5993 -21.6289,5.8242 -1.9097,1.385 -3.4729,2.8258 -4.7442,4.3359 1.0914,-1.1498 2.3604,-2.262 3.8438,-3.3378 5.7621,-4.2249 12.245,-5.8243 21.6289,-5.8243 5.544,0 11.6324,0.035 16.666,1.3145 l 72.8125,0.4004 c 0.1501,-0.04 0.3224,-0.066 0.5371,-0.066 h 50.8711 c 8.4511,0 15.1451,0.8768 20.084,2.6328 2.8553,1.0152 5.0102,1.8696 6.5449,2.5801 8.7141,-3.667 19.5208,-5.209 31.51956,-5.209 9.0999,0.2082 16.8519,1.9508 25.1524,5.1426 -0.281,7.5605 -0.2945,11.0105 0.2949,17.9297 l 0.9785,0.016 c -0.6901,-7.6988 -0.6688,-10.9865 -0.373,-18.9434 -8.3005,-3.1918 -16.0525,-4.9344 -25.1524,-5.1426 -11.99876,0 -22.80546,1.542 -31.51956,5.209 -1.5347,-0.7105 -3.6896,-1.5649 -6.5449,-2.5801 -4.9389,-1.756 -11.6329,-2.6328 -20.084,-2.6328 h -50.8711 c -0.2147,0 -0.387,0.024 -0.5371,0.064 l -72.8125,-0.4004 c -5.0336,-1.2799 -11.122,-1.3145 -16.666,-1.3145 z m 26.9004,6.2032 c -0.1377,5.1647 -0.4759,13.5238 -0.4141,17.7773 h 0.9043 c -0.124,-3.6258 0.2067,-11.9212 0.3711,-17.5215 -0.2924,-0.097 -0.5842,-0.1905 -0.8613,-0.2558 z m 64.7402,0.205 c -0.6497,4.7355 -0.1456,9.7568 -0.2539,16.8086 l 0.8887,-0.012 c 0.1664,-7.0598 -0.3217,-12.086 0.1542,-16.7441 -0.2852,-0.018 -0.4858,-0.033 -0.789,-0.053 z m -44.9551,0.3965 c -0.3963,0.089 -0.6931,0.3409 -0.8809,0.7696 -0.1893,0.5402 -0.3847,15.2048 -0.3847,36.9941 0,0.9003 0.2185,1.053 1.0234,1.043 l 21.2696,-0.1367 c 2.5186,-0.025 4.7052,-0.8197 6.2714,-2.9395 -1.461,1.3687 -3.3013,1.9191 -5.3711,1.9395 l -21.2695,0.1367 c -0.8049,0.01 -1.0234,-0.1427 -1.0234,-1.043 0,-21.052 0.1821,-35.326 0.3652,-36.7637 z m 71.4063,1.6797 c -1.6883,1.4079 -2.4375,4.0684 -2.4122,9.0762 -0.1126,15.0389 0.1329,39.2108 0.1329,54.25 0,11.7072 0.326,17.5736 2.082,17.8437 4.3353,0.6755 13.1924,0.5196 23.6191,0.5196 5.629,0 10.5855,-1.2852 14.8848,-3.2637 -0.1708,-0.1287 -0.3313,-0.2641 -0.5,-0.3945 -3.9664,1.6295 -8.4554,2.6601 -13.4844,2.6601 -10.4267,0 -19.2838,0.156 -23.6191,-0.5195 -1.756,-0.2701 -2.082,-6.1366 -2.082,-17.8438 0,-15.0392 -0.2456,-39.2111 -0.1329,-54.25 -0.02,-4.01 0.4572,-6.5125 1.5118,-8.0781 z m 55.6074,2.7344 c -0.4336,0.2155 -0.8719,0.4237 -1.2949,0.6543 1.294,1.0704 2.6725,2.3166 4.5429,4.1504 8.4066,8.762 15.34766,20.3301 15.34776,33.2324 -0.48266,10.6903 -3.90606,20.3535 -10.46686,28.0918 7.1382,-7.9 10.86336,-17.9293 11.36726,-29.0898 -1e-4,-12.9023 -6.94116,-24.4705 -15.34776,-33.2325 -1.6908,-1.6577 -2.9606,-2.805 -4.1484,-3.8066 z m -190.5039,0.051 c -3.0836,3.1592 -5.3266,7.3429 -5.0547,12.2461 0.6126,11.0475 11.5958,14.3151 20.3867,17.3242 8.1019,2.8071 20.6879,7.313 26.5332,12.8125 3.3401,3.2283 6.5817,6.3809 7.9492,11.9394 0.011,-1.1901 0.018,-2.4627 0.029,-3.6757 -1.6232,-3.9705 -4.3156,-6.5917 -7.0781,-9.2618 -5.8453,-5.4995 -18.4313,-10.0054 -26.5332,-12.8125 -8.7909,-3.0091 -19.7741,-6.2767 -20.3867,-17.3242 -0.2444,-4.4061 1.5523,-8.2241 4.1543,-11.248 z m 174.9648,1.0508 c -2.0113,1.5732 -3.7928,3.2761 -5.3808,5.0859 1.6608,-1.7734 3.5062,-3.4453 5.6113,-4.9688 -0.078,-0.043 -0.1531,-0.076 -0.2305,-0.1171 z m 3.3203,8.121 c -7.4685,7.9848 -10.6855,17.0502 -10.6855,28.879 0,13.6851 4.9113,24.1399 13.75,31.8574 0.139,0.1215 0.2594,0.238 0.3965,0.3593 0.9863,-0.8039 1.9223,-1.628 2.791,-2.4628 0.5926,-0.5696 1.1859,-1.2105 1.7754,-1.8907 -0.2913,0.3073 -0.5838,0.6127 -0.875,0.8926 -0.8687,0.8348 -1.8047,1.6589 -2.791,2.4629 -0.1371,-0.1214 -0.2575,-0.2379 -0.3965,-0.3594 -8.8387,-7.7175 -13.75,-18.1723 -13.75,-31.8574 0,-11.3389 2.9623,-20.138 9.7851,-27.8809 z m -84.1972,13.4532 c -0.034,0.3583 -0.079,0.6927 -0.1231,1.0293 0.4253,0.012 0.9949,0.023 2.0371,0.023 l -0.016,26.0449 0.9004,0.01 0.016,-27.0488 c -2.3343,0 -2.8144,-0.055 -2.8144,-0.055 z m -30.7969,16.8847 c -0.6156,0 -0.9238,0.4063 -0.9238,1.2168 0.1855,5.3468 -2.0672,34.7431 2.4004,37.6426 2.8024,-0.016 20.773,3.3604 32.8066,-0.3047 3.2241,-0.982 5.7028,-2.7241 7.5781,-4.9902 -1.7483,1.7799 -3.9457,3.1581 -6.6777,3.9902 -12.0336,3.6651 -30.0043,0.2887 -32.8067,0.3047 -4.4676,-2.8995 -2.2148,-32.2958 -2.4003,-37.6426 0,-0.083 0.017,-0.1425 0.023,-0.2168 z m -81.4766,16.5704 c 0,0.293 0.016,0.6857 0.02,0.998 h 1.6855 c 6.4306,17.3483 10.3909,24.8528 29.7481,24.6445 7.9942,-0.01 16.1547,-2.7004 20.7851,-8.2148 -4.7414,4.8419 -12.3881,7.2087 -19.8848,7.2168 -19.3572,0.2083 -23.3174,-7.2962 -29.748,-24.6445 z m 262.35356,0.8085 c -0.8118,-0.068 -2.3335,0.1368 -2.4746,0.1368 -0.1203,0.231 -0.2635,0.5599 -0.4238,0.957 0.7083,-0.073 2.3774,-0.2576 2.4961,0.082 -1.3821,7.6595 -0.8136,7.6999 -1.1113,13.0742 0.2032,0.3488 0.3063,5.1295 0.1191,6.6622 0.2584,-0.167 0.5206,-0.3413 0.791,-0.5333 0.3294,-0.3589 0.2256,-6.7251 -0.01,-7.1289 0.2977,-5.3743 -0.2708,-5.4127 1.1113,-13.0722 -0.035,-0.1009 -0.2275,-0.155 -0.4981,-0.1778 z m -131.53906,4.1661 c -0.7962,0.016 -1.6869,0.082 -2.0664,0.2871 -0.047,0.272 -0.103,0.5399 -0.1563,0.8086 1.1109,-0.1588 2.8203,-0.076 2.8203,-0.076 0.027,7.2798 -2.3524,14.3805 -1.1992,20.9766 0.3629,-0.01 0.7293,-0.01 1.0918,-0.018 -1.5961,-6.8707 1.0358,-14.3168 1.0078,-21.959 0,0 -0.7018,-0.035 -1.498,-0.019 z m -62.9278,3.8359 c -1.1812,3.9263 -3.5184,7.3521 -5.666,9.8594 1.9165,-2.0727 4.1496,-4.9669 5.6504,-8.3926 0.01,-0.6462 0.01,-0.8499 0.016,-1.4668 z m 183.34386,8.4062 c -1.3288,1.369 -2.9476,2.5915 -5.2578,3.629 -4.7955,2.1088 -11.477,3.041 -16.6016,3.041 -6.91116,0 -12.41166,-0.6285 -16.50196,-1.8848 -2.1601,-0.6589 -4.0601,-1.8872 -5.9375,-3.4004 -0.3972,0.2574 -0.7804,0.5247 -1.1895,0.7735 1.9716,1.6216 3.956,2.9324 6.2266,3.625 4.0903,1.2563 9.5908,1.8847 16.50196,1.8847 5.1246,0 11.8061,-0.9322 16.6016,-3.041 2.8581,-1.2835 4.6625,-2.8461 6.1582,-4.627 z"
           style="font-style:normal;font-variant:normal;font-weight:normal;font-stretch:normal;font-family:'Californian FB';-inkscape-font-specification:'Californian FB';opacity:1;fill:#4d4d4d;fill-opacity:1;stroke-width:0.81208533px;filter:url(#filter7278)" />
      </g>
      <g
         transform="translate(-306.87189,48.817703)"
         id="text22090-4"
         style="font-style:normal;font-variant:normal;font-weight:normal;font-stretch:normal;font-size:192px;line-height:125%;font-family:Roboto;-inkscape-font-specification:Roboto;letter-spacing:0px;word-spacing:0px;opacity:1;fill:#4d4d4d;fill-opacity:1;stroke:none;stroke-width:1px;stroke-linecap:butt;stroke-linejoin:miter;stroke-opacity:1"
         aria-label="SEDC">
        <path
           inkscape:connector-curvature="0"
           id="path22092-4"
           d="m -882.71647,3669.432 c -0.7675,-0.01 -1.5164,5e-4 -2.2422,0.021 -1.936,0.057 -4.5761,0.937 -7.2129,2.4727 2.398,-1.2895 4.7477,-2.0205 6.5118,-2.0723 0.7258,-0.021 1.4746,-0.03 2.2421,-0.021 5.3725,0.06 11.5759,0.9519 15.9375,4.0801 4.9847,3.5751 8.093,9.4992 9.0059,16.0508 h 3.8301 c -0.004,-0.1022 8e-4,-0.2907 -0.002,-0.4004 h -3.1269 c -0.9129,-6.5516 -4.0212,-12.4757 -9.0059,-16.0508 -4.3616,-3.1282 -10.565,-4.0201 -15.9375,-4.0801 z m -18.0898,0.5391 c -0.9763,0.5492 -1.9279,1.1563 -2.8575,1.8379 -7.5731,5.4923 -9.7297,11.8817 -9.6191,19.8613 0.2482,12.9367 11.9343,20.1098 23.543,24 8.7254,2.6757 19.5189,7.6537 23.0312,10.752 3.1279,2.7696 6.6602,8.969 6.6602,12.8183 -0.0972,6.8917 -3.8434,11.8168 -9.168,14.8887 5.6984,-3.0358 9.7678,-8.0962 9.8692,-15.2891 0,-3.8493 -3.5323,-10.0487 -6.6602,-12.8183 -3.5123,-3.0983 -14.3059,-8.0763 -23.0313,-10.752 -11.6087,-3.8902 -23.2947,-11.0633 -23.5429,-24 -0.1106,-7.9796 2.046,-14.369 9.6191,-19.8613 0.707,-0.5184 1.4235,-0.9963 2.1563,-1.4375 z m 46.1739,0.8164 c -0.004,0.1661 -0.0147,0.4287 -0.0195,0.6016 2.6959,0.8352 7.0166,3.074 6.7655,8.666 0.0743,11.7667 -0.0615,30.8917 -0.2188,47.9336 0.2589,0.6884 0.491,1.4122 0.6817,2.1875 0.1673,-17.6427 0.3163,-38.1681 0.2383,-50.5215 0.2725,-6.0681 -4.6517,-8.2084 -7.4472,-8.8672 z m 64.83965,0.2051 c -0.0201,0.147 -0.0288,0.2977 -0.0468,0.4453 10.4699,0.6651 10.30865,0.5514 10.95505,13.9785 0,0 -0.7791,47.2863 0.0821,68.4609 -0.072,5.8646 -0.0371,6.1953 -0.0371,6.1953 0,0 24.7404,0.092 28.6367,0.092 8.3963,0 14.6789,-0.2703 18.8496,-0.8105 4.5457,-0.6073 8.8105,-1.8677 12.7363,-3.4883 2.2226,1.2329 4.4108,2.2335 6.3535,2.8692 4.7955,1.5705 7.003,2.7246 15.2305,2.7246 9.6851,0 18.6863,0.3388 26.0371,-1.5118 7.3539,-2.5153 10.2815,-2.0999 14.377,-4.5527 -3.7492,2.0164 -6.7463,1.7822 -13.6758,4.1524 -7.3508,1.8506 -16.352,1.5117 -26.0371,1.5117 -8.2275,0 -10.435,-1.1541 -15.2305,-2.7246 -1.9427,-0.6357 -4.1309,-1.6363 -6.3535,-2.8692 -3.9258,1.6206 -8.1906,2.881 -12.7363,3.4883 -4.1707,0.5402 -10.4533,0.8106 -18.8496,0.8106 -3.8963,0 -28.6368,-0.092 -28.6368,-0.092 0,0 -0.0349,-0.3308 0.0371,-6.1954 -0.8612,-21.1746 -0.082,-68.4609 -0.082,-68.4609 -0.6612,-13.7338 -0.3457,-13.299 -11.60945,-14.0234 z m -44.3292,0.3554 c -0.4153,0 -0.7403,0.1466 -0.9785,0.4356 0.0896,-0.017 0.1776,-0.035 0.2774,-0.035 17.1829,0.1801 27.72675,0.7207 33.02845,1.6211 3.7868,0.6752 7.6019,5.6353 8.7383,15.8672 l 3.2968,-0.047 c 0.003,-0.1352 0.003,-0.2569 0.006,-0.3906 l -2.6016,0.037 c -1.1364,-10.2319 -4.9514,-15.192 -8.7382,-15.8672 -5.3017,-0.9004 -15.84565,-1.441 -33.02855,-1.6211 z m 78.69255,0.2071 c -2.9219,0 -5.0804,0.2076 -6.5801,1.2383 1.4467,-0.6867 3.3841,-0.8417 5.8789,-0.8379 7.2987,0 12.2845,-0.032 19.1504,1.0097 6.1394,1.1829 9.8934,2.0802 14.2364,4.4571 -5.9871,4.3328 -9.9632,9.8162 -13.1485,15.6562 -4.4193,8.1661 -6.1743,13.1119 -6.2363,24.4316 -0.059,10.8136 6.0474,24.2156 13.7578,31.3497 1.0952,1.024 2.298,2.02 3.5547,2.9707 0.2598,-0.1125 0.5261,-0.2185 0.7813,-0.336 -1.2867,-0.9693 -2.5156,-1.9886 -3.6348,-3.0351 -7.7104,-7.1341 -13.8168,-20.536 -13.7578,-31.3496 0.062,-11.3197 1.817,-16.2656 6.2363,-24.4317 3.1853,-5.84 7.1613,-11.3234 13.1484,-15.6562 -4.343,-2.3769 -8.0969,-3.2742 -14.2363,-4.4571 -6.8659,-1.0417 -11.8518,-1.0097 -19.1504,-1.0097 z m 66.8926,0.1562 c -7.5985,0 -13.9821,1.7431 -19.4922,4.7461 0.0105,0.01 0.0227,0.021 0.0332,0.029 5.3435,-2.7664 11.4902,-4.375 18.7578,-4.375 9.732,0 12.4755,0.5731 17.459,2.9512 5.6186,3.7184 9.499,9.6317 11.6113,16.6152 l 2.6934,0.045 c -0.014,-0.1558 -0.0179,-0.2598 -0.0313,-0.4121 l -1.9609,-0.033 c -2.1123,-6.9835 -5.9927,-12.8968 -11.6113,-16.6152 -4.9836,-2.3781 -7.727,-2.9512 -17.459,-2.9512 z m -26.918,9.9473 c -0.1965,0.1709 -0.3894,0.3478 -0.584,0.5215 8.0827,8.3155 15.0694,16.1207 14.7168,32.0605 -4e-4,12.5117 -6.117,24.0877 -12.08,29.8184 -0.6908,0.6638 -1.4339,1.3173 -2.2012,1.9629 0.0364,0.033 0.073,0.066 0.1113,0.1 0.9863,-0.804 1.9223,-1.6281 2.791,-2.4629 5.963,-5.7307 12.0797,-17.3067 12.0801,-29.8184 0.3543,-16.0178 -6.7011,-23.8201 -14.834,-32.1816 z m -89.2968,18.6211 c -0.4788,5.0732 -2.0183,7.5318 -4.2129,8.9668 2.4974,-1.2334 4.2827,-3.6303 4.8632,-8.9395 -0.4658,-0.014 -0.6503,-0.027 -0.6503,-0.027 z m -15.9864,14.8476 c -7.4921,0.028 -13.93155,0.2364 -14.10905,0.2364 -0.3495,0 -0.589,0.1465 -0.7402,0.4082 0.0146,-5e-4 0.0242,-0.01 0.0391,-0.01 0.2366,0 10.90795,-0.3696 22.12655,-0.1895 6.5268,-0.1592 8.617,6.3023 8.7305,11.3926 l 2.7383,0.014 v -0.4042 l -2.0371,-0.01 c -0.1135,-5.0903 -2.2037,-11.5518 -8.7305,-11.3926 -2.8046,-0.045 -5.5202,-0.056 -8.0176,-0.047 z m -96.2871,18.705 c 0.039,5.2991 0.3733,13.3896 1.0274,20.2306 0.5055,0.9181 11.571,8.1447 30.3535,8.1347 11.7645,0 18.5641,-1.482 23.9179,-4.5918 -5.2486,2.8397 -11.962,4.1915 -23.2167,4.1915 -18.7826,0.01 -29.8481,-7.2167 -30.3536,-8.1348 -0.6396,-6.6893 -0.9685,-14.5083 -1.0195,-19.8302 z m 260.4219,0.3985 c -0.1648,0.017 -0.509,0.047 -0.543,0.047 -0.938,1.8009 -3.2126,9.3732 -4.9082,11.3653 -1.9854,2.9181 -3.6347,5.4519 -6.9824,7.4687 3.8293,-2.0764 5.5647,-4.7548 7.6836,-7.8691 1.6144,-1.8968 3.7392,-8.7958 4.75,-11.0118 z m -131.0156,4.1876 c -0.2693,0.043 -0.5095,0.097 -0.6582,0.1777 -1.0225,5.9021 -3.4875,11.0425 -8.2364,13.9883 5.1429,-2.8284 7.7984,-8.0776 8.8946,-14.166 z m -59.918,2.3261 c -0.2049,0.681 -0.4514,1.3434 -0.7188,1.9922 -0.0842,7.781 -0.1874,17.6113 -0.1874,17.6113 20.733,-0.4444 42.0871,0.4037 62.7226,-0.061 -0.0299,-0.1289 -0.0491,-0.2594 -0.0762,-0.3887 -20.3949,0.4264 -41.4715,-0.39 -61.9453,0.049 0,0 0.1171,-11.1273 0.2051,-19.2031 z"
           style="font-style:normal;font-variant:normal;font-weight:normal;font-stretch:normal;font-family:'Californian FB';-inkscape-font-specification:'Californian FB';opacity:1;fill:#4d4d4d;fill-opacity:1;stroke-width:0.81208533px;filter:url(#filter7270)"
           sodipodi:nodetypes="cccccsccccsccccccccccccccccccccccccccscccscccscccsccccscccccccccssccccccccccccccssccsccccccsccccccccccccccccscsccccccccccccccccccccccccccccccccccc" />
      </g>
    </g>
  </g>
</svg>
