<?xml version="1.0" encoding="UTF-8" standalone="no"?>
<svg
   xmlns:dc="http://purl.org/dc/elements/1.1/"
   xmlns:cc="http://creativecommons.org/ns#"
   xmlns:rdf="http://www.w3.org/1999/02/22-rdf-syntax-ns#"
   xmlns:svg="http://www.w3.org/2000/svg"
   xmlns="http://www.w3.org/2000/svg"
   xmlns:sodipodi="http://sodipodi.sourceforge.net/DTD/sodipodi-0.dtd"
   xmlns:inkscape="http://www.inkscape.org/namespaces/inkscape"
   id="svg10690"
   version="1.1"
   viewBox="0 0 44.149699 8.1228558"
   height="8.1228561mm"
   width="44.1497mm"
   sodipodi:docname="SystemsSoftware_Logo.svg"
   inkscape:version="0.92.1 r15371">
  <sodipodi:namedview
     pagecolor="#ffffff"
     bordercolor="#666666"
     borderopacity="1"
     objecttolerance="10"
     gridtolerance="10"
     guidetolerance="10"
     inkscape:pageopacity="0"
     inkscape:pageshadow="2"
     inkscape:window-width="1366"
     inkscape:window-height="705"
     id="namedview23"
     showgrid="false"
     inkscape:zoom="1.6911381"
     inkscape:cx="54.742837"
     inkscape:cy="55.376111"
     inkscape:window-x="-8"
     inkscape:window-y="-8"
     inkscape:window-maximized="1"
     inkscape:current-layer="g22556" />
  <defs
     id="defs10684" />
  <metadata
     id="metadata10687">
    <rdf:RDF>
      <cc:Work
         rdf:about="">
        <dc:format>image/svg+xml</dc:format>
        <dc:type
           rdf:resource="http://purl.org/dc/dcmitype/StillImage" />
        <dc:title />
      </cc:Work>
    </rdf:RDF>
  </metadata>
  <g
     id="g22556"
     transform="matrix(0.15755173,0,0,0.15755173,206.03648,-390.39476)"
     style="fill:#4d4d4d">
    <g
       transform="translate(-146.58089,42.32214)"
       id="g22510"
       style="fill:#4d4d4d">
      <g
         id="g22497"
         transform="translate(-59.585456,1.4352701)"
         style="fill:#4d4d4d">
        <path
           inkscape:connector-curvature="0"
           id="rect22224-0-8-4-9"
           d="m -995.03538,2449.508 c -0.324,21.084 -30.25172,33.8083 -47.01582,36.1744 8.7943,-8.5102 10.9136,-8.4461 11.2663,-16.6308 0.7119,-16.523 -23.619,-13.1513 -23.8399,-19.2502 -0.2209,-6.099 21.0642,-13.625 38.9697,-13.3365 9.4174,-5e-4 20.69802,3.6511 20.61972,13.0431 z"
           style="opacity:1;fill:#4d4d4d;fill-opacity:1;stroke:none;stroke-width:1.25750411;stroke-linejoin:miter;stroke-miterlimit:4.30000019;stroke-dasharray:none;stroke-dashoffset:0;stroke-opacity:1" />
        <g
           transform="translate(58.917318,-1.277192)"
           id="g22372"
           style="fill:#4d4d4d">
          <g
             id="g22366"
             style="fill:#4d4d4d">
            <g
               id="g22353"
               style="fill:#4d4d4d">
              <path
                 inkscape:connector-curvature="0"
                 style="opacity:1;fill:#4d4d4d;fill-opacity:0.93333333;stroke:none;stroke-width:1.25750411;stroke-linejoin:miter;stroke-miterlimit:4.30000019;stroke-dasharray:none;stroke-dashoffset:0;stroke-opacity:1"
                 d="m -1053.9527,2450.7852 c -0.324,21.084 -30.2517,33.8083 -47.0158,36.1744 8.7943,-8.5102 10.9136,-8.4461 11.2663,-16.6308 0.7119,-16.523 -23.619,-13.1513 -23.8399,-19.2502 -0.2209,-6.099 21.0642,-13.625 38.9697,-13.3365 9.4174,-5e-4 20.698,3.6511 20.6197,13.0431 z"
                 id="rect22224-0-8-1" />
              <path
                 inkscape:connector-curvature="0"
                 style="opacity:1;fill:#4d4d4d;fill-opacity:1;stroke:none;stroke-width:1.25750411;stroke-linejoin:miter;stroke-miterlimit:4.30000019;stroke-dasharray:none;stroke-dashoffset:0;stroke-opacity:1"
                 d="m -1053.9527,2450.7852 c -0.324,21.084 -30.2517,33.8083 -47.0158,36.1744 8.7943,-8.5102 10.9136,-8.4461 11.2663,-16.6308 0.7119,-16.523 -23.619,-13.1513 -23.8399,-19.2502 -0.2209,-6.099 21.0642,-13.625 38.9697,-13.3365 9.4174,-5e-4 20.698,3.6511 20.6197,13.0431 z"
                 id="rect22224-0-8" />
            </g>
          </g>
        </g>
      </g>
      <g
         id="g22377"
         transform="translate(0.85411775,-0.14637316)"
         style="fill:#4d4d4d">
        <g
           id="g22361"
           style="fill:#4d4d4d">
          <path
             inkscape:connector-curvature="0"
             style="opacity:1;fill:#4d4d4d;fill-opacity:0.93333333;stroke:none;stroke-width:1.13385832;stroke-linejoin:miter;stroke-miterlimit:4.30000019;stroke-dasharray:none;stroke-dashoffset:0;stroke-opacity:1"
             d="m -1162.0118,2472.8688 c 0.078,-21.0422 40.7082,-35.2378 57.4723,-37.1615 -15.9293,6.2689 -19.0166,9.6359 -18.7703,12.821 0.8596,11.1147 26.0793,3.8913 26.2388,14.1005 0.1594,10.2093 -26.5386,20.3786 -44.4441,20.1441 -11.3856,-0.05 -20.5135,-0.1179 -20.4967,-9.9041 z"
             id="rect22224-0-2" />
          <path
             inkscape:connector-curvature="0"
             style="opacity:1;fill:#4d4d4d;fill-opacity:1;stroke:none;stroke-width:1.13385832;stroke-linejoin:miter;stroke-miterlimit:4.30000019;stroke-dasharray:none;stroke-dashoffset:0;stroke-opacity:1"
             d="m -1162.0118,2472.8688 c 0.078,-21.0422 40.7082,-35.2378 57.4723,-37.1615 -15.9293,6.2689 -19.0166,9.6359 -18.7703,12.821 0.8596,11.1147 26.0793,3.8913 26.2388,14.1005 0.1594,10.2093 -26.5386,20.3786 -44.4441,20.1441 -11.3856,-0.05 -20.5135,-0.1179 -20.4967,-9.9041 z"
             id="rect22224-0" />
        </g>
      </g>
    </g>
    <text
       id="text22514"
       y="2500.9644"
       x="-1196.7135"
       style="font-style:normal;font-variant:normal;font-weight:normal;font-stretch:normal;font-size:23.75225449px;line-height:125%;font-family:Roboto;-inkscape-font-specification:Roboto;letter-spacing:0px;word-spacing:0px;fill:#4d4d4d;fill-opacity:1;stroke:none;stroke-width:0.49483868px;stroke-linecap:butt;stroke-linejoin:miter;stroke-opacity:1"
       xml:space="preserve"><tspan
         style="font-style:normal;font-variant:normal;font-weight:bold;font-stretch:normal;font-family:Roboto;-inkscape-font-specification:'Roboto Bold';fill:#4d4d4d;stroke-width:0.49483868px"
         id="tspan22518"
         y="2500.9644"
         x="-1196.7135">Systems</tspan></text>
    <text
       id="text22514-2"
       y="2524.1553"
       x="-1175.9667"
       style="font-style:normal;font-variant:normal;font-weight:normal;font-stretch:normal;font-size:23.75225449px;line-height:125%;font-family:Roboto;-inkscape-font-specification:Roboto;letter-spacing:0px;word-spacing:0px;fill:#4d4d4d;fill-opacity:1;stroke:none;stroke-width:0.49483868px;stroke-linecap:butt;stroke-linejoin:miter;stroke-opacity:1"
       xml:space="preserve"><tspan
         style="font-style:normal;font-variant:normal;font-weight:bold;font-stretch:normal;font-family:Roboto;-inkscape-font-specification:'Roboto Bold';fill:#4d4d4d;stroke-width:0.49483868px"
         id="tspan22518-4"
         y="2524.1553"
         x="-1175.9667">&amp; Software</tspan></text>
  </g>
</svg>
